<?xml version="1.0" encoding="utf-8" standalone="no"?>
<!DOCTYPE svg PUBLIC "-//W3C//DTD SVG 1.1//EN"
  "http://www.w3.org/Graphics/SVG/1.1/DTD/svg11.dtd">
<svg xmlns:xlink="http://www.w3.org/1999/xlink" width="443.52pt" height="103.968pt" viewBox="0 0 443.52 103.968" xmlns="http://www.w3.org/2000/svg" version="1.1">
 <metadata>
  <rdf:RDF xmlns:dc="http://purl.org/dc/elements/1.1/" xmlns:cc="http://creativecommons.org/ns#" xmlns:rdf="http://www.w3.org/1999/02/22-rdf-syntax-ns#">
   <cc:Work>
    <dc:type rdf:resource="http://purl.org/dc/dcmitype/StillImage"/>
    <dc:date>2026-05-26T15:45:41.810734</dc:date>
    <dc:format>image/svg+xml</dc:format>
    <dc:creator>
     <cc:Agent>
      <dc:title>Matplotlib v3.10.9, https://matplotlib.org/</dc:title>
     </cc:Agent>
    </dc:creator>
   </cc:Work>
  </rdf:RDF>
 </metadata>
 <defs>
  <style type="text/css">*{stroke-linejoin: round; stroke-linecap: butt}</style>
 </defs>
 <g id="figure_1">
  <g id="patch_1">
   <path d="M 0 103.968 
L 443.52 103.968 
L 443.52 0 
L 0 0 
z
" style="fill: #ffffff"/>
  </g>
  <g id="axes_1">
   <g id="patch_2">
    <path d="M 17.177143 79.7832 
L 80.125714 79.7832 
L 80.125714 24.1848 
L 17.177143 24.1848 
z
" clip-path="url(#p4f930dcfcb)" style="fill: #ffffff; stroke: #0f1419; stroke-width: 0.7; stroke-linejoin: miter"/>
   </g>
   <g id="patch_3">
    <path d="M 103.731429 79.7832 
L 166.68 79.7832 
L 166.68 24.1848 
L 103.731429 24.1848 
z
" clip-path="url(#p4f930dcfcb)" style="fill: #ffffff; stroke: #0f1419; stroke-width: 0.7; stroke-linejoin: miter"/>
   </g>
   <g id="patch_4">
    <path d="M 190.285714 79.7832 
L 253.234286 79.7832 
L 253.234286 24.1848 
L 190.285714 24.1848 
z
" clip-path="url(#p4f930dcfcb)" style="fill: #ffffff; stroke: #0f1419; stroke-width: 0.7; stroke-linejoin: miter"/>
   </g>
   <g id="patch_5">
    <path d="M 276.84 79.7832 
L 339.788571 79.7832 
L 339.788571 24.1848 
L 276.84 24.1848 
z
" clip-path="url(#p4f930dcfcb)" style="fill: #ffffff; stroke: #0f1419; stroke-width: 0.7; stroke-linejoin: miter"/>
   </g>
   <g id="patch_6">
    <path d="M 363.394286 79.7832 
L 426.342857 79.7832 
L 426.342857 24.1848 
L 363.394286 24.1848 
z
" clip-path="url(#p4f930dcfcb)" style="fill: #30c5f5; stroke: #0f1419; stroke-width: 0.7; stroke-linejoin: miter"/>
   </g>
   <g id="text_1">
    <!-- Target -->
    <g style="fill: #0f1419" transform="translate(36.535179 40.059075) scale(0.08 -0.08)">
     <defs>
      <path id="Geist-Regular-54" d="M 1491 0 
L 1491 4006 
L 77 4006 
L 77 4544 
L 3456 4544 
L 3456 4006 
L 2042 4006 
L 2042 0 
L 1491 0 
z
" transform="scale(0.015625)"/>
      <path id="Geist-Regular-61" d="M 1427 -77 
Q 902 -77 592 166 
Q 282 410 282 845 
Q 282 1280 538 1529 
Q 794 1779 1350 1882 
L 2554 2106 
Q 2554 2957 1747 2957 
Q 1395 2957 1190 2800 
Q 986 2643 909 2349 
L 339 2394 
Q 435 2874 803 3171 
Q 1171 3469 1747 3469 
Q 2400 3469 2745 3101 
Q 3091 2733 3091 2086 
L 3091 685 
Q 3091 474 3270 474 
L 3405 474 
L 3405 0 
Q 3328 -13 3200 -13 
Q 2906 -13 2755 105 
Q 2605 224 2566 493 
L 2560 525 
Q 2432 262 2118 92 
Q 1805 -77 1427 -77 
z
M 1478 397 
Q 1990 397 2272 685 
Q 2554 973 2554 1395 
L 2554 1638 
L 1453 1434 
Q 1107 1370 976 1238 
Q 845 1107 845 896 
Q 845 659 1014 528 
Q 1184 397 1478 397 
z
" transform="scale(0.015625)"/>
      <path id="Geist-Regular-72" d="M 512 0 
L 512 3392 
L 986 3392 
L 1005 2765 
Q 1178 3392 1811 3392 
L 2144 3392 
L 2144 2880 
L 1818 2880 
Q 1050 2880 1050 2048 
L 1050 0 
L 512 0 
z
" transform="scale(0.015625)"/>
      <path id="Geist-Regular-67" d="M 1798 -1037 
Q 1254 -1037 870 -768 
Q 486 -499 378 -51 
L 941 -13 
Q 1018 -250 1213 -387 
Q 1408 -525 1798 -525 
Q 2259 -525 2505 -339 
Q 2752 -154 2752 218 
L 2752 768 
Q 2630 499 2361 339 
Q 2093 179 1760 179 
Q 1331 179 995 390 
Q 659 602 470 973 
Q 282 1344 282 1824 
Q 282 2310 467 2678 
Q 653 3046 982 3257 
Q 1312 3469 1734 3469 
Q 2093 3469 2377 3302 
Q 2662 3136 2778 2854 
L 2778 3392 
L 3290 3392 
L 3290 230 
Q 3290 -365 2896 -701 
Q 2502 -1037 1798 -1037 
z
M 1786 691 
Q 2221 691 2483 995 
Q 2746 1299 2752 1824 
Q 2765 2349 2496 2653 
Q 2227 2957 1786 2957 
Q 1338 2957 1091 2653 
Q 845 2349 845 1824 
Q 845 1299 1097 995 
Q 1350 691 1786 691 
z
" transform="scale(0.015625)"/>
      <path id="Geist-Regular-65" d="M 1837 -77 
Q 1357 -77 1008 140 
Q 659 358 470 758 
Q 282 1158 282 1696 
Q 282 2234 470 2630 
Q 659 3027 1001 3248 
Q 1344 3469 1811 3469 
Q 2253 3469 2592 3261 
Q 2931 3053 3120 2656 
Q 3309 2259 3309 1690 
L 3309 1530 
L 845 1530 
Q 877 986 1136 710 
Q 1395 435 1837 435 
Q 2170 435 2384 592 
Q 2598 749 2682 1005 
L 3258 960 
Q 3123 506 2748 214 
Q 2374 -77 1837 -77 
z
M 845 2003 
L 2720 2003 
Q 2682 2496 2435 2726 
Q 2189 2957 1811 2957 
Q 1421 2957 1168 2717 
Q 915 2477 845 2003 
z
" transform="scale(0.015625)"/>
      <path id="Geist-Regular-74" d="M 1754 0 
Q 1293 0 1072 211 
Q 851 422 851 870 
L 851 2918 
L 352 2918 
L 352 3392 
L 851 3392 
L 851 4186 
L 1389 4186 
L 1389 3392 
L 2291 3392 
L 2291 2918 
L 1389 2918 
L 1389 883 
Q 1389 653 1491 563 
Q 1594 474 1805 474 
L 2291 474 
L 2291 0 
L 1754 0 
z
" transform="scale(0.015625)"/>
     </defs>
     <use xlink:href="#Geist-Regular-54"/>
     <use xlink:href="#Geist-Regular-61" transform="translate(55.199997 0)"/>
     <use xlink:href="#Geist-Regular-72" transform="translate(110.299988 0)"/>
     <use xlink:href="#Geist-Regular-67" transform="translate(148.199982 0)"/>
     <use xlink:href="#Geist-Regular-65" transform="translate(207.599976 0)"/>
     <use xlink:href="#Geist-Regular-74" transform="translate(263.699966 0)"/>
    </g>
    <!-- RBX1 (108 aa) -->
    <g style="fill: #0f1419" transform="translate(24.078929 48.171325) scale(0.08 -0.08)">
     <defs>
      <path id="Geist-Regular-52" d="M 589 0 
L 589 4544 
L 2310 4544 
Q 3027 4544 3443 4173 
Q 3859 3802 3859 3168 
Q 3859 2906 3750 2691 
Q 3642 2477 3469 2329 
Q 3296 2182 3091 2125 
Q 3392 2074 3568 1882 
Q 3744 1690 3776 1338 
L 3904 0 
L 3347 0 
L 3232 1280 
Q 3206 1562 3030 1696 
Q 2854 1830 2458 1830 
L 1139 1830 
L 1139 0 
L 589 0 
z
M 1139 2368 
L 2381 2368 
Q 2797 2368 3040 2579 
Q 3283 2790 3283 3181 
Q 3283 3578 3033 3792 
Q 2784 4006 2310 4006 
L 1139 4006 
L 1139 2368 
z
" transform="scale(0.015625)"/>
      <path id="Geist-Regular-42" d="M 589 0 
L 589 4544 
L 2150 4544 
Q 2957 4544 3360 4249 
Q 3763 3955 3763 3322 
Q 3763 2938 3548 2678 
Q 3334 2419 2957 2349 
Q 3424 2285 3689 1987 
Q 3955 1690 3955 1248 
Q 3955 627 3552 313 
Q 3149 0 2406 0 
L 589 0 
z
M 1139 2579 
L 2150 2579 
Q 2650 2579 2918 2768 
Q 3187 2957 3187 3296 
Q 3187 4006 2150 4006 
L 1139 4006 
L 1139 2579 
z
M 1139 538 
L 2406 538 
Q 2874 538 3126 730 
Q 3379 922 3379 1280 
Q 3379 1638 3126 1840 
Q 2874 2042 2406 2042 
L 1139 2042 
L 1139 538 
z
" transform="scale(0.015625)"/>
      <path id="Geist-Regular-58" d="M 96 0 
L 1587 2278 
L 109 4544 
L 762 4544 
L 1946 2714 
L 3117 4544 
L 3757 4544 
L 2278 2291 
L 3782 0 
L 3130 0 
L 1933 1856 
L 736 0 
L 96 0 
z
" transform="scale(0.015625)"/>
      <path id="Geist-Regular-31" d="M 1203 0 
L 1203 3366 
L 256 3366 
L 256 3840 
L 640 3840 
Q 1018 3840 1168 3990 
Q 1318 4141 1318 4544 
L 1754 4544 
L 1754 0 
L 1203 0 
z
" transform="scale(0.015625)"/>
      <path id="Geist-Regular-20" transform="scale(0.015625)"/>
      <path id="Geist-Regular-28" d="M 1178 -704 
Q 288 634 288 2048 
Q 288 3469 1178 4800 
L 1658 4800 
Q 845 3418 845 2048 
Q 845 1363 1049 675 
Q 1254 -13 1658 -704 
L 1178 -704 
z
" transform="scale(0.015625)"/>
      <path id="Geist-Regular-30" d="M 2118 -102 
Q 1568 -102 1165 186 
Q 762 474 541 1005 
Q 320 1536 320 2266 
Q 320 2995 541 3529 
Q 762 4064 1165 4355 
Q 1568 4646 2118 4646 
Q 2675 4646 3078 4355 
Q 3482 4064 3702 3533 
Q 3923 3002 3923 2266 
Q 3923 1536 3702 1005 
Q 3482 474 3078 186 
Q 2675 -102 2118 -102 
z
M 2118 435 
Q 2707 435 3027 912 
Q 3347 1389 3347 2266 
Q 3347 3149 3027 3629 
Q 2707 4109 2118 4109 
Q 1536 4109 1216 3629 
Q 896 3149 896 2266 
Q 896 1389 1216 912 
Q 1536 435 2118 435 
z
" transform="scale(0.015625)"/>
      <path id="Geist-Regular-38" d="M 1933 -102 
Q 1446 -102 1065 51 
Q 685 205 470 505 
Q 256 806 256 1248 
Q 256 1690 493 1997 
Q 730 2304 1133 2445 
Q 832 2566 653 2800 
Q 474 3034 474 3398 
Q 474 3757 656 4038 
Q 838 4320 1164 4483 
Q 1491 4646 1933 4646 
Q 2374 4646 2704 4483 
Q 3034 4320 3213 4038 
Q 3392 3757 3392 3398 
Q 3392 3034 3213 2800 
Q 3034 2566 2733 2445 
Q 3136 2304 3373 1997 
Q 3610 1690 3610 1248 
Q 3610 806 3395 505 
Q 3181 205 2803 51 
Q 2426 -102 1933 -102 
z
M 1933 2669 
Q 2355 2669 2585 2851 
Q 2816 3034 2816 3398 
Q 2816 3725 2592 3917 
Q 2368 4109 1933 4109 
Q 1504 4109 1277 3917 
Q 1050 3725 1050 3398 
Q 1050 3034 1280 2851 
Q 1510 2669 1933 2669 
z
M 1933 435 
Q 2438 435 2736 643 
Q 3034 851 3034 1280 
Q 3034 1677 2768 1917 
Q 2502 2157 1933 2157 
Q 1370 2157 1101 1917 
Q 832 1677 832 1280 
Q 832 851 1129 643 
Q 1427 435 1933 435 
z
" transform="scale(0.015625)"/>
      <path id="Geist-Regular-29" d="M 576 -704 
L 96 -704 
Q 499 -13 704 675 
Q 909 1363 909 2048 
Q 909 3418 96 4800 
L 576 4800 
Q 1466 3469 1466 2048 
Q 1466 634 576 -704 
z
" transform="scale(0.015625)"/>
     </defs>
     <use xlink:href="#Geist-Regular-52"/>
     <use xlink:href="#Geist-Regular-42" transform="translate(67.199997 0)"/>
     <use xlink:href="#Geist-Regular-58" transform="translate(135.199982 0)"/>
     <use xlink:href="#Geist-Regular-31" transform="translate(195.799973 0)"/>
     <use xlink:href="#Geist-Regular-20" transform="translate(234.199966 0)"/>
     <use xlink:href="#Geist-Regular-28" transform="translate(259.199951 0)"/>
     <use xlink:href="#Geist-Regular-31" transform="translate(286.599945 0)"/>
     <use xlink:href="#Geist-Regular-30" transform="translate(324.999939 0)"/>
     <use xlink:href="#Geist-Regular-38" transform="translate(391.299927 0)"/>
     <use xlink:href="#Geist-Regular-20" transform="translate(451.699921 0)"/>
     <use xlink:href="#Geist-Regular-61" transform="translate(476.699905 0)"/>
     <use xlink:href="#Geist-Regular-61" transform="translate(531.799896 0)"/>
     <use xlink:href="#Geist-Regular-29" transform="translate(586.899887 0)"/>
    </g>
   </g>
   <g id="text_2">
    <!-- RBX1 -->
    <g style="fill: #5c6773" transform="translate(40.454319 66.58) scale(0.07 -0.07)">
     <use xlink:href="#Geist-Regular-52"/>
     <use xlink:href="#Geist-Regular-42" transform="translate(67.199997 0)"/>
     <use xlink:href="#Geist-Regular-58" transform="translate(135.199982 0)"/>
     <use xlink:href="#Geist-Regular-31" transform="translate(195.799973 0)"/>
    </g>
   </g>
   <g id="patch_7">
    <path d="M 82.128396 51.984 
Q 91.929137 51.984 101.059058 51.984 
" style="fill: none; stroke: #0f1419; stroke-width: 0.6; stroke-linecap: round"/>
    <path d="M 97.859058 50.384 
L 101.059058 51.984 
L 97.859058 53.584 
" style="fill: none; stroke: #0f1419; stroke-width: 0.6; stroke-linecap: round"/>
   </g>
   <g id="text_3">
    <!-- Community -->
    <g style="fill: #0f1419" transform="translate(113.769464 40.118325) scale(0.08 -0.08)">
     <defs>
      <path id="Geist-Regular-43" d="M 2330 -102 
Q 1722 -102 1261 182 
Q 800 467 544 998 
Q 288 1530 288 2266 
Q 288 3002 544 3536 
Q 800 4070 1261 4358 
Q 1722 4646 2330 4646 
Q 3155 4646 3609 4230 
Q 4064 3814 4205 3098 
L 3622 3059 
Q 3526 3546 3212 3827 
Q 2899 4109 2330 4109 
Q 1894 4109 1564 3888 
Q 1235 3667 1049 3254 
Q 864 2842 864 2266 
Q 864 1690 1049 1280 
Q 1235 870 1564 652 
Q 1894 435 2330 435 
Q 2925 435 3251 745 
Q 3578 1056 3661 1587 
L 4243 1549 
Q 4160 1056 3917 685 
Q 3674 314 3274 106 
Q 2874 -102 2330 -102 
z
" transform="scale(0.015625)"/>
      <path id="Geist-Regular-6f" d="M 1837 -77 
Q 1370 -77 1018 140 
Q 666 358 474 758 
Q 282 1158 282 1696 
Q 282 2240 474 2637 
Q 666 3034 1018 3251 
Q 1370 3469 1837 3469 
Q 2304 3469 2653 3251 
Q 3002 3034 3194 2637 
Q 3386 2240 3386 1696 
Q 3386 1158 3194 758 
Q 3002 358 2653 140 
Q 2304 -77 1837 -77 
z
M 1837 435 
Q 2304 435 2563 771 
Q 2822 1107 2822 1696 
Q 2822 2285 2563 2621 
Q 2304 2957 1837 2957 
Q 1370 2957 1107 2621 
Q 845 2285 845 1696 
Q 845 1107 1107 771 
Q 1370 435 1837 435 
z
" transform="scale(0.015625)"/>
      <path id="Geist-Regular-6d" d="M 512 0 
L 512 3392 
L 1005 3392 
L 1018 2797 
Q 1146 3110 1395 3289 
Q 1645 3469 1971 3469 
Q 2355 3469 2617 3283 
Q 2880 3098 2989 2758 
Q 3098 3098 3354 3283 
Q 3610 3469 3981 3469 
Q 4525 3469 4813 3133 
Q 5101 2797 5101 2182 
L 5101 0 
L 4563 0 
L 4563 2067 
Q 4563 2995 3853 2995 
Q 3501 2995 3286 2739 
Q 3072 2483 3072 2029 
L 3072 0 
L 2534 0 
L 2534 2029 
Q 2534 2483 2374 2739 
Q 2214 2995 1837 2995 
Q 1485 2995 1267 2739 
Q 1050 2483 1050 2029 
L 1050 0 
L 512 0 
z
" transform="scale(0.015625)"/>
      <path id="Geist-Regular-75" d="M 1626 -77 
Q 1120 -77 816 265 
Q 512 608 512 1210 
L 512 3392 
L 1050 3392 
L 1050 1357 
Q 1050 864 1226 630 
Q 1402 397 1766 397 
Q 2170 397 2400 656 
Q 2630 915 2630 1370 
L 2630 3392 
L 3168 3392 
L 3168 0 
L 2656 0 
L 2656 550 
Q 2374 -77 1626 -77 
z
" transform="scale(0.015625)"/>
      <path id="Geist-Regular-6e" d="M 512 0 
L 512 3392 
L 1005 3392 
L 1018 2784 
Q 1152 3136 1430 3302 
Q 1709 3469 2061 3469 
Q 2451 3469 2704 3296 
Q 2957 3123 3081 2832 
Q 3206 2541 3206 2182 
L 3206 0 
L 2669 0 
L 2669 2029 
Q 2669 2502 2499 2748 
Q 2330 2995 1946 2995 
Q 1555 2995 1302 2748 
Q 1050 2502 1050 2029 
L 1050 0 
L 512 0 
z
" transform="scale(0.015625)"/>
      <path id="Geist-Regular-69" d="M 512 0 
L 512 3392 
L 1050 3392 
L 1050 0 
L 512 0 
z
M 498 3923 
L 498 4550 
L 1061 4550 
L 1061 3923 
L 498 3923 
z
" transform="scale(0.015625)"/>
      <path id="Geist-Regular-79" d="M 659 -960 
L 659 -486 
L 1050 -486 
Q 1229 -486 1315 -432 
Q 1402 -378 1446 -256 
L 1568 64 
L 1382 64 
L 141 3392 
L 730 3392 
L 1741 563 
L 2707 3392 
L 3296 3392 
L 1920 -429 
Q 1824 -704 1632 -832 
Q 1440 -960 1101 -960 
L 659 -960 
z
" transform="scale(0.015625)"/>
     </defs>
     <use xlink:href="#Geist-Regular-43"/>
     <use xlink:href="#Geist-Regular-6f" transform="translate(70.299988 0)"/>
     <use xlink:href="#Geist-Regular-6d" transform="translate(127.599976 0)"/>
     <use xlink:href="#Geist-Regular-6d" transform="translate(215.299957 0)"/>
     <use xlink:href="#Geist-Regular-75" transform="translate(302.999939 0)"/>
     <use xlink:href="#Geist-Regular-6e" transform="translate(360.499924 0)"/>
     <use xlink:href="#Geist-Regular-69" transform="translate(418.599915 0)"/>
     <use xlink:href="#Geist-Regular-74" transform="translate(442.999908 0)"/>
     <use xlink:href="#Geist-Regular-79" transform="translate(482.199905 0)"/>
    </g>
    <!-- design -->
    <g style="fill: #0f1419" transform="translate(122.825714 48.143325) scale(0.08 -0.08)">
     <defs>
      <path id="Geist-Regular-64" d="M 1715 -77 
Q 1274 -77 950 140 
Q 627 358 454 755 
Q 282 1152 282 1696 
Q 282 2240 454 2637 
Q 627 3034 950 3251 
Q 1274 3469 1715 3469 
Q 2054 3469 2336 3325 
Q 2618 3181 2758 2918 
L 2758 4544 
L 3296 4544 
L 3296 0 
L 2810 0 
L 2790 512 
Q 2650 237 2362 80 
Q 2074 -77 1715 -77 
z
M 1824 435 
Q 2278 435 2518 774 
Q 2758 1114 2758 1696 
Q 2758 2285 2518 2621 
Q 2278 2957 1824 2957 
Q 1376 2957 1110 2621 
Q 845 2285 845 1696 
Q 845 1114 1110 774 
Q 1376 435 1824 435 
z
" transform="scale(0.015625)"/>
      <path id="Geist-Regular-73" d="M 1747 -77 
Q 1050 -77 685 246 
Q 320 570 282 1069 
L 845 1107 
Q 896 800 1097 617 
Q 1299 435 1747 435 
Q 2093 435 2281 547 
Q 2470 659 2470 909 
Q 2470 1043 2409 1132 
Q 2349 1222 2169 1289 
Q 1990 1357 1645 1421 
Q 1171 1510 902 1644 
Q 634 1779 525 1971 
Q 416 2163 416 2432 
Q 416 2886 752 3177 
Q 1088 3469 1702 3469 
Q 2150 3469 2435 3312 
Q 2720 3155 2867 2905 
Q 3014 2656 3046 2381 
L 2483 2342 
Q 2458 2586 2282 2771 
Q 2106 2957 1690 2957 
Q 1325 2957 1152 2816 
Q 979 2675 979 2458 
Q 979 2208 1139 2089 
Q 1299 1971 1747 1894 
Q 2246 1811 2528 1683 
Q 2810 1555 2922 1366 
Q 3034 1178 3034 909 
Q 3034 442 2672 182 
Q 2310 -77 1747 -77 
z
" transform="scale(0.015625)"/>
     </defs>
     <use xlink:href="#Geist-Regular-64"/>
     <use xlink:href="#Geist-Regular-65" transform="translate(59.499985 0)"/>
     <use xlink:href="#Geist-Regular-73" transform="translate(115.599976 0)"/>
     <use xlink:href="#Geist-Regular-69" transform="translate(167.59996 0)"/>
     <use xlink:href="#Geist-Regular-67" transform="translate(191.999954 0)"/>
     <use xlink:href="#Geist-Regular-6e" transform="translate(251.399948 0)"/>
    </g>
   </g>
   <g id="text_4">
    <!-- 198 teams -->
    <g style="fill: #5c6773" transform="translate(118.643605 62.963953) scale(0.07 -0.07)">
     <defs>
      <path id="Geist-Regular-39" d="M 1715 -102 
Q 1152 -102 797 176 
Q 442 454 314 877 
L 896 922 
Q 973 691 1177 563 
Q 1382 435 1715 435 
Q 2227 435 2528 809 
Q 2829 1184 2886 2010 
L 2886 2048 
Q 2701 1760 2413 1603 
Q 2125 1446 1766 1446 
Q 1325 1446 985 1644 
Q 646 1843 451 2201 
Q 256 2560 256 3034 
Q 256 3533 461 3894 
Q 666 4256 1024 4451 
Q 1382 4646 1837 4646 
Q 2406 4646 2768 4384 
Q 3130 4122 3302 3651 
Q 3475 3181 3475 2541 
Q 3475 1971 3385 1488 
Q 3296 1005 3091 649 
Q 2886 294 2550 96 
Q 2214 -102 1715 -102 
z
M 1805 1990 
Q 2272 1990 2569 2262 
Q 2867 2534 2867 3021 
Q 2867 3494 2592 3801 
Q 2317 4109 1837 4109 
Q 1370 4109 1101 3808 
Q 832 3507 832 3034 
Q 832 2554 1104 2272 
Q 1376 1990 1805 1990 
z
" transform="scale(0.015625)"/>
     </defs>
     <use xlink:href="#Geist-Regular-31"/>
     <use xlink:href="#Geist-Regular-39" transform="translate(38.399994 0)"/>
     <use xlink:href="#Geist-Regular-38" transform="translate(97.699982 0)"/>
     <use xlink:href="#Geist-Regular-20" transform="translate(158.099976 0)"/>
     <use xlink:href="#Geist-Regular-74" transform="translate(183.09996 0)"/>
     <use xlink:href="#Geist-Regular-65" transform="translate(222.299957 0)"/>
     <use xlink:href="#Geist-Regular-61" transform="translate(278.399948 0)"/>
     <use xlink:href="#Geist-Regular-6d" transform="translate(333.499939 0)"/>
     <use xlink:href="#Geist-Regular-73" transform="translate(421.199921 0)"/>
    </g>
    <!-- 12,707 designs -->
    <g style="fill: #5c6773" transform="translate(111.475167 70.111828) scale(0.07 -0.07)">
     <defs>
      <path id="Geist-Regular-32" d="M 384 0 
Q 384 480 534 867 
Q 685 1254 1065 1606 
Q 1446 1958 2125 2317 
Q 2438 2483 2630 2624 
Q 2822 2765 2912 2925 
Q 3002 3085 3002 3315 
Q 3002 3667 2774 3888 
Q 2547 4109 2093 4109 
Q 1613 4109 1334 3859 
Q 1056 3610 986 3149 
L 410 3187 
Q 486 3853 921 4249 
Q 1357 4646 2093 4646 
Q 2797 4646 3187 4281 
Q 3578 3917 3578 3328 
Q 3578 2982 3462 2729 
Q 3347 2477 3075 2259 
Q 2803 2042 2330 1792 
Q 1715 1466 1398 1133 
Q 1082 800 1062 538 
L 3578 538 
L 3578 0 
L 384 0 
z
" transform="scale(0.015625)"/>
      <path id="Geist-Regular-2c" d="M 301 -998 
L 608 0 
L 282 0 
L 282 723 
L 1005 723 
L 1005 90 
L 621 -998 
L 301 -998 
z
" transform="scale(0.015625)"/>
      <path id="Geist-Regular-37" d="M 1139 0 
Q 1139 704 1331 1405 
Q 1523 2106 1884 2765 
Q 2246 3424 2752 4006 
L 128 4006 
L 128 4544 
L 3354 4544 
L 3354 4045 
Q 2784 3392 2416 2755 
Q 2048 2118 1875 1443 
Q 1702 768 1702 0 
L 1139 0 
z
" transform="scale(0.015625)"/>
     </defs>
     <use xlink:href="#Geist-Regular-31"/>
     <use xlink:href="#Geist-Regular-32" transform="translate(38.399994 0)"/>
     <use xlink:href="#Geist-Regular-2c" transform="translate(100.299988 0)"/>
     <use xlink:href="#Geist-Regular-37" transform="translate(120.399979 0)"/>
     <use xlink:href="#Geist-Regular-30" transform="translate(172.799973 0)"/>
     <use xlink:href="#Geist-Regular-37" transform="translate(239.09996 0)"/>
     <use xlink:href="#Geist-Regular-20" transform="translate(291.499954 0)"/>
     <use xlink:href="#Geist-Regular-64" transform="translate(316.499939 0)"/>
     <use xlink:href="#Geist-Regular-65" transform="translate(375.999924 0)"/>
     <use xlink:href="#Geist-Regular-73" transform="translate(432.099915 0)"/>
     <use xlink:href="#Geist-Regular-69" transform="translate(484.099899 0)"/>
     <use xlink:href="#Geist-Regular-67" transform="translate(508.499893 0)"/>
     <use xlink:href="#Geist-Regular-6e" transform="translate(567.899887 0)"/>
     <use xlink:href="#Geist-Regular-73" transform="translate(625.999878 0)"/>
    </g>
   </g>
   <g id="patch_8">
    <path d="M 168.682682 51.984 
Q 178.483423 51.984 187.613343 51.984 
" style="fill: none; stroke: #0f1419; stroke-width: 0.6; stroke-linecap: round"/>
    <path d="M 184.413343 50.384 
L 187.613343 51.984 
L 184.413343 53.584 
" style="fill: none; stroke: #0f1419; stroke-width: 0.6; stroke-linecap: round"/>
   </g>
   <g id="text_5">
    <!-- Organiser -->
    <g style="fill: #0f1419" transform="translate(203.5675 40.122825) scale(0.08 -0.08)">
     <defs>
      <path id="Geist-Regular-4f" d="M 2362 -102 
Q 1715 -102 1251 182 
Q 787 467 537 998 
Q 288 1530 288 2266 
Q 288 3002 537 3536 
Q 787 4070 1251 4358 
Q 1715 4646 2362 4646 
Q 3014 4646 3478 4358 
Q 3942 4070 4192 3536 
Q 4442 3002 4442 2266 
Q 4442 1530 4192 998 
Q 3942 467 3478 182 
Q 3014 -102 2362 -102 
z
M 2362 435 
Q 3066 435 3466 918 
Q 3866 1402 3866 2266 
Q 3866 3130 3466 3619 
Q 3066 4109 2362 4109 
Q 1664 4109 1264 3619 
Q 864 3130 864 2266 
Q 864 1402 1264 918 
Q 1664 435 2362 435 
z
" transform="scale(0.015625)"/>
     </defs>
     <use xlink:href="#Geist-Regular-4f"/>
     <use xlink:href="#Geist-Regular-72" transform="translate(73.899994 0)"/>
     <use xlink:href="#Geist-Regular-67" transform="translate(111.799988 0)"/>
     <use xlink:href="#Geist-Regular-61" transform="translate(171.199982 0)"/>
     <use xlink:href="#Geist-Regular-6e" transform="translate(226.299973 0)"/>
     <use xlink:href="#Geist-Regular-69" transform="translate(284.399963 0)"/>
     <use xlink:href="#Geist-Regular-73" transform="translate(308.799957 0)"/>
     <use xlink:href="#Geist-Regular-65" transform="translate(360.799942 0)"/>
     <use xlink:href="#Geist-Regular-72" transform="translate(416.899933 0)"/>
    </g>
    <!-- selection -->
    <g style="fill: #0f1419" transform="translate(204.780625 48.235075) scale(0.08 -0.08)">
     <defs>
      <path id="Geist-Regular-6c" d="M 1178 0 
Q 883 0 697 153 
Q 512 307 512 640 
L 512 4544 
L 1050 4544 
L 1050 685 
Q 1050 474 1261 474 
L 1555 474 
L 1555 0 
L 1178 0 
z
" transform="scale(0.015625)"/>
      <path id="Geist-Regular-63" d="M 1837 -77 
Q 1363 -77 1014 140 
Q 666 358 474 758 
Q 282 1158 282 1696 
Q 282 2234 474 2630 
Q 666 3027 1014 3248 
Q 1363 3469 1837 3469 
Q 2426 3469 2810 3165 
Q 3194 2861 3277 2291 
L 2714 2253 
Q 2656 2592 2419 2774 
Q 2182 2957 1837 2957 
Q 1370 2957 1107 2621 
Q 845 2285 845 1696 
Q 845 1107 1107 771 
Q 1370 435 1837 435 
Q 2182 435 2419 627 
Q 2656 819 2714 1203 
L 3277 1165 
Q 3194 602 2810 262 
Q 2426 -77 1837 -77 
z
" transform="scale(0.015625)"/>
     </defs>
     <use xlink:href="#Geist-Regular-73"/>
     <use xlink:href="#Geist-Regular-65" transform="translate(51.999985 0)"/>
     <use xlink:href="#Geist-Regular-6c" transform="translate(108.099976 0)"/>
     <use xlink:href="#Geist-Regular-65" transform="translate(134.799973 0)"/>
     <use xlink:href="#Geist-Regular-63" transform="translate(190.899963 0)"/>
     <use xlink:href="#Geist-Regular-74" transform="translate(245.499954 0)"/>
     <use xlink:href="#Geist-Regular-69" transform="translate(284.699951 0)"/>
     <use xlink:href="#Geist-Regular-6f" transform="translate(309.099945 0)"/>
     <use xlink:href="#Geist-Regular-6e" transform="translate(366.399933 0)"/>
    </g>
   </g>
   <g id="text_6">
    <!-- 322 selected -->
    <g style="fill: #5c6773" transform="translate(200.396328 66.58) scale(0.07 -0.07)">
     <defs>
      <path id="Geist-Regular-33" d="M 1926 -102 
Q 1171 -102 761 253 
Q 352 608 320 1171 
L 890 1210 
Q 928 794 1213 614 
Q 1498 435 1926 435 
Q 2221 435 2470 515 
Q 2720 595 2873 777 
Q 3027 960 3027 1267 
Q 3027 1722 2726 1933 
Q 2426 2144 1933 2144 
L 1574 2144 
L 1574 2682 
L 1933 2682 
Q 2336 2682 2601 2842 
Q 2867 3002 2867 3392 
Q 2867 4109 1958 4109 
Q 1510 4109 1283 3936 
Q 1056 3763 1011 3462 
L 435 3501 
Q 499 4013 889 4329 
Q 1280 4646 1958 4646 
Q 2650 4646 3046 4316 
Q 3443 3987 3443 3418 
Q 3443 2688 2656 2445 
Q 3098 2323 3350 2012 
Q 3603 1702 3603 1267 
Q 3603 832 3388 525 
Q 3174 218 2796 58 
Q 2419 -102 1926 -102 
z
" transform="scale(0.015625)"/>
     </defs>
     <use xlink:href="#Geist-Regular-33"/>
     <use xlink:href="#Geist-Regular-32" transform="translate(61.299988 0)"/>
     <use xlink:href="#Geist-Regular-32" transform="translate(123.199982 0)"/>
     <use xlink:href="#Geist-Regular-20" transform="translate(185.099976 0)"/>
     <use xlink:href="#Geist-Regular-73" transform="translate(210.09996 0)"/>
     <use xlink:href="#Geist-Regular-65" transform="translate(262.099945 0)"/>
     <use xlink:href="#Geist-Regular-6c" transform="translate(318.199936 0)"/>
     <use xlink:href="#Geist-Regular-65" transform="translate(344.899933 0)"/>
     <use xlink:href="#Geist-Regular-63" transform="translate(400.999924 0)"/>
     <use xlink:href="#Geist-Regular-74" transform="translate(455.599915 0)"/>
     <use xlink:href="#Geist-Regular-65" transform="translate(494.799911 0)"/>
     <use xlink:href="#Geist-Regular-64" transform="translate(550.899902 0)"/>
    </g>
   </g>
   <g id="patch_9">
    <path d="M 255.236968 51.984 
Q 265.037709 51.984 274.167629 51.984 
" style="fill: none; stroke: #0f1419; stroke-width: 0.6; stroke-linecap: round"/>
    <path d="M 270.967629 50.384 
L 274.167629 51.984 
L 270.967629 53.584 
" style="fill: none; stroke: #0f1419; stroke-width: 0.6; stroke-linecap: round"/>
   </g>
   <g id="text_7">
    <!-- Expression -->
    <g style="fill: #0f1419" transform="translate(287.670536 40.11095) scale(0.08 -0.08)">
     <defs>
      <path id="Geist-Regular-45" d="M 589 0 
L 589 4544 
L 3443 4544 
L 3443 4006 
L 1139 4006 
L 1139 2541 
L 3366 2541 
L 3366 2016 
L 1139 2016 
L 1139 538 
L 3494 538 
L 3494 0 
L 589 0 
z
" transform="scale(0.015625)"/>
      <path id="Geist-Regular-78" d="M 301 0 
L 1549 1741 
L 365 3392 
L 992 3392 
L 1882 2112 
L 2746 3392 
L 3386 3392 
L 2214 1728 
L 3443 0 
L 2816 0 
L 1882 1370 
L 941 0 
L 301 0 
z
" transform="scale(0.015625)"/>
      <path id="Geist-Regular-70" d="M 512 -960 
L 512 3392 
L 1011 3392 
L 1018 2874 
Q 1171 3168 1443 3318 
Q 1715 3469 2061 3469 
Q 2566 3469 2889 3219 
Q 3213 2970 3369 2566 
Q 3526 2163 3526 1696 
Q 3526 1229 3369 825 
Q 3213 422 2889 172 
Q 2566 -77 2061 -77 
Q 1728 -77 1456 64 
Q 1184 205 1050 448 
L 1050 -960 
L 512 -960 
z
M 2010 435 
Q 2451 435 2707 768 
Q 2963 1101 2963 1696 
Q 2963 2291 2707 2624 
Q 2451 2957 2010 2957 
Q 1568 2957 1309 2640 
Q 1050 2323 1050 1696 
Q 1050 1075 1306 755 
Q 1562 435 2010 435 
z
" transform="scale(0.015625)"/>
     </defs>
     <use xlink:href="#Geist-Regular-45"/>
     <use xlink:href="#Geist-Regular-78" transform="translate(60.299988 0)"/>
     <use xlink:href="#Geist-Regular-70" transform="translate(118.799973 0)"/>
     <use xlink:href="#Geist-Regular-72" transform="translate(178.299957 0)"/>
     <use xlink:href="#Geist-Regular-65" transform="translate(216.199951 0)"/>
     <use xlink:href="#Geist-Regular-73" transform="translate(272.299942 0)"/>
     <use xlink:href="#Geist-Regular-73" transform="translate(324.299927 0)"/>
     <use xlink:href="#Geist-Regular-69" transform="translate(376.299911 0)"/>
     <use xlink:href="#Geist-Regular-6f" transform="translate(400.699905 0)"/>
     <use xlink:href="#Geist-Regular-6e" transform="translate(457.999893 0)"/>
    </g>
    <!-- + SPR -->
    <g style="fill: #0f1419" transform="translate(297.234286 48.12695) scale(0.08 -0.08)">
     <defs>
      <path id="Geist-Regular-2b" d="M 1536 358 
L 1536 1638 
L 256 1638 
L 256 2138 
L 1536 2138 
L 1536 3418 
L 2035 3418 
L 2035 2138 
L 3315 2138 
L 3315 1638 
L 2035 1638 
L 2035 358 
L 1536 358 
z
" transform="scale(0.015625)"/>
      <path id="Geist-Regular-53" d="M 2150 -102 
Q 1626 -102 1235 96 
Q 845 294 617 643 
Q 390 992 352 1453 
L 928 1491 
Q 998 986 1308 710 
Q 1619 435 2163 435 
Q 2637 435 2902 617 
Q 3168 800 3168 1152 
Q 3168 1363 3069 1526 
Q 2970 1690 2691 1827 
Q 2413 1965 1869 2099 
Q 1344 2234 1033 2394 
Q 723 2554 585 2784 
Q 448 3014 448 3354 
Q 448 3738 630 4029 
Q 813 4320 1152 4483 
Q 1491 4646 1958 4646 
Q 2458 4646 2816 4457 
Q 3174 4269 3385 3942 
Q 3597 3616 3648 3200 
L 3072 3162 
Q 3014 3578 2736 3843 
Q 2458 4109 1946 4109 
Q 1523 4109 1273 3907 
Q 1024 3706 1024 3379 
Q 1024 3168 1123 3030 
Q 1222 2893 1478 2787 
Q 1734 2682 2214 2560 
Q 2784 2419 3120 2224 
Q 3456 2029 3600 1773 
Q 3744 1517 3744 1190 
Q 3744 794 3539 502 
Q 3334 211 2976 54 
Q 2618 -102 2150 -102 
z
" transform="scale(0.015625)"/>
      <path id="Geist-Regular-50" d="M 589 0 
L 589 4544 
L 2221 4544 
Q 2982 4544 3404 4179 
Q 3827 3814 3827 3168 
Q 3827 2509 3404 2137 
Q 2982 1766 2221 1766 
L 1139 1766 
L 1139 0 
L 589 0 
z
M 1139 2304 
L 2221 2304 
Q 3251 2304 3251 3168 
Q 3251 4006 2221 4006 
L 1139 4006 
L 1139 2304 
z
" transform="scale(0.015625)"/>
     </defs>
     <use xlink:href="#Geist-Regular-2b"/>
     <use xlink:href="#Geist-Regular-20" transform="translate(55.799988 0)"/>
     <use xlink:href="#Geist-Regular-53" transform="translate(80.799973 0)"/>
     <use xlink:href="#Geist-Regular-50" transform="translate(144.799957 0)"/>
     <use xlink:href="#Geist-Regular-52" transform="translate(209.799942 0)"/>
    </g>
   </g>
   <g id="text_8">
    <!-- 255 expressed -->
    <g style="fill: #5c6773" transform="translate(283.821942 63.128781) scale(0.07 -0.07)">
     <defs>
      <path id="Geist-Regular-35" d="M 1997 -102 
Q 1280 -102 857 253 
Q 435 608 384 1171 
L 960 1210 
Q 1011 826 1289 630 
Q 1568 435 1997 435 
Q 2477 435 2758 707 
Q 3040 979 3040 1459 
Q 3040 1939 2761 2220 
Q 2483 2502 1984 2502 
Q 1670 2502 1414 2368 
Q 1158 2234 1050 1990 
L 461 1990 
L 762 4544 
L 3309 4544 
L 3309 4006 
L 1267 4006 
L 1101 2637 
Q 1274 2829 1533 2928 
Q 1792 3027 2086 3027 
Q 2541 3027 2886 2825 
Q 3232 2624 3424 2269 
Q 3616 1914 3616 1459 
Q 3616 1005 3411 649 
Q 3206 294 2841 96 
Q 2477 -102 1997 -102 
z
" transform="scale(0.015625)"/>
     </defs>
     <use xlink:href="#Geist-Regular-32"/>
     <use xlink:href="#Geist-Regular-35" transform="translate(61.899994 0)"/>
     <use xlink:href="#Geist-Regular-35" transform="translate(124.499985 0)"/>
     <use xlink:href="#Geist-Regular-20" transform="translate(187.099976 0)"/>
     <use xlink:href="#Geist-Regular-65" transform="translate(212.09996 0)"/>
     <use xlink:href="#Geist-Regular-78" transform="translate(268.199951 0)"/>
     <use xlink:href="#Geist-Regular-70" transform="translate(326.699936 0)"/>
     <use xlink:href="#Geist-Regular-72" transform="translate(386.199921 0)"/>
     <use xlink:href="#Geist-Regular-65" transform="translate(424.099915 0)"/>
     <use xlink:href="#Geist-Regular-73" transform="translate(480.199905 0)"/>
     <use xlink:href="#Geist-Regular-73" transform="translate(532.19989 0)"/>
     <use xlink:href="#Geist-Regular-65" transform="translate(584.199875 0)"/>
     <use xlink:href="#Geist-Regular-64" transform="translate(640.299866 0)"/>
    </g>
    <!-- 9 binders -->
    <g style="fill: #5c6773" transform="translate(293.201395 70.142781) scale(0.07 -0.07)">
     <defs>
      <path id="Geist-Regular-62" d="M 2067 -77 
Q 1715 -77 1440 80 
Q 1165 237 1018 512 
L 998 0 
L 512 0 
L 512 4544 
L 1050 4544 
L 1050 2918 
Q 1178 3130 1446 3299 
Q 1715 3469 2067 3469 
Q 2515 3469 2841 3251 
Q 3168 3034 3347 2637 
Q 3526 2240 3526 1696 
Q 3526 1152 3347 755 
Q 3168 358 2841 140 
Q 2515 -77 2067 -77 
z
M 2035 435 
Q 2464 435 2713 774 
Q 2963 1114 2963 1696 
Q 2963 2285 2713 2621 
Q 2464 2957 2048 2957 
Q 1581 2957 1315 2621 
Q 1050 2285 1050 1696 
Q 1050 1114 1312 774 
Q 1574 435 2035 435 
z
" transform="scale(0.015625)"/>
     </defs>
     <use xlink:href="#Geist-Regular-39"/>
     <use xlink:href="#Geist-Regular-20" transform="translate(59.299988 0)"/>
     <use xlink:href="#Geist-Regular-62" transform="translate(84.299973 0)"/>
     <use xlink:href="#Geist-Regular-69" transform="translate(143.799957 0)"/>
     <use xlink:href="#Geist-Regular-6e" transform="translate(168.199951 0)"/>
     <use xlink:href="#Geist-Regular-64" transform="translate(226.299942 0)"/>
     <use xlink:href="#Geist-Regular-65" transform="translate(285.799927 0)"/>
     <use xlink:href="#Geist-Regular-72" transform="translate(341.899918 0)"/>
     <use xlink:href="#Geist-Regular-73" transform="translate(379.799911 0)"/>
    </g>
   </g>
   <g id="patch_10">
    <path d="M 341.791253 51.984 
Q 351.591994 51.984 360.721915 51.984 
" style="fill: none; stroke: #0f1419; stroke-width: 0.6; stroke-linecap: round"/>
    <path d="M 357.521915 50.384 
L 360.721915 51.984 
L 357.521915 53.584 
" style="fill: none; stroke: #0f1419; stroke-width: 0.6; stroke-linecap: round"/>
   </g>
   <g id="text_9">
    <!-- Top binder -->
    <g style="fill: #0f1419" transform="translate(375.168571 44.11895) scale(0.08 -0.08)">
     <use xlink:href="#Geist-Regular-54"/>
     <use xlink:href="#Geist-Regular-6f" transform="translate(55.199997 0)"/>
     <use xlink:href="#Geist-Regular-70" transform="translate(112.499985 0)"/>
     <use xlink:href="#Geist-Regular-20" transform="translate(171.999969 0)"/>
     <use xlink:href="#Geist-Regular-62" transform="translate(196.999954 0)"/>
     <use xlink:href="#Geist-Regular-69" transform="translate(256.499939 0)"/>
     <use xlink:href="#Geist-Regular-6e" transform="translate(280.899933 0)"/>
     <use xlink:href="#Geist-Regular-64" transform="translate(338.999924 0)"/>
     <use xlink:href="#Geist-Regular-65" transform="translate(398.499908 0)"/>
     <use xlink:href="#Geist-Regular-72" transform="translate(454.599899 0)"/>
    </g>
   </g>
   <g id="text_10">
    <!-- 26 nM -->
    <g style="fill: #0f1419" transform="translate(384.648571 63.073) scale(0.07 -0.07)">
     <defs>
      <path id="Geist-Regular-36" d="M 1933 -102 
Q 1165 -102 742 422 
Q 320 947 320 1920 
Q 320 2483 413 2976 
Q 506 3469 714 3843 
Q 922 4218 1264 4432 
Q 1606 4646 2112 4646 
Q 2720 4646 3053 4348 
Q 3386 4051 3520 3571 
L 2944 3520 
Q 2867 3789 2678 3949 
Q 2490 4109 2112 4109 
Q 1600 4109 1286 3712 
Q 973 3315 902 2522 
L 896 2477 
Q 1062 2726 1353 2892 
Q 1645 3059 2035 3059 
Q 2483 3059 2822 2867 
Q 3162 2675 3350 2326 
Q 3539 1978 3539 1510 
Q 3539 1011 3334 649 
Q 3130 288 2768 93 
Q 2406 -102 1933 -102 
z
M 1946 435 
Q 2394 435 2678 720 
Q 2963 1005 2963 1510 
Q 2963 1984 2694 2259 
Q 2426 2534 1997 2534 
Q 1690 2534 1446 2409 
Q 1203 2285 1062 2054 
Q 922 1824 922 1510 
Q 922 1043 1200 739 
Q 1478 435 1946 435 
z
" transform="scale(0.015625)"/>
      <path id="Geist-Regular-4d" d="M 589 0 
L 589 4544 
L 1357 4544 
L 2810 602 
L 4256 4544 
L 5024 4544 
L 5024 0 
L 4474 0 
L 4474 3520 
L 3174 0 
L 2438 0 
L 1139 3520 
L 1139 0 
L 589 0 
z
" transform="scale(0.015625)"/>
     </defs>
     <use xlink:href="#Geist-Regular-32"/>
     <use xlink:href="#Geist-Regular-36" transform="translate(61.899994 0)"/>
     <use xlink:href="#Geist-Regular-20" transform="translate(121.199982 0)"/>
     <use xlink:href="#Geist-Regular-6e" transform="translate(146.199966 0)"/>
     <use xlink:href="#Geist-Regular-4d" transform="translate(204.299957 0)"/>
    </g>
    <!-- (ORBIT) -->
    <g style="fill: #0f1419" transform="translate(382.754196 70.087) scale(0.07 -0.07)">
     <defs>
      <path id="Geist-Regular-49" d="M 589 0 
L 589 4544 
L 1139 4544 
L 1139 0 
L 589 0 
z
" transform="scale(0.015625)"/>
     </defs>
     <use xlink:href="#Geist-Regular-28"/>
     <use xlink:href="#Geist-Regular-4f" transform="translate(27.399994 0)"/>
     <use xlink:href="#Geist-Regular-52" transform="translate(101.299988 0)"/>
     <use xlink:href="#Geist-Regular-42" transform="translate(168.499985 0)"/>
     <use xlink:href="#Geist-Regular-49" transform="translate(236.499969 0)"/>
     <use xlink:href="#Geist-Regular-54" transform="translate(263.499954 0)"/>
     <use xlink:href="#Geist-Regular-29" transform="translate(318.699951 0)"/>
    </g>
   </g>
  </g>
 </g>
 <defs>
  <clipPath id="p4f930dcfcb">
   <rect x="1.44" y="1.44" width="440.64" height="101.088"/>
  </clipPath>
 </defs>
</svg>
