<?xml version="1.0" encoding="utf-8" standalone="no"?>
<!DOCTYPE svg PUBLIC "-//W3C//DTD SVG 1.1//EN"
  "http://www.w3.org/Graphics/SVG/1.1/DTD/svg11.dtd">
<svg xmlns:xlink="http://www.w3.org/1999/xlink" width="489.77375pt" height="245.365491pt" viewBox="0 0 489.77375 245.365491" xmlns="http://www.w3.org/2000/svg" version="1.1">
 <metadata>
  <rdf:RDF xmlns:dc="http://purl.org/dc/elements/1.1/" xmlns:cc="http://creativecommons.org/ns#" xmlns:rdf="http://www.w3.org/1999/02/22-rdf-syntax-ns#">
   <cc:Work>
    <dc:type rdf:resource="http://purl.org/dc/dcmitype/StillImage"/>
    <dc:date>2026-05-26T15:45:42.641404</dc:date>
    <dc:format>image/svg+xml</dc:format>
    <dc:creator>
     <cc:Agent>
      <dc:title>Matplotlib v3.10.9, https://matplotlib.org/</dc:title>
     </cc:Agent>
    </dc:creator>
   </cc:Work>
  </rdf:RDF>
 </metadata>
 <defs>
  <style type="text/css">*{stroke-linejoin: round; stroke-linecap: butt}</style>
 </defs>
 <g id="figure_1">
  <g id="patch_1">
   <path d="M 0 245.365491 
L 489.77375 245.365491 
L 489.77375 0 
L 0 0 
z
" style="fill: #ffffff"/>
  </g>
  <g id="axes_1">
   <g id="patch_2">
    <path d="M 27.89375 163.806078 
L 488.33375 163.806078 
L 488.33375 11.973437 
L 27.89375 11.973437 
z
" style="fill: #ffffff"/>
   </g>
   <g id="matplotlib.axis_1">
    <g id="xtick_1">
     <g id="line2d_1">
      <defs>
       <path id="m91ab555466" d="M 0 0 
L 0 2.5 
" style="stroke: #0f1419; stroke-width: 0.5"/>
      </defs>
      <g>
       <use xlink:href="#m91ab555466" x="67.849287" y="163.806078" style="fill: #0f1419; stroke: #0f1419; stroke-width: 0.5"/>
      </g>
     </g>
     <g id="text_1">
      <!-- IDR/N-terminus -->
      <g style="fill: #0f1419" transform="translate(20.413196 194.723317) rotate(-25) scale(0.07 -0.07)">
       <defs>
        <path id="Geist-Regular-49" d="M 589 0 
L 589 4544 
L 1139 4544 
L 1139 0 
L 589 0 
z
" transform="scale(0.015625)"/>
        <path id="Geist-Regular-44" d="M 589 0 
L 589 4544 
L 1997 4544 
Q 3046 4544 3612 3952 
Q 4179 3360 4179 2266 
Q 4179 1178 3622 589 
Q 3066 0 2035 0 
L 589 0 
z
M 1139 538 
L 1997 538 
Q 3603 538 3603 2266 
Q 3603 4006 1997 4006 
L 1139 4006 
L 1139 538 
z
" transform="scale(0.015625)"/>
        <path id="Geist-Regular-52" d="M 589 0 
L 589 4544 
L 2310 4544 
Q 3027 4544 3443 4173 
Q 3859 3802 3859 3168 
Q 3859 2906 3750 2691 
Q 3642 2477 3469 2329 
Q 3296 2182 3091 2125 
Q 3392 2074 3568 1882 
Q 3744 1690 3776 1338 
L 3904 0 
L 3347 0 
L 3232 1280 
Q 3206 1562 3030 1696 
Q 2854 1830 2458 1830 
L 1139 1830 
L 1139 0 
L 589 0 
z
M 1139 2368 
L 2381 2368 
Q 2797 2368 3040 2579 
Q 3283 2790 3283 3181 
Q 3283 3578 3033 3792 
Q 2784 4006 2310 4006 
L 1139 4006 
L 1139 2368 
z
" transform="scale(0.015625)"/>
        <path id="Geist-Regular-2f" d="M 256 -704 
L 2144 4800 
L 2656 4800 
L 768 -704 
L 256 -704 
z
" transform="scale(0.015625)"/>
        <path id="Geist-Regular-4e" d="M 589 0 
L 589 4544 
L 1370 4544 
L 3616 550 
L 3616 4544 
L 4166 4544 
L 4166 0 
L 3347 0 
L 1139 3917 
L 1139 0 
L 589 0 
z
" transform="scale(0.015625)"/>
        <path id="Geist-Regular-2d" d="M 282 1613 
L 282 2118 
L 2400 2118 
L 2400 1613 
L 282 1613 
z
" transform="scale(0.015625)"/>
        <path id="Geist-Regular-74" d="M 1754 0 
Q 1293 0 1072 211 
Q 851 422 851 870 
L 851 2918 
L 352 2918 
L 352 3392 
L 851 3392 
L 851 4186 
L 1389 4186 
L 1389 3392 
L 2291 3392 
L 2291 2918 
L 1389 2918 
L 1389 883 
Q 1389 653 1491 563 
Q 1594 474 1805 474 
L 2291 474 
L 2291 0 
L 1754 0 
z
" transform="scale(0.015625)"/>
        <path id="Geist-Regular-65" d="M 1837 -77 
Q 1357 -77 1008 140 
Q 659 358 470 758 
Q 282 1158 282 1696 
Q 282 2234 470 2630 
Q 659 3027 1001 3248 
Q 1344 3469 1811 3469 
Q 2253 3469 2592 3261 
Q 2931 3053 3120 2656 
Q 3309 2259 3309 1690 
L 3309 1530 
L 845 1530 
Q 877 986 1136 710 
Q 1395 435 1837 435 
Q 2170 435 2384 592 
Q 2598 749 2682 1005 
L 3258 960 
Q 3123 506 2748 214 
Q 2374 -77 1837 -77 
z
M 845 2003 
L 2720 2003 
Q 2682 2496 2435 2726 
Q 2189 2957 1811 2957 
Q 1421 2957 1168 2717 
Q 915 2477 845 2003 
z
" transform="scale(0.015625)"/>
        <path id="Geist-Regular-72" d="M 512 0 
L 512 3392 
L 986 3392 
L 1005 2765 
Q 1178 3392 1811 3392 
L 2144 3392 
L 2144 2880 
L 1818 2880 
Q 1050 2880 1050 2048 
L 1050 0 
L 512 0 
z
" transform="scale(0.015625)"/>
        <path id="Geist-Regular-6d" d="M 512 0 
L 512 3392 
L 1005 3392 
L 1018 2797 
Q 1146 3110 1395 3289 
Q 1645 3469 1971 3469 
Q 2355 3469 2617 3283 
Q 2880 3098 2989 2758 
Q 3098 3098 3354 3283 
Q 3610 3469 3981 3469 
Q 4525 3469 4813 3133 
Q 5101 2797 5101 2182 
L 5101 0 
L 4563 0 
L 4563 2067 
Q 4563 2995 3853 2995 
Q 3501 2995 3286 2739 
Q 3072 2483 3072 2029 
L 3072 0 
L 2534 0 
L 2534 2029 
Q 2534 2483 2374 2739 
Q 2214 2995 1837 2995 
Q 1485 2995 1267 2739 
Q 1050 2483 1050 2029 
L 1050 0 
L 512 0 
z
" transform="scale(0.015625)"/>
        <path id="Geist-Regular-69" d="M 512 0 
L 512 3392 
L 1050 3392 
L 1050 0 
L 512 0 
z
M 498 3923 
L 498 4550 
L 1061 4550 
L 1061 3923 
L 498 3923 
z
" transform="scale(0.015625)"/>
        <path id="Geist-Regular-6e" d="M 512 0 
L 512 3392 
L 1005 3392 
L 1018 2784 
Q 1152 3136 1430 3302 
Q 1709 3469 2061 3469 
Q 2451 3469 2704 3296 
Q 2957 3123 3081 2832 
Q 3206 2541 3206 2182 
L 3206 0 
L 2669 0 
L 2669 2029 
Q 2669 2502 2499 2748 
Q 2330 2995 1946 2995 
Q 1555 2995 1302 2748 
Q 1050 2502 1050 2029 
L 1050 0 
L 512 0 
z
" transform="scale(0.015625)"/>
        <path id="Geist-Regular-75" d="M 1626 -77 
Q 1120 -77 816 265 
Q 512 608 512 1210 
L 512 3392 
L 1050 3392 
L 1050 1357 
Q 1050 864 1226 630 
Q 1402 397 1766 397 
Q 2170 397 2400 656 
Q 2630 915 2630 1370 
L 2630 3392 
L 3168 3392 
L 3168 0 
L 2656 0 
L 2656 550 
Q 2374 -77 1626 -77 
z
" transform="scale(0.015625)"/>
        <path id="Geist-Regular-73" d="M 1747 -77 
Q 1050 -77 685 246 
Q 320 570 282 1069 
L 845 1107 
Q 896 800 1097 617 
Q 1299 435 1747 435 
Q 2093 435 2281 547 
Q 2470 659 2470 909 
Q 2470 1043 2409 1132 
Q 2349 1222 2169 1289 
Q 1990 1357 1645 1421 
Q 1171 1510 902 1644 
Q 634 1779 525 1971 
Q 416 2163 416 2432 
Q 416 2886 752 3177 
Q 1088 3469 1702 3469 
Q 2150 3469 2435 3312 
Q 2720 3155 2867 2905 
Q 3014 2656 3046 2381 
L 2483 2342 
Q 2458 2586 2282 2771 
Q 2106 2957 1690 2957 
Q 1325 2957 1152 2816 
Q 979 2675 979 2458 
Q 979 2208 1139 2089 
Q 1299 1971 1747 1894 
Q 2246 1811 2528 1683 
Q 2810 1555 2922 1366 
Q 3034 1178 3034 909 
Q 3034 442 2672 182 
Q 2310 -77 1747 -77 
z
" transform="scale(0.015625)"/>
       </defs>
       <use xlink:href="#Geist-Regular-49"/>
       <use xlink:href="#Geist-Regular-44" transform="translate(26.999985 0)"/>
       <use xlink:href="#Geist-Regular-52" transform="translate(96.399979 0)"/>
       <use xlink:href="#Geist-Regular-2f" transform="translate(163.599976 0)"/>
       <use xlink:href="#Geist-Regular-4e" transform="translate(211.59996 0)"/>
       <use xlink:href="#Geist-Regular-2d" transform="translate(285.899948 0)"/>
       <use xlink:href="#Geist-Regular-74" transform="translate(327.799942 0)"/>
       <use xlink:href="#Geist-Regular-65" transform="translate(366.999939 0)"/>
       <use xlink:href="#Geist-Regular-72" transform="translate(423.09993 0)"/>
       <use xlink:href="#Geist-Regular-6d" transform="translate(460.999924 0)"/>
       <use xlink:href="#Geist-Regular-69" transform="translate(548.699905 0)"/>
       <use xlink:href="#Geist-Regular-6e" transform="translate(573.099899 0)"/>
       <use xlink:href="#Geist-Regular-75" transform="translate(631.19989 0)"/>
       <use xlink:href="#Geist-Regular-73" transform="translate(688.699875 0)"/>
      </g>
     </g>
    </g>
    <g id="xtick_2">
     <g id="line2d_2">
      <g>
       <use xlink:href="#m91ab555466" x="115.415403" y="163.806078" style="fill: #0f1419; stroke: #0f1419; stroke-width: 0.5"/>
      </g>
     </g>
     <g id="text_2">
      <!-- IDR/N-terminus, RING domain -->
      <g style="fill: #0f1419" transform="translate(26.681126 214.226552) rotate(-25) scale(0.07 -0.07)">
       <defs>
        <path id="Geist-Regular-2c" d="M 301 -998 
L 608 0 
L 282 0 
L 282 723 
L 1005 723 
L 1005 90 
L 621 -998 
L 301 -998 
z
" transform="scale(0.015625)"/>
        <path id="Geist-Regular-20" transform="scale(0.015625)"/>
        <path id="Geist-Regular-47" d="M 2317 -102 
Q 1677 -102 1222 205 
Q 768 512 528 1046 
Q 288 1581 288 2266 
Q 288 2950 531 3488 
Q 774 4026 1232 4336 
Q 1690 4646 2330 4646 
Q 2874 4646 3248 4448 
Q 3622 4250 3843 3910 
Q 4064 3571 4147 3149 
L 3571 3110 
Q 3488 3552 3200 3830 
Q 2912 4109 2330 4109 
Q 1811 4109 1488 3853 
Q 1165 3597 1014 3177 
Q 864 2758 864 2266 
Q 864 1747 1017 1334 
Q 1171 922 1497 678 
Q 1824 435 2330 435 
Q 2733 435 3027 617 
Q 3322 800 3482 1107 
Q 3642 1414 3648 1773 
L 2342 1773 
L 2342 2298 
L 4160 2298 
L 4160 0 
L 3750 0 
L 3725 762 
Q 3552 378 3168 138 
Q 2784 -102 2317 -102 
z
" transform="scale(0.015625)"/>
        <path id="Geist-Regular-64" d="M 1715 -77 
Q 1274 -77 950 140 
Q 627 358 454 755 
Q 282 1152 282 1696 
Q 282 2240 454 2637 
Q 627 3034 950 3251 
Q 1274 3469 1715 3469 
Q 2054 3469 2336 3325 
Q 2618 3181 2758 2918 
L 2758 4544 
L 3296 4544 
L 3296 0 
L 2810 0 
L 2790 512 
Q 2650 237 2362 80 
Q 2074 -77 1715 -77 
z
M 1824 435 
Q 2278 435 2518 774 
Q 2758 1114 2758 1696 
Q 2758 2285 2518 2621 
Q 2278 2957 1824 2957 
Q 1376 2957 1110 2621 
Q 845 2285 845 1696 
Q 845 1114 1110 774 
Q 1376 435 1824 435 
z
" transform="scale(0.015625)"/>
        <path id="Geist-Regular-6f" d="M 1837 -77 
Q 1370 -77 1018 140 
Q 666 358 474 758 
Q 282 1158 282 1696 
Q 282 2240 474 2637 
Q 666 3034 1018 3251 
Q 1370 3469 1837 3469 
Q 2304 3469 2653 3251 
Q 3002 3034 3194 2637 
Q 3386 2240 3386 1696 
Q 3386 1158 3194 758 
Q 3002 358 2653 140 
Q 2304 -77 1837 -77 
z
M 1837 435 
Q 2304 435 2563 771 
Q 2822 1107 2822 1696 
Q 2822 2285 2563 2621 
Q 2304 2957 1837 2957 
Q 1370 2957 1107 2621 
Q 845 2285 845 1696 
Q 845 1107 1107 771 
Q 1370 435 1837 435 
z
" transform="scale(0.015625)"/>
        <path id="Geist-Regular-61" d="M 1427 -77 
Q 902 -77 592 166 
Q 282 410 282 845 
Q 282 1280 538 1529 
Q 794 1779 1350 1882 
L 2554 2106 
Q 2554 2957 1747 2957 
Q 1395 2957 1190 2800 
Q 986 2643 909 2349 
L 339 2394 
Q 435 2874 803 3171 
Q 1171 3469 1747 3469 
Q 2400 3469 2745 3101 
Q 3091 2733 3091 2086 
L 3091 685 
Q 3091 474 3270 474 
L 3405 474 
L 3405 0 
Q 3328 -13 3200 -13 
Q 2906 -13 2755 105 
Q 2605 224 2566 493 
L 2560 525 
Q 2432 262 2118 92 
Q 1805 -77 1427 -77 
z
M 1478 397 
Q 1990 397 2272 685 
Q 2554 973 2554 1395 
L 2554 1638 
L 1453 1434 
Q 1107 1370 976 1238 
Q 845 1107 845 896 
Q 845 659 1014 528 
Q 1184 397 1478 397 
z
" transform="scale(0.015625)"/>
       </defs>
       <use xlink:href="#Geist-Regular-49"/>
       <use xlink:href="#Geist-Regular-44" transform="translate(26.999985 0)"/>
       <use xlink:href="#Geist-Regular-52" transform="translate(96.399979 0)"/>
       <use xlink:href="#Geist-Regular-2f" transform="translate(163.599976 0)"/>
       <use xlink:href="#Geist-Regular-4e" transform="translate(211.59996 0)"/>
       <use xlink:href="#Geist-Regular-2d" transform="translate(285.899948 0)"/>
       <use xlink:href="#Geist-Regular-74" transform="translate(327.799942 0)"/>
       <use xlink:href="#Geist-Regular-65" transform="translate(366.999939 0)"/>
       <use xlink:href="#Geist-Regular-72" transform="translate(423.09993 0)"/>
       <use xlink:href="#Geist-Regular-6d" transform="translate(460.999924 0)"/>
       <use xlink:href="#Geist-Regular-69" transform="translate(548.699905 0)"/>
       <use xlink:href="#Geist-Regular-6e" transform="translate(573.099899 0)"/>
       <use xlink:href="#Geist-Regular-75" transform="translate(631.19989 0)"/>
       <use xlink:href="#Geist-Regular-73" transform="translate(688.699875 0)"/>
       <use xlink:href="#Geist-Regular-2c" transform="translate(740.69986 0)"/>
       <use xlink:href="#Geist-Regular-20" transform="translate(760.79985 0)"/>
       <use xlink:href="#Geist-Regular-52" transform="translate(785.799835 0)"/>
       <use xlink:href="#Geist-Regular-49" transform="translate(852.999832 0)"/>
       <use xlink:href="#Geist-Regular-4e" transform="translate(879.999817 0)"/>
       <use xlink:href="#Geist-Regular-47" transform="translate(954.299805 0)"/>
       <use xlink:href="#Geist-Regular-20" transform="translate(1024.299789 0)"/>
       <use xlink:href="#Geist-Regular-64" transform="translate(1049.299774 0)"/>
       <use xlink:href="#Geist-Regular-6f" transform="translate(1108.799759 0)"/>
       <use xlink:href="#Geist-Regular-6d" transform="translate(1166.099747 0)"/>
       <use xlink:href="#Geist-Regular-61" transform="translate(1253.799728 0)"/>
       <use xlink:href="#Geist-Regular-69" transform="translate(1308.899719 0)"/>
       <use xlink:href="#Geist-Regular-6e" transform="translate(1333.299713 0)"/>
      </g>
     </g>
    </g>
    <g id="xtick_3">
     <g id="line2d_3">
      <g>
       <use xlink:href="#m91ab555466" x="162.981519" y="163.806078" style="fill: #0f1419; stroke: #0f1419; stroke-width: 0.5"/>
      </g>
     </g>
     <g id="text_3">
      <!-- E2-face, Cullin-face, IDR/N-terminus -->
      <g style="fill: #0f1419" transform="translate(53.959825 223.68673) rotate(-25) scale(0.07 -0.07)">
       <defs>
        <path id="Geist-Regular-45" d="M 589 0 
L 589 4544 
L 3443 4544 
L 3443 4006 
L 1139 4006 
L 1139 2541 
L 3366 2541 
L 3366 2016 
L 1139 2016 
L 1139 538 
L 3494 538 
L 3494 0 
L 589 0 
z
" transform="scale(0.015625)"/>
        <path id="Geist-Regular-32" d="M 384 0 
Q 384 480 534 867 
Q 685 1254 1065 1606 
Q 1446 1958 2125 2317 
Q 2438 2483 2630 2624 
Q 2822 2765 2912 2925 
Q 3002 3085 3002 3315 
Q 3002 3667 2774 3888 
Q 2547 4109 2093 4109 
Q 1613 4109 1334 3859 
Q 1056 3610 986 3149 
L 410 3187 
Q 486 3853 921 4249 
Q 1357 4646 2093 4646 
Q 2797 4646 3187 4281 
Q 3578 3917 3578 3328 
Q 3578 2982 3462 2729 
Q 3347 2477 3075 2259 
Q 2803 2042 2330 1792 
Q 1715 1466 1398 1133 
Q 1082 800 1062 538 
L 3578 538 
L 3578 0 
L 384 0 
z
" transform="scale(0.015625)"/>
        <path id="Geist-Regular-66" d="M 845 0 
L 845 2918 
L 384 2918 
L 384 3392 
L 845 3392 
L 845 3699 
Q 845 4077 1062 4310 
Q 1280 4544 1741 4544 
L 2278 4544 
L 2278 4070 
L 1779 4070 
Q 1581 4070 1481 3961 
Q 1382 3853 1382 3661 
L 1382 3392 
L 2234 3392 
L 2234 2918 
L 1382 2918 
L 1382 0 
L 845 0 
z
" transform="scale(0.015625)"/>
        <path id="Geist-Regular-63" d="M 1837 -77 
Q 1363 -77 1014 140 
Q 666 358 474 758 
Q 282 1158 282 1696 
Q 282 2234 474 2630 
Q 666 3027 1014 3248 
Q 1363 3469 1837 3469 
Q 2426 3469 2810 3165 
Q 3194 2861 3277 2291 
L 2714 2253 
Q 2656 2592 2419 2774 
Q 2182 2957 1837 2957 
Q 1370 2957 1107 2621 
Q 845 2285 845 1696 
Q 845 1107 1107 771 
Q 1370 435 1837 435 
Q 2182 435 2419 627 
Q 2656 819 2714 1203 
L 3277 1165 
Q 3194 602 2810 262 
Q 2426 -77 1837 -77 
z
" transform="scale(0.015625)"/>
        <path id="Geist-Regular-43" d="M 2330 -102 
Q 1722 -102 1261 182 
Q 800 467 544 998 
Q 288 1530 288 2266 
Q 288 3002 544 3536 
Q 800 4070 1261 4358 
Q 1722 4646 2330 4646 
Q 3155 4646 3609 4230 
Q 4064 3814 4205 3098 
L 3622 3059 
Q 3526 3546 3212 3827 
Q 2899 4109 2330 4109 
Q 1894 4109 1564 3888 
Q 1235 3667 1049 3254 
Q 864 2842 864 2266 
Q 864 1690 1049 1280 
Q 1235 870 1564 652 
Q 1894 435 2330 435 
Q 2925 435 3251 745 
Q 3578 1056 3661 1587 
L 4243 1549 
Q 4160 1056 3917 685 
Q 3674 314 3274 106 
Q 2874 -102 2330 -102 
z
" transform="scale(0.015625)"/>
        <path id="Geist-Regular-6c" d="M 1178 0 
Q 883 0 697 153 
Q 512 307 512 640 
L 512 4544 
L 1050 4544 
L 1050 685 
Q 1050 474 1261 474 
L 1555 474 
L 1555 0 
L 1178 0 
z
" transform="scale(0.015625)"/>
       </defs>
       <use xlink:href="#Geist-Regular-45"/>
       <use xlink:href="#Geist-Regular-32" transform="translate(60.299988 0)"/>
       <use xlink:href="#Geist-Regular-2d" transform="translate(122.199982 0)"/>
       <use xlink:href="#Geist-Regular-66" transform="translate(164.099976 0)"/>
       <use xlink:href="#Geist-Regular-61" transform="translate(203.59996 0)"/>
       <use xlink:href="#Geist-Regular-63" transform="translate(258.699951 0)"/>
       <use xlink:href="#Geist-Regular-65" transform="translate(313.299942 0)"/>
       <use xlink:href="#Geist-Regular-2c" transform="translate(369.399933 0)"/>
       <use xlink:href="#Geist-Regular-20" transform="translate(389.499924 0)"/>
       <use xlink:href="#Geist-Regular-43" transform="translate(414.499908 0)"/>
       <use xlink:href="#Geist-Regular-75" transform="translate(484.799896 0)"/>
       <use xlink:href="#Geist-Regular-6c" transform="translate(542.299881 0)"/>
       <use xlink:href="#Geist-Regular-6c" transform="translate(568.999878 0)"/>
       <use xlink:href="#Geist-Regular-69" transform="translate(595.699875 0)"/>
       <use xlink:href="#Geist-Regular-6e" transform="translate(620.099869 0)"/>
       <use xlink:href="#Geist-Regular-2d" transform="translate(678.19986 0)"/>
       <use xlink:href="#Geist-Regular-66" transform="translate(720.099854 0)"/>
       <use xlink:href="#Geist-Regular-61" transform="translate(759.599838 0)"/>
       <use xlink:href="#Geist-Regular-63" transform="translate(814.699829 0)"/>
       <use xlink:href="#Geist-Regular-65" transform="translate(869.29982 0)"/>
       <use xlink:href="#Geist-Regular-2c" transform="translate(925.399811 0)"/>
       <use xlink:href="#Geist-Regular-20" transform="translate(945.499802 0)"/>
       <use xlink:href="#Geist-Regular-49" transform="translate(970.499786 0)"/>
       <use xlink:href="#Geist-Regular-44" transform="translate(997.499771 0)"/>
       <use xlink:href="#Geist-Regular-52" transform="translate(1066.899765 0)"/>
       <use xlink:href="#Geist-Regular-2f" transform="translate(1134.099762 0)"/>
       <use xlink:href="#Geist-Regular-4e" transform="translate(1182.099747 0)"/>
       <use xlink:href="#Geist-Regular-2d" transform="translate(1256.399734 0)"/>
       <use xlink:href="#Geist-Regular-74" transform="translate(1298.299728 0)"/>
       <use xlink:href="#Geist-Regular-65" transform="translate(1337.499725 0)"/>
       <use xlink:href="#Geist-Regular-72" transform="translate(1393.599716 0)"/>
       <use xlink:href="#Geist-Regular-6d" transform="translate(1431.49971 0)"/>
       <use xlink:href="#Geist-Regular-69" transform="translate(1519.199692 0)"/>
       <use xlink:href="#Geist-Regular-6e" transform="translate(1543.599686 0)"/>
       <use xlink:href="#Geist-Regular-75" transform="translate(1601.699677 0)"/>
       <use xlink:href="#Geist-Regular-73" transform="translate(1659.199661 0)"/>
      </g>
     </g>
    </g>
    <g id="xtick_4">
     <g id="line2d_4">
      <g>
       <use xlink:href="#m91ab555466" x="210.547634" y="163.806078" style="fill: #0f1419; stroke: #0f1419; stroke-width: 0.5"/>
      </g>
     </g>
     <g id="text_4">
      <!-- RING domain -->
      <g style="fill: #0f1419" transform="translate(171.684082 190.725876) rotate(-25) scale(0.07 -0.07)">
       <use xlink:href="#Geist-Regular-52"/>
       <use xlink:href="#Geist-Regular-49" transform="translate(67.199997 0)"/>
       <use xlink:href="#Geist-Regular-4e" transform="translate(94.199982 0)"/>
       <use xlink:href="#Geist-Regular-47" transform="translate(168.499969 0)"/>
       <use xlink:href="#Geist-Regular-20" transform="translate(238.499954 0)"/>
       <use xlink:href="#Geist-Regular-64" transform="translate(263.499939 0)"/>
       <use xlink:href="#Geist-Regular-6f" transform="translate(322.999924 0)"/>
       <use xlink:href="#Geist-Regular-6d" transform="translate(380.299911 0)"/>
       <use xlink:href="#Geist-Regular-61" transform="translate(467.999893 0)"/>
       <use xlink:href="#Geist-Regular-69" transform="translate(523.099884 0)"/>
       <use xlink:href="#Geist-Regular-6e" transform="translate(547.499878 0)"/>
      </g>
     </g>
    </g>
    <g id="xtick_5">
     <g id="line2d_5">
      <g>
       <use xlink:href="#m91ab555466" x="258.11375" y="163.806078" style="fill: #0f1419; stroke: #0f1419; stroke-width: 0.5"/>
      </g>
     </g>
     <g id="text_5">
      <!-- E2-face -->
      <g style="fill: #0f1419" transform="translate(234.235289 183.738213) rotate(-25) scale(0.07 -0.07)">
       <use xlink:href="#Geist-Regular-45"/>
       <use xlink:href="#Geist-Regular-32" transform="translate(60.299988 0)"/>
       <use xlink:href="#Geist-Regular-2d" transform="translate(122.199982 0)"/>
       <use xlink:href="#Geist-Regular-66" transform="translate(164.099976 0)"/>
       <use xlink:href="#Geist-Regular-61" transform="translate(203.59996 0)"/>
       <use xlink:href="#Geist-Regular-63" transform="translate(258.699951 0)"/>
       <use xlink:href="#Geist-Regular-65" transform="translate(313.299942 0)"/>
      </g>
     </g>
    </g>
    <g id="xtick_6">
     <g id="line2d_6">
      <g>
       <use xlink:href="#m91ab555466" x="305.679866" y="163.806078" style="fill: #0f1419; stroke: #0f1419; stroke-width: 0.5"/>
      </g>
     </g>
     <g id="text_6">
      <!-- E2-face, Cullin-face, IDR/N-terminus, RING domain -->
      <g style="fill: #0f1419" transform="translate(155.377552 242.936199) rotate(-25) scale(0.07 -0.07)">
       <use xlink:href="#Geist-Regular-45"/>
       <use xlink:href="#Geist-Regular-32" transform="translate(60.299988 0)"/>
       <use xlink:href="#Geist-Regular-2d" transform="translate(122.199982 0)"/>
       <use xlink:href="#Geist-Regular-66" transform="translate(164.099976 0)"/>
       <use xlink:href="#Geist-Regular-61" transform="translate(203.59996 0)"/>
       <use xlink:href="#Geist-Regular-63" transform="translate(258.699951 0)"/>
       <use xlink:href="#Geist-Regular-65" transform="translate(313.299942 0)"/>
       <use xlink:href="#Geist-Regular-2c" transform="translate(369.399933 0)"/>
       <use xlink:href="#Geist-Regular-20" transform="translate(389.499924 0)"/>
       <use xlink:href="#Geist-Regular-43" transform="translate(414.499908 0)"/>
       <use xlink:href="#Geist-Regular-75" transform="translate(484.799896 0)"/>
       <use xlink:href="#Geist-Regular-6c" transform="translate(542.299881 0)"/>
       <use xlink:href="#Geist-Regular-6c" transform="translate(568.999878 0)"/>
       <use xlink:href="#Geist-Regular-69" transform="translate(595.699875 0)"/>
       <use xlink:href="#Geist-Regular-6e" transform="translate(620.099869 0)"/>
       <use xlink:href="#Geist-Regular-2d" transform="translate(678.19986 0)"/>
       <use xlink:href="#Geist-Regular-66" transform="translate(720.099854 0)"/>
       <use xlink:href="#Geist-Regular-61" transform="translate(759.599838 0)"/>
       <use xlink:href="#Geist-Regular-63" transform="translate(814.699829 0)"/>
       <use xlink:href="#Geist-Regular-65" transform="translate(869.29982 0)"/>
       <use xlink:href="#Geist-Regular-2c" transform="translate(925.399811 0)"/>
       <use xlink:href="#Geist-Regular-20" transform="translate(945.499802 0)"/>
       <use xlink:href="#Geist-Regular-49" transform="translate(970.499786 0)"/>
       <use xlink:href="#Geist-Regular-44" transform="translate(997.499771 0)"/>
       <use xlink:href="#Geist-Regular-52" transform="translate(1066.899765 0)"/>
       <use xlink:href="#Geist-Regular-2f" transform="translate(1134.099762 0)"/>
       <use xlink:href="#Geist-Regular-4e" transform="translate(1182.099747 0)"/>
       <use xlink:href="#Geist-Regular-2d" transform="translate(1256.399734 0)"/>
       <use xlink:href="#Geist-Regular-74" transform="translate(1298.299728 0)"/>
       <use xlink:href="#Geist-Regular-65" transform="translate(1337.499725 0)"/>
       <use xlink:href="#Geist-Regular-72" transform="translate(1393.599716 0)"/>
       <use xlink:href="#Geist-Regular-6d" transform="translate(1431.49971 0)"/>
       <use xlink:href="#Geist-Regular-69" transform="translate(1519.199692 0)"/>
       <use xlink:href="#Geist-Regular-6e" transform="translate(1543.599686 0)"/>
       <use xlink:href="#Geist-Regular-75" transform="translate(1601.699677 0)"/>
       <use xlink:href="#Geist-Regular-73" transform="translate(1659.199661 0)"/>
       <use xlink:href="#Geist-Regular-2c" transform="translate(1711.199646 0)"/>
       <use xlink:href="#Geist-Regular-20" transform="translate(1731.299637 0)"/>
       <use xlink:href="#Geist-Regular-52" transform="translate(1756.299622 0)"/>
       <use xlink:href="#Geist-Regular-49" transform="translate(1823.499619 0)"/>
       <use xlink:href="#Geist-Regular-4e" transform="translate(1850.499603 0)"/>
       <use xlink:href="#Geist-Regular-47" transform="translate(1924.799591 0)"/>
       <use xlink:href="#Geist-Regular-20" transform="translate(1994.799576 0)"/>
       <use xlink:href="#Geist-Regular-64" transform="translate(2019.799561 0)"/>
       <use xlink:href="#Geist-Regular-6f" transform="translate(2079.299545 0)"/>
       <use xlink:href="#Geist-Regular-6d" transform="translate(2136.599533 0)"/>
       <use xlink:href="#Geist-Regular-61" transform="translate(2224.299515 0)"/>
       <use xlink:href="#Geist-Regular-69" transform="translate(2279.399506 0)"/>
       <use xlink:href="#Geist-Regular-6e" transform="translate(2303.7995 0)"/>
      </g>
     </g>
    </g>
    <g id="xtick_7">
     <g id="line2d_7">
      <g>
       <use xlink:href="#m91ab555466" x="353.245981" y="163.806078" style="fill: #0f1419; stroke: #0f1419; stroke-width: 0.5"/>
      </g>
     </g>
     <g id="text_7">
      <!-- E2-face, IDR/N-terminus -->
      <g style="fill: #0f1419" transform="translate(279.496796 207.238889) rotate(-25) scale(0.07 -0.07)">
       <use xlink:href="#Geist-Regular-45"/>
       <use xlink:href="#Geist-Regular-32" transform="translate(60.299988 0)"/>
       <use xlink:href="#Geist-Regular-2d" transform="translate(122.199982 0)"/>
       <use xlink:href="#Geist-Regular-66" transform="translate(164.099976 0)"/>
       <use xlink:href="#Geist-Regular-61" transform="translate(203.59996 0)"/>
       <use xlink:href="#Geist-Regular-63" transform="translate(258.699951 0)"/>
       <use xlink:href="#Geist-Regular-65" transform="translate(313.299942 0)"/>
       <use xlink:href="#Geist-Regular-2c" transform="translate(369.399933 0)"/>
       <use xlink:href="#Geist-Regular-20" transform="translate(389.499924 0)"/>
       <use xlink:href="#Geist-Regular-49" transform="translate(414.499908 0)"/>
       <use xlink:href="#Geist-Regular-44" transform="translate(441.499893 0)"/>
       <use xlink:href="#Geist-Regular-52" transform="translate(510.899887 0)"/>
       <use xlink:href="#Geist-Regular-2f" transform="translate(578.099884 0)"/>
       <use xlink:href="#Geist-Regular-4e" transform="translate(626.099869 0)"/>
       <use xlink:href="#Geist-Regular-2d" transform="translate(700.399857 0)"/>
       <use xlink:href="#Geist-Regular-74" transform="translate(742.29985 0)"/>
       <use xlink:href="#Geist-Regular-65" transform="translate(781.499847 0)"/>
       <use xlink:href="#Geist-Regular-72" transform="translate(837.599838 0)"/>
       <use xlink:href="#Geist-Regular-6d" transform="translate(875.499832 0)"/>
       <use xlink:href="#Geist-Regular-69" transform="translate(963.199814 0)"/>
       <use xlink:href="#Geist-Regular-6e" transform="translate(987.599808 0)"/>
       <use xlink:href="#Geist-Regular-75" transform="translate(1045.699799 0)"/>
       <use xlink:href="#Geist-Regular-73" transform="translate(1103.199783 0)"/>
      </g>
     </g>
    </g>
    <g id="xtick_8">
     <g id="line2d_8">
      <g>
       <use xlink:href="#m91ab555466" x="400.812097" y="163.806078" style="fill: #0f1419; stroke: #0f1419; stroke-width: 0.5"/>
      </g>
     </g>
     <g id="text_8">
      <!-- E2-face, IDR/N-terminus, RING domain -->
      <g style="fill: #0f1419" transform="translate(285.782291 226.488359) rotate(-25) scale(0.07 -0.07)">
       <use xlink:href="#Geist-Regular-45"/>
       <use xlink:href="#Geist-Regular-32" transform="translate(60.299988 0)"/>
       <use xlink:href="#Geist-Regular-2d" transform="translate(122.199982 0)"/>
       <use xlink:href="#Geist-Regular-66" transform="translate(164.099976 0)"/>
       <use xlink:href="#Geist-Regular-61" transform="translate(203.59996 0)"/>
       <use xlink:href="#Geist-Regular-63" transform="translate(258.699951 0)"/>
       <use xlink:href="#Geist-Regular-65" transform="translate(313.299942 0)"/>
       <use xlink:href="#Geist-Regular-2c" transform="translate(369.399933 0)"/>
       <use xlink:href="#Geist-Regular-20" transform="translate(389.499924 0)"/>
       <use xlink:href="#Geist-Regular-49" transform="translate(414.499908 0)"/>
       <use xlink:href="#Geist-Regular-44" transform="translate(441.499893 0)"/>
       <use xlink:href="#Geist-Regular-52" transform="translate(510.899887 0)"/>
       <use xlink:href="#Geist-Regular-2f" transform="translate(578.099884 0)"/>
       <use xlink:href="#Geist-Regular-4e" transform="translate(626.099869 0)"/>
       <use xlink:href="#Geist-Regular-2d" transform="translate(700.399857 0)"/>
       <use xlink:href="#Geist-Regular-74" transform="translate(742.29985 0)"/>
       <use xlink:href="#Geist-Regular-65" transform="translate(781.499847 0)"/>
       <use xlink:href="#Geist-Regular-72" transform="translate(837.599838 0)"/>
       <use xlink:href="#Geist-Regular-6d" transform="translate(875.499832 0)"/>
       <use xlink:href="#Geist-Regular-69" transform="translate(963.199814 0)"/>
       <use xlink:href="#Geist-Regular-6e" transform="translate(987.599808 0)"/>
       <use xlink:href="#Geist-Regular-75" transform="translate(1045.699799 0)"/>
       <use xlink:href="#Geist-Regular-73" transform="translate(1103.199783 0)"/>
       <use xlink:href="#Geist-Regular-2c" transform="translate(1155.199768 0)"/>
       <use xlink:href="#Geist-Regular-20" transform="translate(1175.299759 0)"/>
       <use xlink:href="#Geist-Regular-52" transform="translate(1200.299744 0)"/>
       <use xlink:href="#Geist-Regular-49" transform="translate(1267.499741 0)"/>
       <use xlink:href="#Geist-Regular-4e" transform="translate(1294.499725 0)"/>
       <use xlink:href="#Geist-Regular-47" transform="translate(1368.799713 0)"/>
       <use xlink:href="#Geist-Regular-20" transform="translate(1438.799698 0)"/>
       <use xlink:href="#Geist-Regular-64" transform="translate(1463.799683 0)"/>
       <use xlink:href="#Geist-Regular-6f" transform="translate(1523.299667 0)"/>
       <use xlink:href="#Geist-Regular-6d" transform="translate(1580.599655 0)"/>
       <use xlink:href="#Geist-Regular-61" transform="translate(1668.299637 0)"/>
       <use xlink:href="#Geist-Regular-69" transform="translate(1723.399628 0)"/>
       <use xlink:href="#Geist-Regular-6e" transform="translate(1747.799622 0)"/>
      </g>
     </g>
    </g>
    <g id="xtick_9">
     <g id="line2d_9">
      <g>
       <use xlink:href="#m91ab555466" x="448.378213" y="163.806078" style="fill: #0f1419; stroke: #0f1419; stroke-width: 0.5"/>
      </g>
     </g>
     <g id="text_9">
      <!-- E2-face, RING domain -->
      <g style="fill: #0f1419" transform="translate(383.201566 203.088793) rotate(-25) scale(0.07 -0.07)">
       <use xlink:href="#Geist-Regular-45"/>
       <use xlink:href="#Geist-Regular-32" transform="translate(60.299988 0)"/>
       <use xlink:href="#Geist-Regular-2d" transform="translate(122.199982 0)"/>
       <use xlink:href="#Geist-Regular-66" transform="translate(164.099976 0)"/>
       <use xlink:href="#Geist-Regular-61" transform="translate(203.59996 0)"/>
       <use xlink:href="#Geist-Regular-63" transform="translate(258.699951 0)"/>
       <use xlink:href="#Geist-Regular-65" transform="translate(313.299942 0)"/>
       <use xlink:href="#Geist-Regular-2c" transform="translate(369.399933 0)"/>
       <use xlink:href="#Geist-Regular-20" transform="translate(389.499924 0)"/>
       <use xlink:href="#Geist-Regular-52" transform="translate(414.499908 0)"/>
       <use xlink:href="#Geist-Regular-49" transform="translate(481.699905 0)"/>
       <use xlink:href="#Geist-Regular-4e" transform="translate(508.69989 0)"/>
       <use xlink:href="#Geist-Regular-47" transform="translate(582.999878 0)"/>
       <use xlink:href="#Geist-Regular-20" transform="translate(652.999863 0)"/>
       <use xlink:href="#Geist-Regular-64" transform="translate(677.999847 0)"/>
       <use xlink:href="#Geist-Regular-6f" transform="translate(737.499832 0)"/>
       <use xlink:href="#Geist-Regular-6d" transform="translate(794.79982 0)"/>
       <use xlink:href="#Geist-Regular-61" transform="translate(882.499802 0)"/>
       <use xlink:href="#Geist-Regular-69" transform="translate(937.599792 0)"/>
       <use xlink:href="#Geist-Regular-6e" transform="translate(961.999786 0)"/>
      </g>
     </g>
    </g>
   </g>
   <g id="matplotlib.axis_2">
    <g id="ytick_1">
     <g id="line2d_10">
      <defs>
       <path id="m006c8f1441" d="M 0 0 
L -2.5 0 
" style="stroke: #0f1419; stroke-width: 0.5"/>
      </defs>
      <g>
       <use xlink:href="#m006c8f1441" x="27.89375" y="163.806078" style="fill: #0f1419; stroke: #0f1419; stroke-width: 0.5"/>
      </g>
     </g>
     <g id="text_10">
      <!-- 0 -->
      <g style="fill: #0f1419" transform="translate(18.752969 166.291078) scale(0.07 -0.07)">
       <defs>
        <path id="Geist-Regular-30" d="M 2118 -102 
Q 1568 -102 1165 186 
Q 762 474 541 1005 
Q 320 1536 320 2266 
Q 320 2995 541 3529 
Q 762 4064 1165 4355 
Q 1568 4646 2118 4646 
Q 2675 4646 3078 4355 
Q 3482 4064 3702 3533 
Q 3923 3002 3923 2266 
Q 3923 1536 3702 1005 
Q 3482 474 3078 186 
Q 2675 -102 2118 -102 
z
M 2118 435 
Q 2707 435 3027 912 
Q 3347 1389 3347 2266 
Q 3347 3149 3027 3629 
Q 2707 4109 2118 4109 
Q 1536 4109 1216 3629 
Q 896 3149 896 2266 
Q 896 1389 1216 912 
Q 1536 435 2118 435 
z
" transform="scale(0.015625)"/>
       </defs>
       <use xlink:href="#Geist-Regular-30"/>
      </g>
     </g>
    </g>
    <g id="ytick_2">
     <g id="line2d_11">
      <g>
       <use xlink:href="#m006c8f1441" x="27.89375" y="142.849192" style="fill: #0f1419; stroke: #0f1419; stroke-width: 0.5"/>
      </g>
     </g>
     <g id="text_11">
      <!-- 20 -->
      <g style="fill: #0f1419" transform="translate(14.419531 145.334192) scale(0.07 -0.07)">
       <use xlink:href="#Geist-Regular-32"/>
       <use xlink:href="#Geist-Regular-30" transform="translate(61.899994 0)"/>
      </g>
     </g>
    </g>
    <g id="ytick_3">
     <g id="line2d_12">
      <g>
       <use xlink:href="#m006c8f1441" x="27.89375" y="121.892306" style="fill: #0f1419; stroke: #0f1419; stroke-width: 0.5"/>
      </g>
     </g>
     <g id="text_12">
      <!-- 40 -->
      <g style="fill: #0f1419" transform="translate(14.447969 124.377306) scale(0.07 -0.07)">
       <defs>
        <path id="Geist-Regular-34" d="M 2502 0 
L 2502 986 
L 192 986 
L 192 1485 
L 2464 4544 
L 3053 4544 
L 3053 1523 
L 3616 1523 
L 3616 986 
L 3053 986 
L 3053 0 
L 2502 0 
z
M 858 1523 
L 2502 1523 
L 2502 3699 
L 858 1523 
z
" transform="scale(0.015625)"/>
       </defs>
       <use xlink:href="#Geist-Regular-34"/>
       <use xlink:href="#Geist-Regular-30" transform="translate(61.499985 0)"/>
      </g>
     </g>
    </g>
    <g id="ytick_4">
     <g id="line2d_13">
      <g>
       <use xlink:href="#m006c8f1441" x="27.89375" y="100.935419" style="fill: #0f1419; stroke: #0f1419; stroke-width: 0.5"/>
      </g>
     </g>
     <g id="text_13">
      <!-- 60 -->
      <g style="fill: #0f1419" transform="translate(14.602187 103.420419) scale(0.07 -0.07)">
       <defs>
        <path id="Geist-Regular-36" d="M 1933 -102 
Q 1165 -102 742 422 
Q 320 947 320 1920 
Q 320 2483 413 2976 
Q 506 3469 714 3843 
Q 922 4218 1264 4432 
Q 1606 4646 2112 4646 
Q 2720 4646 3053 4348 
Q 3386 4051 3520 3571 
L 2944 3520 
Q 2867 3789 2678 3949 
Q 2490 4109 2112 4109 
Q 1600 4109 1286 3712 
Q 973 3315 902 2522 
L 896 2477 
Q 1062 2726 1353 2892 
Q 1645 3059 2035 3059 
Q 2483 3059 2822 2867 
Q 3162 2675 3350 2326 
Q 3539 1978 3539 1510 
Q 3539 1011 3334 649 
Q 3130 288 2768 93 
Q 2406 -102 1933 -102 
z
M 1946 435 
Q 2394 435 2678 720 
Q 2963 1005 2963 1510 
Q 2963 1984 2694 2259 
Q 2426 2534 1997 2534 
Q 1690 2534 1446 2409 
Q 1203 2285 1062 2054 
Q 922 1824 922 1510 
Q 922 1043 1200 739 
Q 1478 435 1946 435 
z
" transform="scale(0.015625)"/>
       </defs>
       <use xlink:href="#Geist-Regular-36"/>
       <use xlink:href="#Geist-Regular-30" transform="translate(59.299988 0)"/>
      </g>
     </g>
    </g>
    <g id="ytick_5">
     <g id="line2d_14">
      <g>
       <use xlink:href="#m006c8f1441" x="27.89375" y="79.978533" style="fill: #0f1419; stroke: #0f1419; stroke-width: 0.5"/>
      </g>
     </g>
     <g id="text_14">
      <!-- 80 -->
      <g style="fill: #0f1419" transform="translate(14.524531 82.463533) scale(0.07 -0.07)">
       <defs>
        <path id="Geist-Regular-38" d="M 1933 -102 
Q 1446 -102 1065 51 
Q 685 205 470 505 
Q 256 806 256 1248 
Q 256 1690 493 1997 
Q 730 2304 1133 2445 
Q 832 2566 653 2800 
Q 474 3034 474 3398 
Q 474 3757 656 4038 
Q 838 4320 1164 4483 
Q 1491 4646 1933 4646 
Q 2374 4646 2704 4483 
Q 3034 4320 3213 4038 
Q 3392 3757 3392 3398 
Q 3392 3034 3213 2800 
Q 3034 2566 2733 2445 
Q 3136 2304 3373 1997 
Q 3610 1690 3610 1248 
Q 3610 806 3395 505 
Q 3181 205 2803 51 
Q 2426 -102 1933 -102 
z
M 1933 2669 
Q 2355 2669 2585 2851 
Q 2816 3034 2816 3398 
Q 2816 3725 2592 3917 
Q 2368 4109 1933 4109 
Q 1504 4109 1277 3917 
Q 1050 3725 1050 3398 
Q 1050 3034 1280 2851 
Q 1510 2669 1933 2669 
z
M 1933 435 
Q 2438 435 2736 643 
Q 3034 851 3034 1280 
Q 3034 1677 2768 1917 
Q 2502 2157 1933 2157 
Q 1370 2157 1101 1917 
Q 832 1677 832 1280 
Q 832 851 1129 643 
Q 1427 435 1933 435 
z
" transform="scale(0.015625)"/>
       </defs>
       <use xlink:href="#Geist-Regular-38"/>
       <use xlink:href="#Geist-Regular-30" transform="translate(60.399994 0)"/>
      </g>
     </g>
    </g>
    <g id="ytick_6">
     <g id="line2d_15">
      <g>
       <use xlink:href="#m006c8f1441" x="27.89375" y="59.021647" style="fill: #0f1419; stroke: #0f1419; stroke-width: 0.5"/>
      </g>
     </g>
     <g id="text_15">
      <!-- 100 -->
      <g style="fill: #0f1419" transform="translate(11.42375 61.506647) scale(0.07 -0.07)">
       <defs>
        <path id="Geist-Regular-31" d="M 1203 0 
L 1203 3366 
L 256 3366 
L 256 3840 
L 640 3840 
Q 1018 3840 1168 3990 
Q 1318 4141 1318 4544 
L 1754 4544 
L 1754 0 
L 1203 0 
z
" transform="scale(0.015625)"/>
       </defs>
       <use xlink:href="#Geist-Regular-31"/>
       <use xlink:href="#Geist-Regular-30" transform="translate(38.399994 0)"/>
       <use xlink:href="#Geist-Regular-30" transform="translate(104.699982 0)"/>
      </g>
     </g>
    </g>
    <g id="ytick_7">
     <g id="line2d_16">
      <g>
       <use xlink:href="#m006c8f1441" x="27.89375" y="38.064761" style="fill: #0f1419; stroke: #0f1419; stroke-width: 0.5"/>
      </g>
     </g>
     <g id="text_16">
      <!-- 120 -->
      <g style="fill: #0f1419" transform="translate(11.731094 40.549761) scale(0.07 -0.07)">
       <use xlink:href="#Geist-Regular-31"/>
       <use xlink:href="#Geist-Regular-32" transform="translate(38.399994 0)"/>
       <use xlink:href="#Geist-Regular-30" transform="translate(100.299988 0)"/>
      </g>
     </g>
    </g>
    <g id="ytick_8">
     <g id="line2d_17">
      <g>
       <use xlink:href="#m006c8f1441" x="27.89375" y="17.107875" style="fill: #0f1419; stroke: #0f1419; stroke-width: 0.5"/>
      </g>
     </g>
     <g id="text_17">
      <!-- 140 -->
      <g style="fill: #0f1419" transform="translate(11.759531 19.592875) scale(0.07 -0.07)">
       <use xlink:href="#Geist-Regular-31"/>
       <use xlink:href="#Geist-Regular-34" transform="translate(38.399994 0)"/>
       <use xlink:href="#Geist-Regular-30" transform="translate(99.899979 0)"/>
      </g>
     </g>
    </g>
    <g id="text_18">
     <!-- Designs -->
     <g style="fill: #0f1419" transform="translate(7.1275 102.746008) rotate(-90) scale(0.08 -0.08)">
      <defs>
       <path id="Geist-Regular-67" d="M 1798 -1037 
Q 1254 -1037 870 -768 
Q 486 -499 378 -51 
L 941 -13 
Q 1018 -250 1213 -387 
Q 1408 -525 1798 -525 
Q 2259 -525 2505 -339 
Q 2752 -154 2752 218 
L 2752 768 
Q 2630 499 2361 339 
Q 2093 179 1760 179 
Q 1331 179 995 390 
Q 659 602 470 973 
Q 282 1344 282 1824 
Q 282 2310 467 2678 
Q 653 3046 982 3257 
Q 1312 3469 1734 3469 
Q 2093 3469 2377 3302 
Q 2662 3136 2778 2854 
L 2778 3392 
L 3290 3392 
L 3290 230 
Q 3290 -365 2896 -701 
Q 2502 -1037 1798 -1037 
z
M 1786 691 
Q 2221 691 2483 995 
Q 2746 1299 2752 1824 
Q 2765 2349 2496 2653 
Q 2227 2957 1786 2957 
Q 1338 2957 1091 2653 
Q 845 2349 845 1824 
Q 845 1299 1097 995 
Q 1350 691 1786 691 
z
" transform="scale(0.015625)"/>
      </defs>
      <use xlink:href="#Geist-Regular-44"/>
      <use xlink:href="#Geist-Regular-65" transform="translate(69.399994 0)"/>
      <use xlink:href="#Geist-Regular-73" transform="translate(125.499985 0)"/>
      <use xlink:href="#Geist-Regular-69" transform="translate(177.499969 0)"/>
      <use xlink:href="#Geist-Regular-67" transform="translate(201.899963 0)"/>
      <use xlink:href="#Geist-Regular-6e" transform="translate(261.299957 0)"/>
      <use xlink:href="#Geist-Regular-73" transform="translate(319.399948 0)"/>
     </g>
    </g>
   </g>
   <g id="patch_3">
    <path d="M 48.822841 163.806078 
L 86.875733 163.806078 
L 86.875733 132.370749 
L 48.822841 132.370749 
z
" clip-path="url(#p08f22e0fb6)" style="fill: #5c6773; stroke: #0f1419; stroke-width: 0.5; stroke-linejoin: miter"/>
   </g>
   <g id="patch_4">
    <path d="M 96.388957 163.806078 
L 134.441849 163.806078 
L 134.441849 121.892306 
L 96.388957 121.892306 
z
" clip-path="url(#p08f22e0fb6)" style="fill: #5c6773; stroke: #0f1419; stroke-width: 0.5; stroke-linejoin: miter"/>
   </g>
   <g id="patch_5">
    <path d="M 143.955072 163.806078 
L 182.007965 163.806078 
L 182.007965 150.184102 
L 143.955072 150.184102 
z
" clip-path="url(#p08f22e0fb6)" style="fill: #5c6773; stroke: #0f1419; stroke-width: 0.5; stroke-linejoin: miter"/>
   </g>
   <g id="patch_6">
    <path d="M 191.521188 163.806078 
L 229.574081 163.806078 
L 229.574081 20.251408 
L 191.521188 20.251408 
z
" clip-path="url(#p08f22e0fb6)" style="fill: #5c6773; stroke: #0f1419; stroke-width: 0.5; stroke-linejoin: miter"/>
   </g>
   <g id="patch_7">
    <path d="M 239.087304 163.806078 
L 277.140196 163.806078 
L 277.140196 133.418593 
L 239.087304 133.418593 
z
" clip-path="url(#p08f22e0fb6)" style="fill: #5c6773; stroke: #0f1419; stroke-width: 0.5; stroke-linejoin: miter"/>
   </g>
   <g id="patch_8">
    <path d="M 286.653419 163.806078 
L 324.706312 163.806078 
L 324.706312 156.471168 
L 286.653419 156.471168 
z
" clip-path="url(#p08f22e0fb6)" style="fill: #5c6773; stroke: #0f1419; stroke-width: 0.5; stroke-linejoin: miter"/>
   </g>
   <g id="patch_9">
    <path d="M 334.219535 163.806078 
L 372.272428 163.806078 
L 372.272428 156.471168 
L 334.219535 156.471168 
z
" clip-path="url(#p08f22e0fb6)" style="fill: #5c6773; stroke: #0f1419; stroke-width: 0.5; stroke-linejoin: miter"/>
   </g>
   <g id="patch_10">
    <path d="M 381.785651 163.806078 
L 419.838543 163.806078 
L 419.838543 141.801347 
L 381.785651 141.801347 
z
" clip-path="url(#p08f22e0fb6)" style="fill: #5c6773; stroke: #0f1419; stroke-width: 0.5; stroke-linejoin: miter"/>
   </g>
   <g id="patch_11">
    <path d="M 429.351767 163.806078 
L 467.404659 163.806078 
L 467.404659 141.801347 
L 429.351767 141.801347 
z
" clip-path="url(#p08f22e0fb6)" style="fill: #5c6773; stroke: #0f1419; stroke-width: 0.5; stroke-linejoin: miter"/>
   </g>
   <g id="patch_12">
    <path d="M 48.822841 132.370749 
L 86.875733 132.370749 
L 86.875733 127.131527 
L 48.822841 127.131527 
z
" clip-path="url(#p08f22e0fb6)" style="fill: #30c5f5; stroke: #0f1419; stroke-width: 0.5; stroke-linejoin: miter"/>
   </g>
   <g id="patch_13">
    <path d="M 96.388957 121.892306 
L 134.441849 121.892306 
L 134.441849 119.796617 
L 96.388957 119.796617 
z
" clip-path="url(#p08f22e0fb6)" style="fill: #30c5f5; stroke: #0f1419; stroke-width: 0.5; stroke-linejoin: miter"/>
   </g>
   <g id="patch_14">
    <path d="M 143.955072 150.184102 
L 182.007965 150.184102 
L 182.007965 149.136258 
L 143.955072 149.136258 
z
" clip-path="url(#p08f22e0fb6)" style="fill: #30c5f5; stroke: #0f1419; stroke-width: 0.5; stroke-linejoin: miter"/>
   </g>
   <g id="patch_15">
    <path d="M 191.521188 20.251408 
L 229.574081 20.251408 
L 229.574081 19.203563 
L 191.521188 19.203563 
z
" clip-path="url(#p08f22e0fb6)" style="fill: #30c5f5; stroke: #0f1419; stroke-width: 0.5; stroke-linejoin: miter"/>
   </g>
   <g id="patch_16">
    <path d="M 239.087304 133.418593 
L 277.140196 133.418593 
L 277.140196 133.418593 
L 239.087304 133.418593 
z
" clip-path="url(#p08f22e0fb6)" style="fill: #30c5f5; stroke: #0f1419; stroke-width: 0.5; stroke-linejoin: miter"/>
   </g>
   <g id="patch_17">
    <path d="M 286.653419 156.471168 
L 324.706312 156.471168 
L 324.706312 156.471168 
L 286.653419 156.471168 
z
" clip-path="url(#p08f22e0fb6)" style="fill: #30c5f5; stroke: #0f1419; stroke-width: 0.5; stroke-linejoin: miter"/>
   </g>
   <g id="patch_18">
    <path d="M 334.219535 156.471168 
L 372.272428 156.471168 
L 372.272428 156.471168 
L 334.219535 156.471168 
z
" clip-path="url(#p08f22e0fb6)" style="fill: #30c5f5; stroke: #0f1419; stroke-width: 0.5; stroke-linejoin: miter"/>
   </g>
   <g id="patch_19">
    <path d="M 381.785651 141.801347 
L 419.838543 141.801347 
L 419.838543 141.801347 
L 381.785651 141.801347 
z
" clip-path="url(#p08f22e0fb6)" style="fill: #30c5f5; stroke: #0f1419; stroke-width: 0.5; stroke-linejoin: miter"/>
   </g>
   <g id="patch_20">
    <path d="M 429.351767 141.801347 
L 467.404659 141.801347 
L 467.404659 141.801347 
L 429.351767 141.801347 
z
" clip-path="url(#p08f22e0fb6)" style="fill: #30c5f5; stroke: #0f1419; stroke-width: 0.5; stroke-linejoin: miter"/>
   </g>
   <g id="patch_21">
    <path d="M 27.89375 163.806078 
L 27.89375 11.973437 
" style="fill: none; stroke: #0f1419; stroke-width: 0.5; stroke-linejoin: miter; stroke-linecap: square"/>
   </g>
   <g id="patch_22">
    <path d="M 27.89375 163.806078 
L 488.33375 163.806078 
" style="fill: none; stroke: #0f1419; stroke-width: 0.5; stroke-linejoin: miter; stroke-linecap: square"/>
   </g>
   <g id="text_19">
    <!-- 5 -->
    <g style="fill: #0f1419" transform="translate(65.658506 126.083683) scale(0.07 -0.07)">
     <defs>
      <path id="Geist-Regular-35" d="M 1997 -102 
Q 1280 -102 857 253 
Q 435 608 384 1171 
L 960 1210 
Q 1011 826 1289 630 
Q 1568 435 1997 435 
Q 2477 435 2758 707 
Q 3040 979 3040 1459 
Q 3040 1939 2761 2220 
Q 2483 2502 1984 2502 
Q 1670 2502 1414 2368 
Q 1158 2234 1050 1990 
L 461 1990 
L 762 4544 
L 3309 4544 
L 3309 4006 
L 1267 4006 
L 1101 2637 
Q 1274 2829 1533 2928 
Q 1792 3027 2086 3027 
Q 2541 3027 2886 2825 
Q 3232 2624 3424 2269 
Q 3616 1914 3616 1459 
Q 3616 1005 3411 649 
Q 3206 294 2841 96 
Q 2477 -102 1997 -102 
z
" transform="scale(0.015625)"/>
     </defs>
     <use xlink:href="#Geist-Regular-35"/>
    </g>
   </g>
   <g id="text_20">
    <!-- 2 -->
    <g style="fill: #0f1419" transform="translate(113.248684 118.748773) scale(0.07 -0.07)">
     <use xlink:href="#Geist-Regular-32"/>
    </g>
   </g>
   <g id="text_21">
    <!-- 1 -->
    <g style="fill: #0f1419" transform="translate(161.6373 148.088413) scale(0.07 -0.07)">
     <use xlink:href="#Geist-Regular-31"/>
    </g>
   </g>
   <g id="text_22">
    <!-- 1 -->
    <g style="fill: #0f1419" transform="translate(209.203416 18.155719) scale(0.07 -0.07)">
     <use xlink:href="#Geist-Regular-31"/>
    </g>
   </g>
   <g id="text_23">
    <!-- Submitter-declared target region vs outcome -->
    <g style="fill: #0f1419" transform="translate(163.240391 7.973437) scale(0.09 -0.09)">
     <defs>
      <path id="Geist-Regular-53" d="M 2150 -102 
Q 1626 -102 1235 96 
Q 845 294 617 643 
Q 390 992 352 1453 
L 928 1491 
Q 998 986 1308 710 
Q 1619 435 2163 435 
Q 2637 435 2902 617 
Q 3168 800 3168 1152 
Q 3168 1363 3069 1526 
Q 2970 1690 2691 1827 
Q 2413 1965 1869 2099 
Q 1344 2234 1033 2394 
Q 723 2554 585 2784 
Q 448 3014 448 3354 
Q 448 3738 630 4029 
Q 813 4320 1152 4483 
Q 1491 4646 1958 4646 
Q 2458 4646 2816 4457 
Q 3174 4269 3385 3942 
Q 3597 3616 3648 3200 
L 3072 3162 
Q 3014 3578 2736 3843 
Q 2458 4109 1946 4109 
Q 1523 4109 1273 3907 
Q 1024 3706 1024 3379 
Q 1024 3168 1123 3030 
Q 1222 2893 1478 2787 
Q 1734 2682 2214 2560 
Q 2784 2419 3120 2224 
Q 3456 2029 3600 1773 
Q 3744 1517 3744 1190 
Q 3744 794 3539 502 
Q 3334 211 2976 54 
Q 2618 -102 2150 -102 
z
" transform="scale(0.015625)"/>
      <path id="Geist-Regular-62" d="M 2067 -77 
Q 1715 -77 1440 80 
Q 1165 237 1018 512 
L 998 0 
L 512 0 
L 512 4544 
L 1050 4544 
L 1050 2918 
Q 1178 3130 1446 3299 
Q 1715 3469 2067 3469 
Q 2515 3469 2841 3251 
Q 3168 3034 3347 2637 
Q 3526 2240 3526 1696 
Q 3526 1152 3347 755 
Q 3168 358 2841 140 
Q 2515 -77 2067 -77 
z
M 2035 435 
Q 2464 435 2713 774 
Q 2963 1114 2963 1696 
Q 2963 2285 2713 2621 
Q 2464 2957 2048 2957 
Q 1581 2957 1315 2621 
Q 1050 2285 1050 1696 
Q 1050 1114 1312 774 
Q 1574 435 2035 435 
z
" transform="scale(0.015625)"/>
      <path id="Geist-Regular-76" d="M 1376 0 
L 141 3392 
L 730 3392 
L 1715 550 
L 2701 3392 
L 3290 3392 
L 2054 0 
L 1376 0 
z
" transform="scale(0.015625)"/>
     </defs>
     <use xlink:href="#Geist-Regular-53"/>
     <use xlink:href="#Geist-Regular-75" transform="translate(63.999985 0)"/>
     <use xlink:href="#Geist-Regular-62" transform="translate(121.499969 0)"/>
     <use xlink:href="#Geist-Regular-6d" transform="translate(180.999954 0)"/>
     <use xlink:href="#Geist-Regular-69" transform="translate(268.699936 0)"/>
     <use xlink:href="#Geist-Regular-74" transform="translate(293.09993 0)"/>
     <use xlink:href="#Geist-Regular-74" transform="translate(332.299927 0)"/>
     <use xlink:href="#Geist-Regular-65" transform="translate(371.499924 0)"/>
     <use xlink:href="#Geist-Regular-72" transform="translate(427.599915 0)"/>
     <use xlink:href="#Geist-Regular-2d" transform="translate(465.499908 0)"/>
     <use xlink:href="#Geist-Regular-64" transform="translate(507.399902 0)"/>
     <use xlink:href="#Geist-Regular-65" transform="translate(566.899887 0)"/>
     <use xlink:href="#Geist-Regular-63" transform="translate(622.999878 0)"/>
     <use xlink:href="#Geist-Regular-6c" transform="translate(677.599869 0)"/>
     <use xlink:href="#Geist-Regular-61" transform="translate(704.299866 0)"/>
     <use xlink:href="#Geist-Regular-72" transform="translate(759.399857 0)"/>
     <use xlink:href="#Geist-Regular-65" transform="translate(797.29985 0)"/>
     <use xlink:href="#Geist-Regular-64" transform="translate(853.399841 0)"/>
     <use xlink:href="#Geist-Regular-20" transform="translate(912.899826 0)"/>
     <use xlink:href="#Geist-Regular-74" transform="translate(937.899811 0)"/>
     <use xlink:href="#Geist-Regular-61" transform="translate(977.099808 0)"/>
     <use xlink:href="#Geist-Regular-72" transform="translate(1032.199799 0)"/>
     <use xlink:href="#Geist-Regular-67" transform="translate(1070.099792 0)"/>
     <use xlink:href="#Geist-Regular-65" transform="translate(1129.499786 0)"/>
     <use xlink:href="#Geist-Regular-74" transform="translate(1185.599777 0)"/>
     <use xlink:href="#Geist-Regular-20" transform="translate(1224.799774 0)"/>
     <use xlink:href="#Geist-Regular-72" transform="translate(1249.799759 0)"/>
     <use xlink:href="#Geist-Regular-65" transform="translate(1287.699753 0)"/>
     <use xlink:href="#Geist-Regular-67" transform="translate(1343.799744 0)"/>
     <use xlink:href="#Geist-Regular-69" transform="translate(1403.199738 0)"/>
     <use xlink:href="#Geist-Regular-6f" transform="translate(1427.599731 0)"/>
     <use xlink:href="#Geist-Regular-6e" transform="translate(1484.899719 0)"/>
     <use xlink:href="#Geist-Regular-20" transform="translate(1542.99971 0)"/>
     <use xlink:href="#Geist-Regular-76" transform="translate(1567.999695 0)"/>
     <use xlink:href="#Geist-Regular-73" transform="translate(1621.599686 0)"/>
     <use xlink:href="#Geist-Regular-20" transform="translate(1673.59967 0)"/>
     <use xlink:href="#Geist-Regular-6f" transform="translate(1698.599655 0)"/>
     <use xlink:href="#Geist-Regular-75" transform="translate(1755.899643 0)"/>
     <use xlink:href="#Geist-Regular-74" transform="translate(1813.399628 0)"/>
     <use xlink:href="#Geist-Regular-63" transform="translate(1852.599625 0)"/>
     <use xlink:href="#Geist-Regular-6f" transform="translate(1907.199615 0)"/>
     <use xlink:href="#Geist-Regular-6d" transform="translate(1964.499603 0)"/>
     <use xlink:href="#Geist-Regular-65" transform="translate(2052.199585 0)"/>
    </g>
   </g>
   <g id="legend_1">
    <g id="patch_23">
     <path d="M 431.137187 23.243437 
L 440.937187 23.243437 
L 440.937187 18.343437 
L 431.137187 18.343437 
z
" style="fill: #5c6773; stroke: #0f1419; stroke-width: 0.5; stroke-linejoin: miter"/>
    </g>
    <g id="text_24">
     <!-- Non-binder -->
     <g style="fill: #0f1419" transform="translate(445.137187 23.243437) scale(0.07 -0.07)">
      <use xlink:href="#Geist-Regular-4e"/>
      <use xlink:href="#Geist-Regular-6f" transform="translate(74.299988 0)"/>
      <use xlink:href="#Geist-Regular-6e" transform="translate(131.599976 0)"/>
      <use xlink:href="#Geist-Regular-2d" transform="translate(189.699966 0)"/>
      <use xlink:href="#Geist-Regular-62" transform="translate(231.59996 0)"/>
      <use xlink:href="#Geist-Regular-69" transform="translate(291.099945 0)"/>
      <use xlink:href="#Geist-Regular-6e" transform="translate(315.499939 0)"/>
      <use xlink:href="#Geist-Regular-64" transform="translate(373.59993 0)"/>
      <use xlink:href="#Geist-Regular-65" transform="translate(433.099915 0)"/>
      <use xlink:href="#Geist-Regular-72" transform="translate(489.199905 0)"/>
     </g>
    </g>
    <g id="patch_24">
     <path d="M 431.137187 32.763437 
L 440.937187 32.763437 
L 440.937187 27.863437 
L 431.137187 27.863437 
z
" style="fill: #30c5f5; stroke: #0f1419; stroke-width: 0.5; stroke-linejoin: miter"/>
    </g>
    <g id="text_25">
     <!-- Binder -->
     <g style="fill: #0f1419" transform="translate(445.137187 32.763437) scale(0.07 -0.07)">
      <defs>
       <path id="Geist-Regular-42" d="M 589 0 
L 589 4544 
L 2150 4544 
Q 2957 4544 3360 4249 
Q 3763 3955 3763 3322 
Q 3763 2938 3548 2678 
Q 3334 2419 2957 2349 
Q 3424 2285 3689 1987 
Q 3955 1690 3955 1248 
Q 3955 627 3552 313 
Q 3149 0 2406 0 
L 589 0 
z
M 1139 2579 
L 2150 2579 
Q 2650 2579 2918 2768 
Q 3187 2957 3187 3296 
Q 3187 4006 2150 4006 
L 1139 4006 
L 1139 2579 
z
M 1139 538 
L 2406 538 
Q 2874 538 3126 730 
Q 3379 922 3379 1280 
Q 3379 1638 3126 1840 
Q 2874 2042 2406 2042 
L 1139 2042 
L 1139 538 
z
" transform="scale(0.015625)"/>
      </defs>
      <use xlink:href="#Geist-Regular-42"/>
      <use xlink:href="#Geist-Regular-69" transform="translate(67.999985 0)"/>
      <use xlink:href="#Geist-Regular-6e" transform="translate(92.399979 0)"/>
      <use xlink:href="#Geist-Regular-64" transform="translate(150.499969 0)"/>
      <use xlink:href="#Geist-Regular-65" transform="translate(209.999954 0)"/>
      <use xlink:href="#Geist-Regular-72" transform="translate(266.099945 0)"/>
     </g>
    </g>
   </g>
  </g>
 </g>
 <defs>
  <clipPath id="p08f22e0fb6">
   <rect x="27.89375" y="11.973437" width="460.44" height="151.83264"/>
  </clipPath>
 </defs>
</svg>
