<?xml version="1.0" encoding="utf-8" standalone="no"?>
<!DOCTYPE svg PUBLIC "-//W3C//DTD SVG 1.1//EN"
  "http://www.w3.org/Graphics/SVG/1.1/DTD/svg11.dtd">
<svg xmlns:xlink="http://www.w3.org/1999/xlink" width="448.623747pt" height="227.985437pt" viewBox="0 0 448.623747 227.985437" xmlns="http://www.w3.org/2000/svg" version="1.1">
 <metadata>
  <rdf:RDF xmlns:dc="http://purl.org/dc/elements/1.1/" xmlns:cc="http://creativecommons.org/ns#" xmlns:rdf="http://www.w3.org/1999/02/22-rdf-syntax-ns#">
   <cc:Work>
    <dc:type rdf:resource="http://purl.org/dc/dcmitype/StillImage"/>
    <dc:date>2026-05-26T15:45:42.790227</dc:date>
    <dc:format>image/svg+xml</dc:format>
    <dc:creator>
     <cc:Agent>
      <dc:title>Matplotlib v3.10.9, https://matplotlib.org/</dc:title>
     </cc:Agent>
    </dc:creator>
   </cc:Work>
  </rdf:RDF>
 </metadata>
 <defs>
  <style type="text/css">*{stroke-linejoin: round; stroke-linecap: butt}</style>
 </defs>
 <g id="figure_1">
  <g id="patch_1">
   <path d="M 0 227.985437 
L 448.623747 227.985437 
L 448.623747 0 
L 0 0 
z
" style="fill: #ffffff"/>
  </g>
  <g id="axes_1">
   <g id="patch_2">
    <path d="M 69.688125 205.865437 
L 398.020442 205.865437 
L 398.020442 11.973437 
L 69.688125 11.973437 
z
" style="fill: #ffffff"/>
   </g>
   <g id="matplotlib.axis_1">
    <g id="xtick_1">
     <g id="line2d_1">
      <defs>
       <path id="md3330c8d0f" d="M 0 0 
L 0 2.5 
" style="stroke: #0f1419; stroke-width: 0.5"/>
      </defs>
      <g>
       <use xlink:href="#md3330c8d0f" x="169.933298" y="205.865437" style="fill: #0f1419; stroke: #0f1419; stroke-width: 0.5"/>
      </g>
     </g>
     <g id="text_1">
      <!-- $\mathdefault{10^{2}}$ -->
      <g style="fill: #0f1419" transform="translate(164.613298 215.615437) scale(0.07 -0.07)">
       <defs>
        <path id="Geist-Regular-31" d="M 1203 0 
L 1203 3366 
L 256 3366 
L 256 3840 
L 640 3840 
Q 1018 3840 1168 3990 
Q 1318 4141 1318 4544 
L 1754 4544 
L 1754 0 
L 1203 0 
z
" transform="scale(0.015625)"/>
        <path id="Geist-Regular-30" d="M 2118 -102 
Q 1568 -102 1165 186 
Q 762 474 541 1005 
Q 320 1536 320 2266 
Q 320 2995 541 3529 
Q 762 4064 1165 4355 
Q 1568 4646 2118 4646 
Q 2675 4646 3078 4355 
Q 3482 4064 3702 3533 
Q 3923 3002 3923 2266 
Q 3923 1536 3702 1005 
Q 3482 474 3078 186 
Q 2675 -102 2118 -102 
z
M 2118 435 
Q 2707 435 3027 912 
Q 3347 1389 3347 2266 
Q 3347 3149 3027 3629 
Q 2707 4109 2118 4109 
Q 1536 4109 1216 3629 
Q 896 3149 896 2266 
Q 896 1389 1216 912 
Q 1536 435 2118 435 
z
" transform="scale(0.015625)"/>
        <path id="Geist-Regular-32" d="M 384 0 
Q 384 480 534 867 
Q 685 1254 1065 1606 
Q 1446 1958 2125 2317 
Q 2438 2483 2630 2624 
Q 2822 2765 2912 2925 
Q 3002 3085 3002 3315 
Q 3002 3667 2774 3888 
Q 2547 4109 2093 4109 
Q 1613 4109 1334 3859 
Q 1056 3610 986 3149 
L 410 3187 
Q 486 3853 921 4249 
Q 1357 4646 2093 4646 
Q 2797 4646 3187 4281 
Q 3578 3917 3578 3328 
Q 3578 2982 3462 2729 
Q 3347 2477 3075 2259 
Q 2803 2042 2330 1792 
Q 1715 1466 1398 1133 
Q 1082 800 1062 538 
L 3578 538 
L 3578 0 
L 384 0 
z
" transform="scale(0.015625)"/>
       </defs>
       <use xlink:href="#Geist-Regular-31" transform="translate(0 0.084375)"/>
       <use xlink:href="#Geist-Regular-30" transform="translate(38.399994 0.084375)"/>
       <use xlink:href="#Geist-Regular-32" transform="translate(105.627482 37.184375) scale(0.7)"/>
      </g>
     </g>
    </g>
    <g id="xtick_2">
     <g id="line2d_2">
      <g>
       <use xlink:href="#md3330c8d0f" x="306.470419" y="205.865437" style="fill: #0f1419; stroke: #0f1419; stroke-width: 0.5"/>
      </g>
     </g>
     <g id="text_2">
      <!-- $\mathdefault{10^{3}}$ -->
      <g style="fill: #0f1419" transform="translate(301.150419 215.615437) scale(0.07 -0.07)">
       <defs>
        <path id="Geist-Regular-33" d="M 1926 -102 
Q 1171 -102 761 253 
Q 352 608 320 1171 
L 890 1210 
Q 928 794 1213 614 
Q 1498 435 1926 435 
Q 2221 435 2470 515 
Q 2720 595 2873 777 
Q 3027 960 3027 1267 
Q 3027 1722 2726 1933 
Q 2426 2144 1933 2144 
L 1574 2144 
L 1574 2682 
L 1933 2682 
Q 2336 2682 2601 2842 
Q 2867 3002 2867 3392 
Q 2867 4109 1958 4109 
Q 1510 4109 1283 3936 
Q 1056 3763 1011 3462 
L 435 3501 
Q 499 4013 889 4329 
Q 1280 4646 1958 4646 
Q 2650 4646 3046 4316 
Q 3443 3987 3443 3418 
Q 3443 2688 2656 2445 
Q 3098 2323 3350 2012 
Q 3603 1702 3603 1267 
Q 3603 832 3388 525 
Q 3174 218 2796 58 
Q 2419 -102 1926 -102 
z
" transform="scale(0.015625)"/>
       </defs>
       <use xlink:href="#Geist-Regular-31" transform="translate(0 0.084375)"/>
       <use xlink:href="#Geist-Regular-30" transform="translate(38.399994 0.084375)"/>
       <use xlink:href="#Geist-Regular-33" transform="translate(105.627482 37.184375) scale(0.7)"/>
      </g>
     </g>
    </g>
    <g id="xtick_3">
     <g id="line2d_3">
      <defs>
       <path id="m3f07c894bb" d="M 0 0 
L 0 1.5 
" style="stroke: #0f1419; stroke-width: 0.4"/>
      </defs>
      <g>
       <use xlink:href="#m3f07c894bb" x="74.497945" y="205.865437" style="fill: #0f1419; stroke: #0f1419; stroke-width: 0.4"/>
      </g>
     </g>
    </g>
    <g id="xtick_4">
     <g id="line2d_4">
      <g>
       <use xlink:href="#m3f07c894bb" x="98.540939" y="205.865437" style="fill: #0f1419; stroke: #0f1419; stroke-width: 0.4"/>
      </g>
     </g>
    </g>
    <g id="xtick_5">
     <g id="line2d_5">
      <g>
       <use xlink:href="#m3f07c894bb" x="115.599714" y="205.865437" style="fill: #0f1419; stroke: #0f1419; stroke-width: 0.4"/>
      </g>
     </g>
    </g>
    <g id="xtick_6">
     <g id="line2d_6">
      <g>
       <use xlink:href="#m3f07c894bb" x="128.831528" y="205.865437" style="fill: #0f1419; stroke: #0f1419; stroke-width: 0.4"/>
      </g>
     </g>
    </g>
    <g id="xtick_7">
     <g id="line2d_7">
      <g>
       <use xlink:href="#m3f07c894bb" x="139.642708" y="205.865437" style="fill: #0f1419; stroke: #0f1419; stroke-width: 0.4"/>
      </g>
     </g>
    </g>
    <g id="xtick_8">
     <g id="line2d_8">
      <g>
       <use xlink:href="#m3f07c894bb" x="148.78343" y="205.865437" style="fill: #0f1419; stroke: #0f1419; stroke-width: 0.4"/>
      </g>
     </g>
    </g>
    <g id="xtick_9">
     <g id="line2d_9">
      <g>
       <use xlink:href="#m3f07c894bb" x="156.701483" y="205.865437" style="fill: #0f1419; stroke: #0f1419; stroke-width: 0.4"/>
      </g>
     </g>
    </g>
    <g id="xtick_10">
     <g id="line2d_10">
      <g>
       <use xlink:href="#m3f07c894bb" x="163.685702" y="205.865437" style="fill: #0f1419; stroke: #0f1419; stroke-width: 0.4"/>
      </g>
     </g>
    </g>
    <g id="xtick_11">
     <g id="line2d_11">
      <g>
       <use xlink:href="#m3f07c894bb" x="211.035067" y="205.865437" style="fill: #0f1419; stroke: #0f1419; stroke-width: 0.4"/>
      </g>
     </g>
    </g>
    <g id="xtick_12">
     <g id="line2d_12">
      <g>
       <use xlink:href="#m3f07c894bb" x="235.07806" y="205.865437" style="fill: #0f1419; stroke: #0f1419; stroke-width: 0.4"/>
      </g>
     </g>
    </g>
    <g id="xtick_13">
     <g id="line2d_13">
      <g>
       <use xlink:href="#m3f07c894bb" x="252.136836" y="205.865437" style="fill: #0f1419; stroke: #0f1419; stroke-width: 0.4"/>
      </g>
     </g>
    </g>
    <g id="xtick_14">
     <g id="line2d_14">
      <g>
       <use xlink:href="#m3f07c894bb" x="265.36865" y="205.865437" style="fill: #0f1419; stroke: #0f1419; stroke-width: 0.4"/>
      </g>
     </g>
    </g>
    <g id="xtick_15">
     <g id="line2d_15">
      <g>
       <use xlink:href="#m3f07c894bb" x="276.17983" y="205.865437" style="fill: #0f1419; stroke: #0f1419; stroke-width: 0.4"/>
      </g>
     </g>
    </g>
    <g id="xtick_16">
     <g id="line2d_16">
      <g>
       <use xlink:href="#m3f07c894bb" x="285.320552" y="205.865437" style="fill: #0f1419; stroke: #0f1419; stroke-width: 0.4"/>
      </g>
     </g>
    </g>
    <g id="xtick_17">
     <g id="line2d_17">
      <g>
       <use xlink:href="#m3f07c894bb" x="293.238605" y="205.865437" style="fill: #0f1419; stroke: #0f1419; stroke-width: 0.4"/>
      </g>
     </g>
    </g>
    <g id="xtick_18">
     <g id="line2d_18">
      <g>
       <use xlink:href="#m3f07c894bb" x="300.222823" y="205.865437" style="fill: #0f1419; stroke: #0f1419; stroke-width: 0.4"/>
      </g>
     </g>
    </g>
    <g id="xtick_19">
     <g id="line2d_19">
      <g>
       <use xlink:href="#m3f07c894bb" x="347.572188" y="205.865437" style="fill: #0f1419; stroke: #0f1419; stroke-width: 0.4"/>
      </g>
     </g>
    </g>
    <g id="xtick_20">
     <g id="line2d_20">
      <g>
       <use xlink:href="#m3f07c894bb" x="371.615182" y="205.865437" style="fill: #0f1419; stroke: #0f1419; stroke-width: 0.4"/>
      </g>
     </g>
    </g>
    <g id="xtick_21">
     <g id="line2d_21">
      <g>
       <use xlink:href="#m3f07c894bb" x="388.673958" y="205.865437" style="fill: #0f1419; stroke: #0f1419; stroke-width: 0.4"/>
      </g>
     </g>
    </g>
    <g id="text_3">
     <!-- KD (nM) -->
     <g style="fill: #0f1419" transform="translate(219.493659 225.345437) scale(0.08 -0.08)">
      <defs>
       <path id="Geist-Regular-4b" d="M 589 0 
L 589 4544 
L 1139 4544 
L 1139 2285 
L 3181 4544 
L 3878 4544 
L 2099 2573 
L 4000 0 
L 3328 0 
L 1728 2163 
L 1139 1517 
L 1139 0 
L 589 0 
z
" transform="scale(0.015625)"/>
       <path id="Geist-Regular-44" d="M 589 0 
L 589 4544 
L 1997 4544 
Q 3046 4544 3612 3952 
Q 4179 3360 4179 2266 
Q 4179 1178 3622 589 
Q 3066 0 2035 0 
L 589 0 
z
M 1139 538 
L 1997 538 
Q 3603 538 3603 2266 
Q 3603 4006 1997 4006 
L 1139 4006 
L 1139 538 
z
" transform="scale(0.015625)"/>
       <path id="Geist-Regular-20" transform="scale(0.015625)"/>
       <path id="Geist-Regular-28" d="M 1178 -704 
Q 288 634 288 2048 
Q 288 3469 1178 4800 
L 1658 4800 
Q 845 3418 845 2048 
Q 845 1363 1049 675 
Q 1254 -13 1658 -704 
L 1178 -704 
z
" transform="scale(0.015625)"/>
       <path id="Geist-Regular-6e" d="M 512 0 
L 512 3392 
L 1005 3392 
L 1018 2784 
Q 1152 3136 1430 3302 
Q 1709 3469 2061 3469 
Q 2451 3469 2704 3296 
Q 2957 3123 3081 2832 
Q 3206 2541 3206 2182 
L 3206 0 
L 2669 0 
L 2669 2029 
Q 2669 2502 2499 2748 
Q 2330 2995 1946 2995 
Q 1555 2995 1302 2748 
Q 1050 2502 1050 2029 
L 1050 0 
L 512 0 
z
" transform="scale(0.015625)"/>
       <path id="Geist-Regular-4d" d="M 589 0 
L 589 4544 
L 1357 4544 
L 2810 602 
L 4256 4544 
L 5024 4544 
L 5024 0 
L 4474 0 
L 4474 3520 
L 3174 0 
L 2438 0 
L 1139 3520 
L 1139 0 
L 589 0 
z
" transform="scale(0.015625)"/>
       <path id="Geist-Regular-29" d="M 576 -704 
L 96 -704 
Q 499 -13 704 675 
Q 909 1363 909 2048 
Q 909 3418 96 4800 
L 576 4800 
Q 1466 3469 1466 2048 
Q 1466 634 576 -704 
z
" transform="scale(0.015625)"/>
      </defs>
      <use xlink:href="#Geist-Regular-4b"/>
      <use xlink:href="#Geist-Regular-44" transform="translate(63.999985 0)"/>
      <use xlink:href="#Geist-Regular-20" transform="translate(133.399979 0)"/>
      <use xlink:href="#Geist-Regular-28" transform="translate(158.399963 0)"/>
      <use xlink:href="#Geist-Regular-6e" transform="translate(185.799957 0)"/>
      <use xlink:href="#Geist-Regular-4d" transform="translate(243.899948 0)"/>
      <use xlink:href="#Geist-Regular-29" transform="translate(331.59993 0)"/>
     </g>
    </g>
   </g>
   <g id="matplotlib.axis_2">
    <g id="ytick_1">
     <g id="line2d_22">
      <defs>
       <path id="m4f73fa6b8a" d="M 0 0 
L -2.5 0 
" style="stroke: #0f1419; stroke-width: 0.5"/>
      </defs>
      <g>
       <use xlink:href="#m4f73fa6b8a" x="69.688125" y="189.040099" style="fill: #0f1419; stroke: #0f1419; stroke-width: 0.5"/>
      </g>
     </g>
     <g id="text_4">
      <!-- small-vole-maple -->
      <g style="fill: #0f1419" transform="translate(8.432344 191.525099) scale(0.07 -0.07)">
       <defs>
        <path id="Geist-Regular-73" d="M 1747 -77 
Q 1050 -77 685 246 
Q 320 570 282 1069 
L 845 1107 
Q 896 800 1097 617 
Q 1299 435 1747 435 
Q 2093 435 2281 547 
Q 2470 659 2470 909 
Q 2470 1043 2409 1132 
Q 2349 1222 2169 1289 
Q 1990 1357 1645 1421 
Q 1171 1510 902 1644 
Q 634 1779 525 1971 
Q 416 2163 416 2432 
Q 416 2886 752 3177 
Q 1088 3469 1702 3469 
Q 2150 3469 2435 3312 
Q 2720 3155 2867 2905 
Q 3014 2656 3046 2381 
L 2483 2342 
Q 2458 2586 2282 2771 
Q 2106 2957 1690 2957 
Q 1325 2957 1152 2816 
Q 979 2675 979 2458 
Q 979 2208 1139 2089 
Q 1299 1971 1747 1894 
Q 2246 1811 2528 1683 
Q 2810 1555 2922 1366 
Q 3034 1178 3034 909 
Q 3034 442 2672 182 
Q 2310 -77 1747 -77 
z
" transform="scale(0.015625)"/>
        <path id="Geist-Regular-6d" d="M 512 0 
L 512 3392 
L 1005 3392 
L 1018 2797 
Q 1146 3110 1395 3289 
Q 1645 3469 1971 3469 
Q 2355 3469 2617 3283 
Q 2880 3098 2989 2758 
Q 3098 3098 3354 3283 
Q 3610 3469 3981 3469 
Q 4525 3469 4813 3133 
Q 5101 2797 5101 2182 
L 5101 0 
L 4563 0 
L 4563 2067 
Q 4563 2995 3853 2995 
Q 3501 2995 3286 2739 
Q 3072 2483 3072 2029 
L 3072 0 
L 2534 0 
L 2534 2029 
Q 2534 2483 2374 2739 
Q 2214 2995 1837 2995 
Q 1485 2995 1267 2739 
Q 1050 2483 1050 2029 
L 1050 0 
L 512 0 
z
" transform="scale(0.015625)"/>
        <path id="Geist-Regular-61" d="M 1427 -77 
Q 902 -77 592 166 
Q 282 410 282 845 
Q 282 1280 538 1529 
Q 794 1779 1350 1882 
L 2554 2106 
Q 2554 2957 1747 2957 
Q 1395 2957 1190 2800 
Q 986 2643 909 2349 
L 339 2394 
Q 435 2874 803 3171 
Q 1171 3469 1747 3469 
Q 2400 3469 2745 3101 
Q 3091 2733 3091 2086 
L 3091 685 
Q 3091 474 3270 474 
L 3405 474 
L 3405 0 
Q 3328 -13 3200 -13 
Q 2906 -13 2755 105 
Q 2605 224 2566 493 
L 2560 525 
Q 2432 262 2118 92 
Q 1805 -77 1427 -77 
z
M 1478 397 
Q 1990 397 2272 685 
Q 2554 973 2554 1395 
L 2554 1638 
L 1453 1434 
Q 1107 1370 976 1238 
Q 845 1107 845 896 
Q 845 659 1014 528 
Q 1184 397 1478 397 
z
" transform="scale(0.015625)"/>
        <path id="Geist-Regular-6c" d="M 1178 0 
Q 883 0 697 153 
Q 512 307 512 640 
L 512 4544 
L 1050 4544 
L 1050 685 
Q 1050 474 1261 474 
L 1555 474 
L 1555 0 
L 1178 0 
z
" transform="scale(0.015625)"/>
        <path id="Geist-Regular-2d" d="M 282 1613 
L 282 2118 
L 2400 2118 
L 2400 1613 
L 282 1613 
z
" transform="scale(0.015625)"/>
        <path id="Geist-Regular-76" d="M 1376 0 
L 141 3392 
L 730 3392 
L 1715 550 
L 2701 3392 
L 3290 3392 
L 2054 0 
L 1376 0 
z
" transform="scale(0.015625)"/>
        <path id="Geist-Regular-6f" d="M 1837 -77 
Q 1370 -77 1018 140 
Q 666 358 474 758 
Q 282 1158 282 1696 
Q 282 2240 474 2637 
Q 666 3034 1018 3251 
Q 1370 3469 1837 3469 
Q 2304 3469 2653 3251 
Q 3002 3034 3194 2637 
Q 3386 2240 3386 1696 
Q 3386 1158 3194 758 
Q 3002 358 2653 140 
Q 2304 -77 1837 -77 
z
M 1837 435 
Q 2304 435 2563 771 
Q 2822 1107 2822 1696 
Q 2822 2285 2563 2621 
Q 2304 2957 1837 2957 
Q 1370 2957 1107 2621 
Q 845 2285 845 1696 
Q 845 1107 1107 771 
Q 1370 435 1837 435 
z
" transform="scale(0.015625)"/>
        <path id="Geist-Regular-65" d="M 1837 -77 
Q 1357 -77 1008 140 
Q 659 358 470 758 
Q 282 1158 282 1696 
Q 282 2234 470 2630 
Q 659 3027 1001 3248 
Q 1344 3469 1811 3469 
Q 2253 3469 2592 3261 
Q 2931 3053 3120 2656 
Q 3309 2259 3309 1690 
L 3309 1530 
L 845 1530 
Q 877 986 1136 710 
Q 1395 435 1837 435 
Q 2170 435 2384 592 
Q 2598 749 2682 1005 
L 3258 960 
Q 3123 506 2748 214 
Q 2374 -77 1837 -77 
z
M 845 2003 
L 2720 2003 
Q 2682 2496 2435 2726 
Q 2189 2957 1811 2957 
Q 1421 2957 1168 2717 
Q 915 2477 845 2003 
z
" transform="scale(0.015625)"/>
        <path id="Geist-Regular-70" d="M 512 -960 
L 512 3392 
L 1011 3392 
L 1018 2874 
Q 1171 3168 1443 3318 
Q 1715 3469 2061 3469 
Q 2566 3469 2889 3219 
Q 3213 2970 3369 2566 
Q 3526 2163 3526 1696 
Q 3526 1229 3369 825 
Q 3213 422 2889 172 
Q 2566 -77 2061 -77 
Q 1728 -77 1456 64 
Q 1184 205 1050 448 
L 1050 -960 
L 512 -960 
z
M 2010 435 
Q 2451 435 2707 768 
Q 2963 1101 2963 1696 
Q 2963 2291 2707 2624 
Q 2451 2957 2010 2957 
Q 1568 2957 1309 2640 
Q 1050 2323 1050 1696 
Q 1050 1075 1306 755 
Q 1562 435 2010 435 
z
" transform="scale(0.015625)"/>
       </defs>
       <use xlink:href="#Geist-Regular-73"/>
       <use xlink:href="#Geist-Regular-6d" transform="translate(51.999985 0)"/>
       <use xlink:href="#Geist-Regular-61" transform="translate(139.699966 0)"/>
       <use xlink:href="#Geist-Regular-6c" transform="translate(194.799957 0)"/>
       <use xlink:href="#Geist-Regular-6c" transform="translate(221.499954 0)"/>
       <use xlink:href="#Geist-Regular-2d" transform="translate(248.199951 0)"/>
       <use xlink:href="#Geist-Regular-76" transform="translate(290.099945 0)"/>
       <use xlink:href="#Geist-Regular-6f" transform="translate(343.699936 0)"/>
       <use xlink:href="#Geist-Regular-6c" transform="translate(400.999924 0)"/>
       <use xlink:href="#Geist-Regular-65" transform="translate(427.699921 0)"/>
       <use xlink:href="#Geist-Regular-2d" transform="translate(483.799911 0)"/>
       <use xlink:href="#Geist-Regular-6d" transform="translate(525.699905 0)"/>
       <use xlink:href="#Geist-Regular-61" transform="translate(613.399887 0)"/>
       <use xlink:href="#Geist-Regular-70" transform="translate(668.499878 0)"/>
       <use xlink:href="#Geist-Regular-6c" transform="translate(727.999863 0)"/>
       <use xlink:href="#Geist-Regular-65" transform="translate(754.69986 0)"/>
      </g>
     </g>
    </g>
    <g id="ytick_2">
     <g id="line2d_23">
      <g>
       <use xlink:href="#m4f73fa6b8a" x="69.688125" y="169.009933" style="fill: #0f1419; stroke: #0f1419; stroke-width: 0.5"/>
      </g>
     </g>
     <g id="text_5">
      <!-- deep-bear-clay -->
      <g style="fill: #0f1419" transform="translate(15.23 171.494933) scale(0.07 -0.07)">
       <defs>
        <path id="Geist-Regular-64" d="M 1715 -77 
Q 1274 -77 950 140 
Q 627 358 454 755 
Q 282 1152 282 1696 
Q 282 2240 454 2637 
Q 627 3034 950 3251 
Q 1274 3469 1715 3469 
Q 2054 3469 2336 3325 
Q 2618 3181 2758 2918 
L 2758 4544 
L 3296 4544 
L 3296 0 
L 2810 0 
L 2790 512 
Q 2650 237 2362 80 
Q 2074 -77 1715 -77 
z
M 1824 435 
Q 2278 435 2518 774 
Q 2758 1114 2758 1696 
Q 2758 2285 2518 2621 
Q 2278 2957 1824 2957 
Q 1376 2957 1110 2621 
Q 845 2285 845 1696 
Q 845 1114 1110 774 
Q 1376 435 1824 435 
z
" transform="scale(0.015625)"/>
        <path id="Geist-Regular-62" d="M 2067 -77 
Q 1715 -77 1440 80 
Q 1165 237 1018 512 
L 998 0 
L 512 0 
L 512 4544 
L 1050 4544 
L 1050 2918 
Q 1178 3130 1446 3299 
Q 1715 3469 2067 3469 
Q 2515 3469 2841 3251 
Q 3168 3034 3347 2637 
Q 3526 2240 3526 1696 
Q 3526 1152 3347 755 
Q 3168 358 2841 140 
Q 2515 -77 2067 -77 
z
M 2035 435 
Q 2464 435 2713 774 
Q 2963 1114 2963 1696 
Q 2963 2285 2713 2621 
Q 2464 2957 2048 2957 
Q 1581 2957 1315 2621 
Q 1050 2285 1050 1696 
Q 1050 1114 1312 774 
Q 1574 435 2035 435 
z
" transform="scale(0.015625)"/>
        <path id="Geist-Regular-72" d="M 512 0 
L 512 3392 
L 986 3392 
L 1005 2765 
Q 1178 3392 1811 3392 
L 2144 3392 
L 2144 2880 
L 1818 2880 
Q 1050 2880 1050 2048 
L 1050 0 
L 512 0 
z
" transform="scale(0.015625)"/>
        <path id="Geist-Regular-63" d="M 1837 -77 
Q 1363 -77 1014 140 
Q 666 358 474 758 
Q 282 1158 282 1696 
Q 282 2234 474 2630 
Q 666 3027 1014 3248 
Q 1363 3469 1837 3469 
Q 2426 3469 2810 3165 
Q 3194 2861 3277 2291 
L 2714 2253 
Q 2656 2592 2419 2774 
Q 2182 2957 1837 2957 
Q 1370 2957 1107 2621 
Q 845 2285 845 1696 
Q 845 1107 1107 771 
Q 1370 435 1837 435 
Q 2182 435 2419 627 
Q 2656 819 2714 1203 
L 3277 1165 
Q 3194 602 2810 262 
Q 2426 -77 1837 -77 
z
" transform="scale(0.015625)"/>
        <path id="Geist-Regular-79" d="M 659 -960 
L 659 -486 
L 1050 -486 
Q 1229 -486 1315 -432 
Q 1402 -378 1446 -256 
L 1568 64 
L 1382 64 
L 141 3392 
L 730 3392 
L 1741 563 
L 2707 3392 
L 3296 3392 
L 1920 -429 
Q 1824 -704 1632 -832 
Q 1440 -960 1101 -960 
L 659 -960 
z
" transform="scale(0.015625)"/>
       </defs>
       <use xlink:href="#Geist-Regular-64"/>
       <use xlink:href="#Geist-Regular-65" transform="translate(59.499985 0)"/>
       <use xlink:href="#Geist-Regular-65" transform="translate(115.599976 0)"/>
       <use xlink:href="#Geist-Regular-70" transform="translate(171.699966 0)"/>
       <use xlink:href="#Geist-Regular-2d" transform="translate(231.199951 0)"/>
       <use xlink:href="#Geist-Regular-62" transform="translate(273.099945 0)"/>
       <use xlink:href="#Geist-Regular-65" transform="translate(332.59993 0)"/>
       <use xlink:href="#Geist-Regular-61" transform="translate(388.699921 0)"/>
       <use xlink:href="#Geist-Regular-72" transform="translate(443.799911 0)"/>
       <use xlink:href="#Geist-Regular-2d" transform="translate(481.699905 0)"/>
       <use xlink:href="#Geist-Regular-63" transform="translate(523.599899 0)"/>
       <use xlink:href="#Geist-Regular-6c" transform="translate(578.19989 0)"/>
       <use xlink:href="#Geist-Regular-61" transform="translate(604.899887 0)"/>
       <use xlink:href="#Geist-Regular-79" transform="translate(659.999878 0)"/>
      </g>
     </g>
    </g>
    <g id="ytick_3">
     <g id="line2d_24">
      <g>
       <use xlink:href="#m4f73fa6b8a" x="69.688125" y="148.979768" style="fill: #0f1419; stroke: #0f1419; stroke-width: 0.5"/>
      </g>
     </g>
     <g id="text_6">
      <!-- jade-cobra-cypress -->
      <g style="fill: #0f1419" transform="translate(1.44 151.468049) scale(0.07 -0.07)">
       <defs>
        <path id="Geist-Regular-6a" d="M -32 -960 
L -32 -486 
L 243 -486 
Q 410 -486 512 -406 
Q 614 -326 614 -115 
L 614 3392 
L 1152 3392 
L 1152 -141 
Q 1152 -589 953 -774 
Q 755 -960 294 -960 
L -32 -960 
z
M 602 3923 
L 602 4550 
L 1165 4550 
L 1165 3923 
L 602 3923 
z
" transform="scale(0.015625)"/>
       </defs>
       <use xlink:href="#Geist-Regular-6a"/>
       <use xlink:href="#Geist-Regular-61" transform="translate(25.999985 0)"/>
       <use xlink:href="#Geist-Regular-64" transform="translate(81.099976 0)"/>
       <use xlink:href="#Geist-Regular-65" transform="translate(140.59996 0)"/>
       <use xlink:href="#Geist-Regular-2d" transform="translate(196.699951 0)"/>
       <use xlink:href="#Geist-Regular-63" transform="translate(238.599945 0)"/>
       <use xlink:href="#Geist-Regular-6f" transform="translate(293.199936 0)"/>
       <use xlink:href="#Geist-Regular-62" transform="translate(350.499924 0)"/>
       <use xlink:href="#Geist-Regular-72" transform="translate(409.999908 0)"/>
       <use xlink:href="#Geist-Regular-61" transform="translate(447.899902 0)"/>
       <use xlink:href="#Geist-Regular-2d" transform="translate(502.999893 0)"/>
       <use xlink:href="#Geist-Regular-63" transform="translate(544.899887 0)"/>
       <use xlink:href="#Geist-Regular-79" transform="translate(599.499878 0)"/>
       <use xlink:href="#Geist-Regular-70" transform="translate(653.199875 0)"/>
       <use xlink:href="#Geist-Regular-72" transform="translate(712.69986 0)"/>
       <use xlink:href="#Geist-Regular-65" transform="translate(750.599854 0)"/>
       <use xlink:href="#Geist-Regular-73" transform="translate(806.699844 0)"/>
       <use xlink:href="#Geist-Regular-73" transform="translate(858.699829 0)"/>
      </g>
     </g>
    </g>
    <g id="ytick_4">
     <g id="line2d_25">
      <g>
       <use xlink:href="#m4f73fa6b8a" x="69.688125" y="128.949603" style="fill: #0f1419; stroke: #0f1419; stroke-width: 0.5"/>
      </g>
     </g>
     <g id="text_7">
      <!-- young-panda-rose -->
      <g style="fill: #0f1419" transform="translate(4.960781 131.434603) scale(0.07 -0.07)">
       <defs>
        <path id="Geist-Regular-75" d="M 1626 -77 
Q 1120 -77 816 265 
Q 512 608 512 1210 
L 512 3392 
L 1050 3392 
L 1050 1357 
Q 1050 864 1226 630 
Q 1402 397 1766 397 
Q 2170 397 2400 656 
Q 2630 915 2630 1370 
L 2630 3392 
L 3168 3392 
L 3168 0 
L 2656 0 
L 2656 550 
Q 2374 -77 1626 -77 
z
" transform="scale(0.015625)"/>
        <path id="Geist-Regular-67" d="M 1798 -1037 
Q 1254 -1037 870 -768 
Q 486 -499 378 -51 
L 941 -13 
Q 1018 -250 1213 -387 
Q 1408 -525 1798 -525 
Q 2259 -525 2505 -339 
Q 2752 -154 2752 218 
L 2752 768 
Q 2630 499 2361 339 
Q 2093 179 1760 179 
Q 1331 179 995 390 
Q 659 602 470 973 
Q 282 1344 282 1824 
Q 282 2310 467 2678 
Q 653 3046 982 3257 
Q 1312 3469 1734 3469 
Q 2093 3469 2377 3302 
Q 2662 3136 2778 2854 
L 2778 3392 
L 3290 3392 
L 3290 230 
Q 3290 -365 2896 -701 
Q 2502 -1037 1798 -1037 
z
M 1786 691 
Q 2221 691 2483 995 
Q 2746 1299 2752 1824 
Q 2765 2349 2496 2653 
Q 2227 2957 1786 2957 
Q 1338 2957 1091 2653 
Q 845 2349 845 1824 
Q 845 1299 1097 995 
Q 1350 691 1786 691 
z
" transform="scale(0.015625)"/>
       </defs>
       <use xlink:href="#Geist-Regular-79"/>
       <use xlink:href="#Geist-Regular-6f" transform="translate(53.699997 0)"/>
       <use xlink:href="#Geist-Regular-75" transform="translate(110.999985 0)"/>
       <use xlink:href="#Geist-Regular-6e" transform="translate(168.499969 0)"/>
       <use xlink:href="#Geist-Regular-67" transform="translate(226.59996 0)"/>
       <use xlink:href="#Geist-Regular-2d" transform="translate(285.999954 0)"/>
       <use xlink:href="#Geist-Regular-70" transform="translate(327.899948 0)"/>
       <use xlink:href="#Geist-Regular-61" transform="translate(387.399933 0)"/>
       <use xlink:href="#Geist-Regular-6e" transform="translate(442.499924 0)"/>
       <use xlink:href="#Geist-Regular-64" transform="translate(500.599915 0)"/>
       <use xlink:href="#Geist-Regular-61" transform="translate(560.099899 0)"/>
       <use xlink:href="#Geist-Regular-2d" transform="translate(615.19989 0)"/>
       <use xlink:href="#Geist-Regular-72" transform="translate(657.099884 0)"/>
       <use xlink:href="#Geist-Regular-6f" transform="translate(694.999878 0)"/>
       <use xlink:href="#Geist-Regular-73" transform="translate(752.299866 0)"/>
       <use xlink:href="#Geist-Regular-65" transform="translate(804.29985 0)"/>
      </g>
     </g>
    </g>
    <g id="ytick_5">
     <g id="line2d_26">
      <g>
       <use xlink:href="#m4f73fa6b8a" x="69.688125" y="108.919437" style="fill: #0f1419; stroke: #0f1419; stroke-width: 0.5"/>
      </g>
     </g>
     <g id="text_8">
      <!-- noble-lion-fern -->
      <g style="fill: #0f1419" transform="translate(16.216563 111.404437) scale(0.07 -0.07)">
       <defs>
        <path id="Geist-Regular-69" d="M 512 0 
L 512 3392 
L 1050 3392 
L 1050 0 
L 512 0 
z
M 498 3923 
L 498 4550 
L 1061 4550 
L 1061 3923 
L 498 3923 
z
" transform="scale(0.015625)"/>
        <path id="Geist-Regular-66" d="M 845 0 
L 845 2918 
L 384 2918 
L 384 3392 
L 845 3392 
L 845 3699 
Q 845 4077 1062 4310 
Q 1280 4544 1741 4544 
L 2278 4544 
L 2278 4070 
L 1779 4070 
Q 1581 4070 1481 3961 
Q 1382 3853 1382 3661 
L 1382 3392 
L 2234 3392 
L 2234 2918 
L 1382 2918 
L 1382 0 
L 845 0 
z
" transform="scale(0.015625)"/>
       </defs>
       <use xlink:href="#Geist-Regular-6e"/>
       <use xlink:href="#Geist-Regular-6f" transform="translate(58.099991 0)"/>
       <use xlink:href="#Geist-Regular-62" transform="translate(115.399979 0)"/>
       <use xlink:href="#Geist-Regular-6c" transform="translate(174.899963 0)"/>
       <use xlink:href="#Geist-Regular-65" transform="translate(201.59996 0)"/>
       <use xlink:href="#Geist-Regular-2d" transform="translate(257.699951 0)"/>
       <use xlink:href="#Geist-Regular-6c" transform="translate(299.599945 0)"/>
       <use xlink:href="#Geist-Regular-69" transform="translate(326.299942 0)"/>
       <use xlink:href="#Geist-Regular-6f" transform="translate(350.699936 0)"/>
       <use xlink:href="#Geist-Regular-6e" transform="translate(407.999924 0)"/>
       <use xlink:href="#Geist-Regular-2d" transform="translate(466.099915 0)"/>
       <use xlink:href="#Geist-Regular-66" transform="translate(507.999908 0)"/>
       <use xlink:href="#Geist-Regular-65" transform="translate(547.499893 0)"/>
       <use xlink:href="#Geist-Regular-72" transform="translate(603.599884 0)"/>
       <use xlink:href="#Geist-Regular-6e" transform="translate(641.499878 0)"/>
      </g>
     </g>
    </g>
    <g id="ytick_6">
     <g id="line2d_27">
      <g>
       <use xlink:href="#m4f73fa6b8a" x="69.688125" y="88.889272" style="fill: #0f1419; stroke: #0f1419; stroke-width: 0.5"/>
      </g>
     </g>
     <g id="text_9">
      <!-- rough-eagle-onyx -->
      <g style="fill: #0f1419" transform="translate(6.738125 91.374272) scale(0.07 -0.07)">
       <defs>
        <path id="Geist-Regular-68" d="M 512 0 
L 512 4544 
L 1050 4544 
L 1050 2861 
Q 1184 3174 1453 3321 
Q 1722 3469 2074 3469 
Q 2624 3469 2915 3110 
Q 3206 2752 3206 2182 
L 3206 0 
L 2669 0 
L 2669 2029 
Q 2669 2995 1958 2995 
Q 1549 2995 1299 2745 
Q 1050 2496 1050 2022 
L 1050 0 
L 512 0 
z
" transform="scale(0.015625)"/>
        <path id="Geist-Regular-78" d="M 301 0 
L 1549 1741 
L 365 3392 
L 992 3392 
L 1882 2112 
L 2746 3392 
L 3386 3392 
L 2214 1728 
L 3443 0 
L 2816 0 
L 1882 1370 
L 941 0 
L 301 0 
z
" transform="scale(0.015625)"/>
       </defs>
       <use xlink:href="#Geist-Regular-72"/>
       <use xlink:href="#Geist-Regular-6f" transform="translate(37.899994 0)"/>
       <use xlink:href="#Geist-Regular-75" transform="translate(95.199982 0)"/>
       <use xlink:href="#Geist-Regular-67" transform="translate(152.699966 0)"/>
       <use xlink:href="#Geist-Regular-68" transform="translate(212.09996 0)"/>
       <use xlink:href="#Geist-Regular-2d" transform="translate(270.199951 0)"/>
       <use xlink:href="#Geist-Regular-65" transform="translate(312.099945 0)"/>
       <use xlink:href="#Geist-Regular-61" transform="translate(368.199936 0)"/>
       <use xlink:href="#Geist-Regular-67" transform="translate(423.299927 0)"/>
       <use xlink:href="#Geist-Regular-6c" transform="translate(482.699921 0)"/>
       <use xlink:href="#Geist-Regular-65" transform="translate(509.399918 0)"/>
       <use xlink:href="#Geist-Regular-2d" transform="translate(565.499908 0)"/>
       <use xlink:href="#Geist-Regular-6f" transform="translate(607.399902 0)"/>
       <use xlink:href="#Geist-Regular-6e" transform="translate(664.69989 0)"/>
       <use xlink:href="#Geist-Regular-79" transform="translate(722.799881 0)"/>
       <use xlink:href="#Geist-Regular-78" transform="translate(776.499878 0)"/>
      </g>
     </g>
    </g>
    <g id="ytick_7">
     <g id="line2d_28">
      <g>
       <use xlink:href="#m4f73fa6b8a" x="69.688125" y="68.859107" style="fill: #0f1419; stroke: #0f1419; stroke-width: 0.5"/>
      </g>
     </g>
     <g id="text_10">
      <!-- golden-dove-vine -->
      <g style="fill: #0f1419" transform="translate(7.817656 71.347388) scale(0.07 -0.07)">
       <use xlink:href="#Geist-Regular-67"/>
       <use xlink:href="#Geist-Regular-6f" transform="translate(59.399994 0)"/>
       <use xlink:href="#Geist-Regular-6c" transform="translate(116.699982 0)"/>
       <use xlink:href="#Geist-Regular-64" transform="translate(143.399979 0)"/>
       <use xlink:href="#Geist-Regular-65" transform="translate(202.899963 0)"/>
       <use xlink:href="#Geist-Regular-6e" transform="translate(258.999954 0)"/>
       <use xlink:href="#Geist-Regular-2d" transform="translate(317.099945 0)"/>
       <use xlink:href="#Geist-Regular-64" transform="translate(358.999939 0)"/>
       <use xlink:href="#Geist-Regular-6f" transform="translate(418.499924 0)"/>
       <use xlink:href="#Geist-Regular-76" transform="translate(475.799911 0)"/>
       <use xlink:href="#Geist-Regular-65" transform="translate(529.399902 0)"/>
       <use xlink:href="#Geist-Regular-2d" transform="translate(585.499893 0)"/>
       <use xlink:href="#Geist-Regular-76" transform="translate(627.399887 0)"/>
       <use xlink:href="#Geist-Regular-69" transform="translate(680.999878 0)"/>
       <use xlink:href="#Geist-Regular-6e" transform="translate(705.399872 0)"/>
       <use xlink:href="#Geist-Regular-65" transform="translate(763.499863 0)"/>
      </g>
     </g>
    </g>
    <g id="ytick_8">
     <g id="line2d_29">
      <g>
       <use xlink:href="#m4f73fa6b8a" x="69.688125" y="48.828942" style="fill: #0f1419; stroke: #0f1419; stroke-width: 0.5"/>
      </g>
     </g>
     <g id="text_11">
      <!-- silver-heron-dust -->
      <g style="fill: #0f1419" transform="translate(8.473906 51.313942) scale(0.07 -0.07)">
       <defs>
        <path id="Geist-Regular-74" d="M 1754 0 
Q 1293 0 1072 211 
Q 851 422 851 870 
L 851 2918 
L 352 2918 
L 352 3392 
L 851 3392 
L 851 4186 
L 1389 4186 
L 1389 3392 
L 2291 3392 
L 2291 2918 
L 1389 2918 
L 1389 883 
Q 1389 653 1491 563 
Q 1594 474 1805 474 
L 2291 474 
L 2291 0 
L 1754 0 
z
" transform="scale(0.015625)"/>
       </defs>
       <use xlink:href="#Geist-Regular-73"/>
       <use xlink:href="#Geist-Regular-69" transform="translate(51.999985 0)"/>
       <use xlink:href="#Geist-Regular-6c" transform="translate(76.399979 0)"/>
       <use xlink:href="#Geist-Regular-76" transform="translate(103.099976 0)"/>
       <use xlink:href="#Geist-Regular-65" transform="translate(156.699966 0)"/>
       <use xlink:href="#Geist-Regular-72" transform="translate(212.799957 0)"/>
       <use xlink:href="#Geist-Regular-2d" transform="translate(250.699951 0)"/>
       <use xlink:href="#Geist-Regular-68" transform="translate(292.599945 0)"/>
       <use xlink:href="#Geist-Regular-65" transform="translate(350.699936 0)"/>
       <use xlink:href="#Geist-Regular-72" transform="translate(406.799927 0)"/>
       <use xlink:href="#Geist-Regular-6f" transform="translate(444.699921 0)"/>
       <use xlink:href="#Geist-Regular-6e" transform="translate(501.999908 0)"/>
       <use xlink:href="#Geist-Regular-2d" transform="translate(560.099899 0)"/>
       <use xlink:href="#Geist-Regular-64" transform="translate(601.999893 0)"/>
       <use xlink:href="#Geist-Regular-75" transform="translate(661.499878 0)"/>
       <use xlink:href="#Geist-Regular-73" transform="translate(718.999863 0)"/>
       <use xlink:href="#Geist-Regular-74" transform="translate(770.999847 0)"/>
      </g>
     </g>
    </g>
    <g id="ytick_9">
     <g id="line2d_30">
      <g>
       <use xlink:href="#m4f73fa6b8a" x="69.688125" y="28.798776" style="fill: #0f1419; stroke: #0f1419; stroke-width: 0.5"/>
      </g>
     </g>
     <g id="text_12">
      <!-- amber-bat-maple -->
      <g style="fill: #0f1419" transform="translate(7.858125 31.283776) scale(0.07 -0.07)">
       <use xlink:href="#Geist-Regular-61"/>
       <use xlink:href="#Geist-Regular-6d" transform="translate(55.099991 0)"/>
       <use xlink:href="#Geist-Regular-62" transform="translate(142.799973 0)"/>
       <use xlink:href="#Geist-Regular-65" transform="translate(202.299957 0)"/>
       <use xlink:href="#Geist-Regular-72" transform="translate(258.399948 0)"/>
       <use xlink:href="#Geist-Regular-2d" transform="translate(296.299942 0)"/>
       <use xlink:href="#Geist-Regular-62" transform="translate(338.199936 0)"/>
       <use xlink:href="#Geist-Regular-61" transform="translate(397.699921 0)"/>
       <use xlink:href="#Geist-Regular-74" transform="translate(452.799911 0)"/>
       <use xlink:href="#Geist-Regular-2d" transform="translate(491.999908 0)"/>
       <use xlink:href="#Geist-Regular-6d" transform="translate(533.899902 0)"/>
       <use xlink:href="#Geist-Regular-61" transform="translate(621.599884 0)"/>
       <use xlink:href="#Geist-Regular-70" transform="translate(676.699875 0)"/>
       <use xlink:href="#Geist-Regular-6c" transform="translate(736.19986 0)"/>
       <use xlink:href="#Geist-Regular-65" transform="translate(762.899857 0)"/>
      </g>
     </g>
    </g>
   </g>
   <g id="patch_3">
    <path d="M -136640.262656 197.052165 
L 89.272943 197.052165 
L 89.272943 181.028033 
L -136640.262656 181.028033 
z
" clip-path="url(#p8e13add173)" style="fill: #30c5f5; stroke: #0f1419; stroke-width: 0.5; stroke-linejoin: miter"/>
   </g>
   <g id="patch_4">
    <path d="M -136640.262656 177.021999 
L 160.400498 177.021999 
L 160.400498 160.997867 
L -136640.262656 160.997867 
z
" clip-path="url(#p8e13add173)" style="fill: #33c4ff; stroke: #0f1419; stroke-width: 0.5; stroke-linejoin: miter"/>
   </g>
   <g id="patch_5">
    <path d="M -136640.262656 156.991834 
L 199.745379 156.991834 
L 199.745379 140.967702 
L -136640.262656 140.967702 
z
" clip-path="url(#p8e13add173)" style="fill: #33c4ff; stroke: #0f1419; stroke-width: 0.5; stroke-linejoin: miter"/>
   </g>
   <g id="patch_6">
    <path d="M -136640.262656 136.961669 
L 204.47769 136.961669 
L 204.47769 120.937537 
L -136640.262656 120.937537 
z
" clip-path="url(#p8e13add173)" style="fill: #33c4ff; stroke: #0f1419; stroke-width: 0.5; stroke-linejoin: miter"/>
   </g>
   <g id="patch_7">
    <path d="M -136640.262656 116.931504 
L 206.765129 116.931504 
L 206.765129 100.907371 
L -136640.262656 100.907371 
z
" clip-path="url(#p8e13add173)" style="fill: #33c4ff; stroke: #0f1419; stroke-width: 0.5; stroke-linejoin: miter"/>
   </g>
   <g id="patch_8">
    <path d="M -136640.262656 96.901338 
L 209.638461 96.901338 
L 209.638461 80.877206 
L -136640.262656 80.877206 
z
" clip-path="url(#p8e13add173)" style="fill: #33c4ff; stroke: #0f1419; stroke-width: 0.5; stroke-linejoin: miter"/>
   </g>
   <g id="patch_9">
    <path d="M -136640.262656 76.871173 
L 255.14991 76.871173 
L 255.14991 60.847041 
L -136640.262656 60.847041 
z
" clip-path="url(#p8e13add173)" style="fill: #33c4ff; stroke: #0f1419; stroke-width: 0.5; stroke-linejoin: miter"/>
   </g>
   <g id="patch_10">
    <path d="M -136640.262656 56.841008 
L 273.163478 56.841008 
L 273.163478 40.816876 
L -136640.262656 40.816876 
z
" clip-path="url(#p8e13add173)" style="fill: #33c4ff; stroke: #0f1419; stroke-width: 0.5; stroke-linejoin: miter"/>
   </g>
   <g id="patch_11">
    <path d="M -136640.262656 36.810842 
L 375.726347 36.810842 
L 375.726347 20.78671 
L -136640.262656 20.78671 
z
" clip-path="url(#p8e13add173)" style="fill: #36b7f6; stroke: #0f1419; stroke-width: 0.5; stroke-linejoin: miter"/>
   </g>
   <g id="LineCollection_1">
    <path d="M 84.612321 189.040099 
L 93.593795 189.040099 
" clip-path="url(#p8e13add173)" style="fill: none; stroke: #0f1419; stroke-width: 0.5"/>
    <path d="M 150.17839 169.009933 
L 169.116842 169.009933 
" clip-path="url(#p8e13add173)" style="fill: none; stroke: #0f1419; stroke-width: 0.5"/>
    <path d="M 180.68234 148.979768 
L 215.731091 148.979768 
" clip-path="url(#p8e13add173)" style="fill: none; stroke: #0f1419; stroke-width: 0.5"/>
    <path d="M 196.045812 128.949603 
L 214.720902 128.949603 
" clip-path="url(#p8e13add173)" style="fill: none; stroke: #0f1419; stroke-width: 0.5"/>
    <path d="M 196.106616 108.919437 
L 216.223564 108.919437 
" clip-path="url(#p8e13add173)" style="fill: none; stroke: #0f1419; stroke-width: 0.5"/>
    <path d="M 197.541605 88.889272 
L 223.418594 88.889272 
" clip-path="url(#p8e13add173)" style="fill: none; stroke: #0f1419; stroke-width: 0.5"/>
    <path d="M 231.62036 68.859107 
L 271.950287 68.859107 
" clip-path="url(#p8e13add173)" style="fill: none; stroke: #0f1419; stroke-width: 0.5"/>
    <path d="M 272.523718 48.828942 
L 273.79641 48.828942 
" clip-path="url(#p8e13add173)" style="fill: none; stroke: #0f1419; stroke-width: 0.5"/>
    <path d="M 367.308704 28.798776 
L 383.096246 28.798776 
" clip-path="url(#p8e13add173)" style="fill: none; stroke: #0f1419; stroke-width: 0.5"/>
   </g>
   <g id="line2d_31">
    <defs>
     <path id="m190dee90bd" d="M 0 2 
L 0 -2 
" style="stroke: #0f1419; stroke-width: 0.4"/>
    </defs>
    <g clip-path="url(#p8e13add173)">
     <use xlink:href="#m190dee90bd" x="84.612321" y="189.040099" style="fill: #30c5f5; stroke: #0f1419; stroke-width: 0.4"/>
     <use xlink:href="#m190dee90bd" x="150.17839" y="169.009933" style="fill: #30c5f5; stroke: #0f1419; stroke-width: 0.4"/>
     <use xlink:href="#m190dee90bd" x="180.68234" y="148.979768" style="fill: #30c5f5; stroke: #0f1419; stroke-width: 0.4"/>
     <use xlink:href="#m190dee90bd" x="196.045812" y="128.949603" style="fill: #30c5f5; stroke: #0f1419; stroke-width: 0.4"/>
     <use xlink:href="#m190dee90bd" x="196.106616" y="108.919437" style="fill: #30c5f5; stroke: #0f1419; stroke-width: 0.4"/>
     <use xlink:href="#m190dee90bd" x="197.541605" y="88.889272" style="fill: #30c5f5; stroke: #0f1419; stroke-width: 0.4"/>
     <use xlink:href="#m190dee90bd" x="231.62036" y="68.859107" style="fill: #30c5f5; stroke: #0f1419; stroke-width: 0.4"/>
     <use xlink:href="#m190dee90bd" x="272.523718" y="48.828942" style="fill: #30c5f5; stroke: #0f1419; stroke-width: 0.4"/>
     <use xlink:href="#m190dee90bd" x="367.308704" y="28.798776" style="fill: #30c5f5; stroke: #0f1419; stroke-width: 0.4"/>
    </g>
   </g>
   <g id="line2d_32">
    <g clip-path="url(#p8e13add173)">
     <use xlink:href="#m190dee90bd" x="93.593795" y="189.040099" style="fill: #30c5f5; stroke: #0f1419; stroke-width: 0.4"/>
     <use xlink:href="#m190dee90bd" x="169.116842" y="169.009933" style="fill: #30c5f5; stroke: #0f1419; stroke-width: 0.4"/>
     <use xlink:href="#m190dee90bd" x="215.731091" y="148.979768" style="fill: #30c5f5; stroke: #0f1419; stroke-width: 0.4"/>
     <use xlink:href="#m190dee90bd" x="214.720902" y="128.949603" style="fill: #30c5f5; stroke: #0f1419; stroke-width: 0.4"/>
     <use xlink:href="#m190dee90bd" x="216.223564" y="108.919437" style="fill: #30c5f5; stroke: #0f1419; stroke-width: 0.4"/>
     <use xlink:href="#m190dee90bd" x="223.418594" y="88.889272" style="fill: #30c5f5; stroke: #0f1419; stroke-width: 0.4"/>
     <use xlink:href="#m190dee90bd" x="271.950287" y="68.859107" style="fill: #30c5f5; stroke: #0f1419; stroke-width: 0.4"/>
     <use xlink:href="#m190dee90bd" x="273.79641" y="48.828942" style="fill: #30c5f5; stroke: #0f1419; stroke-width: 0.4"/>
     <use xlink:href="#m190dee90bd" x="383.096246" y="28.798776" style="fill: #30c5f5; stroke: #0f1419; stroke-width: 0.4"/>
    </g>
   </g>
   <g id="patch_12">
    <path d="M 69.688125 205.865437 
L 69.688125 11.973437 
" style="fill: none; stroke: #0f1419; stroke-width: 0.5; stroke-linejoin: miter; stroke-linecap: square"/>
   </g>
   <g id="patch_13">
    <path d="M 69.688125 205.865437 
L 398.020442 205.865437 
" style="fill: none; stroke: #0f1419; stroke-width: 0.5; stroke-linejoin: miter; stroke-linecap: square"/>
   </g>
   <g id="text_13">
    <!-- 26 nM  [24, 28] -->
    <g style="fill: #0f1419" transform="translate(96.486921 190.822286) scale(0.06 -0.06)">
     <defs>
      <path id="Geist-Regular-36" d="M 1933 -102 
Q 1165 -102 742 422 
Q 320 947 320 1920 
Q 320 2483 413 2976 
Q 506 3469 714 3843 
Q 922 4218 1264 4432 
Q 1606 4646 2112 4646 
Q 2720 4646 3053 4348 
Q 3386 4051 3520 3571 
L 2944 3520 
Q 2867 3789 2678 3949 
Q 2490 4109 2112 4109 
Q 1600 4109 1286 3712 
Q 973 3315 902 2522 
L 896 2477 
Q 1062 2726 1353 2892 
Q 1645 3059 2035 3059 
Q 2483 3059 2822 2867 
Q 3162 2675 3350 2326 
Q 3539 1978 3539 1510 
Q 3539 1011 3334 649 
Q 3130 288 2768 93 
Q 2406 -102 1933 -102 
z
M 1946 435 
Q 2394 435 2678 720 
Q 2963 1005 2963 1510 
Q 2963 1984 2694 2259 
Q 2426 2534 1997 2534 
Q 1690 2534 1446 2409 
Q 1203 2285 1062 2054 
Q 922 1824 922 1510 
Q 922 1043 1200 739 
Q 1478 435 1946 435 
z
" transform="scale(0.015625)"/>
      <path id="Geist-Regular-5b" d="M 2125 -704 
L 589 -704 
L 589 4800 
L 2125 4800 
L 2125 4352 
L 1101 4352 
L 1101 -256 
L 2125 -256 
L 2125 -704 
z
" transform="scale(0.015625)"/>
      <path id="Geist-Regular-34" d="M 2502 0 
L 2502 986 
L 192 986 
L 192 1485 
L 2464 4544 
L 3053 4544 
L 3053 1523 
L 3616 1523 
L 3616 986 
L 3053 986 
L 3053 0 
L 2502 0 
z
M 858 1523 
L 2502 1523 
L 2502 3699 
L 858 1523 
z
" transform="scale(0.015625)"/>
      <path id="Geist-Regular-2c" d="M 301 -998 
L 608 0 
L 282 0 
L 282 723 
L 1005 723 
L 1005 90 
L 621 -998 
L 301 -998 
z
" transform="scale(0.015625)"/>
      <path id="Geist-Regular-38" d="M 1933 -102 
Q 1446 -102 1065 51 
Q 685 205 470 505 
Q 256 806 256 1248 
Q 256 1690 493 1997 
Q 730 2304 1133 2445 
Q 832 2566 653 2800 
Q 474 3034 474 3398 
Q 474 3757 656 4038 
Q 838 4320 1164 4483 
Q 1491 4646 1933 4646 
Q 2374 4646 2704 4483 
Q 3034 4320 3213 4038 
Q 3392 3757 3392 3398 
Q 3392 3034 3213 2800 
Q 3034 2566 2733 2445 
Q 3136 2304 3373 1997 
Q 3610 1690 3610 1248 
Q 3610 806 3395 505 
Q 3181 205 2803 51 
Q 2426 -102 1933 -102 
z
M 1933 2669 
Q 2355 2669 2585 2851 
Q 2816 3034 2816 3398 
Q 2816 3725 2592 3917 
Q 2368 4109 1933 4109 
Q 1504 4109 1277 3917 
Q 1050 3725 1050 3398 
Q 1050 3034 1280 2851 
Q 1510 2669 1933 2669 
z
M 1933 435 
Q 2438 435 2736 643 
Q 3034 851 3034 1280 
Q 3034 1677 2768 1917 
Q 2502 2157 1933 2157 
Q 1370 2157 1101 1917 
Q 832 1677 832 1280 
Q 832 851 1129 643 
Q 1427 435 1933 435 
z
" transform="scale(0.015625)"/>
      <path id="Geist-Regular-5d" d="M 96 -704 
L 96 -256 
L 1120 -256 
L 1120 4352 
L 96 4352 
L 96 4800 
L 1632 4800 
L 1632 -704 
L 96 -704 
z
" transform="scale(0.015625)"/>
     </defs>
     <use xlink:href="#Geist-Regular-32"/>
     <use xlink:href="#Geist-Regular-36" transform="translate(61.899994 0)"/>
     <use xlink:href="#Geist-Regular-20" transform="translate(121.199982 0)"/>
     <use xlink:href="#Geist-Regular-6e" transform="translate(146.199966 0)"/>
     <use xlink:href="#Geist-Regular-4d" transform="translate(204.299957 0)"/>
     <use xlink:href="#Geist-Regular-20" transform="translate(291.999939 0)"/>
     <use xlink:href="#Geist-Regular-20" transform="translate(316.999924 0)"/>
     <use xlink:href="#Geist-Regular-5b" transform="translate(341.999908 0)"/>
     <use xlink:href="#Geist-Regular-32" transform="translate(376.699905 0)"/>
     <use xlink:href="#Geist-Regular-34" transform="translate(438.599899 0)"/>
     <use xlink:href="#Geist-Regular-2c" transform="translate(500.099884 0)"/>
     <use xlink:href="#Geist-Regular-20" transform="translate(520.199875 0)"/>
     <use xlink:href="#Geist-Regular-32" transform="translate(545.19986 0)"/>
     <use xlink:href="#Geist-Regular-38" transform="translate(607.099854 0)"/>
     <use xlink:href="#Geist-Regular-5d" transform="translate(667.499847 0)"/>
    </g>
   </g>
   <g id="text_14">
    <!-- 85 nM  [72, 99] -->
    <g style="fill: #0f1419" transform="translate(172.009968 170.792121) scale(0.06 -0.06)">
     <defs>
      <path id="Geist-Regular-35" d="M 1997 -102 
Q 1280 -102 857 253 
Q 435 608 384 1171 
L 960 1210 
Q 1011 826 1289 630 
Q 1568 435 1997 435 
Q 2477 435 2758 707 
Q 3040 979 3040 1459 
Q 3040 1939 2761 2220 
Q 2483 2502 1984 2502 
Q 1670 2502 1414 2368 
Q 1158 2234 1050 1990 
L 461 1990 
L 762 4544 
L 3309 4544 
L 3309 4006 
L 1267 4006 
L 1101 2637 
Q 1274 2829 1533 2928 
Q 1792 3027 2086 3027 
Q 2541 3027 2886 2825 
Q 3232 2624 3424 2269 
Q 3616 1914 3616 1459 
Q 3616 1005 3411 649 
Q 3206 294 2841 96 
Q 2477 -102 1997 -102 
z
" transform="scale(0.015625)"/>
      <path id="Geist-Regular-37" d="M 1139 0 
Q 1139 704 1331 1405 
Q 1523 2106 1884 2765 
Q 2246 3424 2752 4006 
L 128 4006 
L 128 4544 
L 3354 4544 
L 3354 4045 
Q 2784 3392 2416 2755 
Q 2048 2118 1875 1443 
Q 1702 768 1702 0 
L 1139 0 
z
" transform="scale(0.015625)"/>
      <path id="Geist-Regular-39" d="M 1715 -102 
Q 1152 -102 797 176 
Q 442 454 314 877 
L 896 922 
Q 973 691 1177 563 
Q 1382 435 1715 435 
Q 2227 435 2528 809 
Q 2829 1184 2886 2010 
L 2886 2048 
Q 2701 1760 2413 1603 
Q 2125 1446 1766 1446 
Q 1325 1446 985 1644 
Q 646 1843 451 2201 
Q 256 2560 256 3034 
Q 256 3533 461 3894 
Q 666 4256 1024 4451 
Q 1382 4646 1837 4646 
Q 2406 4646 2768 4384 
Q 3130 4122 3302 3651 
Q 3475 3181 3475 2541 
Q 3475 1971 3385 1488 
Q 3296 1005 3091 649 
Q 2886 294 2550 96 
Q 2214 -102 1715 -102 
z
M 1805 1990 
Q 2272 1990 2569 2262 
Q 2867 2534 2867 3021 
Q 2867 3494 2592 3801 
Q 2317 4109 1837 4109 
Q 1370 4109 1101 3808 
Q 832 3507 832 3034 
Q 832 2554 1104 2272 
Q 1376 1990 1805 1990 
z
" transform="scale(0.015625)"/>
     </defs>
     <use xlink:href="#Geist-Regular-38"/>
     <use xlink:href="#Geist-Regular-35" transform="translate(60.399994 0)"/>
     <use xlink:href="#Geist-Regular-20" transform="translate(122.999985 0)"/>
     <use xlink:href="#Geist-Regular-6e" transform="translate(147.999969 0)"/>
     <use xlink:href="#Geist-Regular-4d" transform="translate(206.09996 0)"/>
     <use xlink:href="#Geist-Regular-20" transform="translate(293.799942 0)"/>
     <use xlink:href="#Geist-Regular-20" transform="translate(318.799927 0)"/>
     <use xlink:href="#Geist-Regular-5b" transform="translate(343.799911 0)"/>
     <use xlink:href="#Geist-Regular-37" transform="translate(378.499908 0)"/>
     <use xlink:href="#Geist-Regular-32" transform="translate(430.899902 0)"/>
     <use xlink:href="#Geist-Regular-2c" transform="translate(492.799896 0)"/>
     <use xlink:href="#Geist-Regular-20" transform="translate(512.899887 0)"/>
     <use xlink:href="#Geist-Regular-39" transform="translate(537.899872 0)"/>
     <use xlink:href="#Geist-Regular-39" transform="translate(597.19986 0)"/>
     <use xlink:href="#Geist-Regular-5d" transform="translate(656.499847 0)"/>
    </g>
   </g>
   <g id="text_15">
    <!-- 165 nM  [120, 216] -->
    <g style="fill: #0f1419" transform="translate(218.624217 150.761956) scale(0.06 -0.06)">
     <use xlink:href="#Geist-Regular-31"/>
     <use xlink:href="#Geist-Regular-36" transform="translate(38.399994 0)"/>
     <use xlink:href="#Geist-Regular-35" transform="translate(97.699982 0)"/>
     <use xlink:href="#Geist-Regular-20" transform="translate(160.299973 0)"/>
     <use xlink:href="#Geist-Regular-6e" transform="translate(185.299957 0)"/>
     <use xlink:href="#Geist-Regular-4d" transform="translate(243.399948 0)"/>
     <use xlink:href="#Geist-Regular-20" transform="translate(331.09993 0)"/>
     <use xlink:href="#Geist-Regular-20" transform="translate(356.099915 0)"/>
     <use xlink:href="#Geist-Regular-5b" transform="translate(381.099899 0)"/>
     <use xlink:href="#Geist-Regular-31" transform="translate(415.799896 0)"/>
     <use xlink:href="#Geist-Regular-32" transform="translate(454.19989 0)"/>
     <use xlink:href="#Geist-Regular-30" transform="translate(516.099884 0)"/>
     <use xlink:href="#Geist-Regular-2c" transform="translate(582.399872 0)"/>
     <use xlink:href="#Geist-Regular-20" transform="translate(602.499863 0)"/>
     <use xlink:href="#Geist-Regular-32" transform="translate(627.499847 0)"/>
     <use xlink:href="#Geist-Regular-31" transform="translate(689.399841 0)"/>
     <use xlink:href="#Geist-Regular-36" transform="translate(727.799835 0)"/>
     <use xlink:href="#Geist-Regular-5d" transform="translate(787.099823 0)"/>
    </g>
   </g>
   <g id="text_16">
    <!-- 179 nM  [155, 213] -->
    <g style="fill: #0f1419" transform="translate(217.614028 130.73179) scale(0.06 -0.06)">
     <use xlink:href="#Geist-Regular-31"/>
     <use xlink:href="#Geist-Regular-37" transform="translate(38.399994 0)"/>
     <use xlink:href="#Geist-Regular-39" transform="translate(90.799988 0)"/>
     <use xlink:href="#Geist-Regular-20" transform="translate(150.099976 0)"/>
     <use xlink:href="#Geist-Regular-6e" transform="translate(175.09996 0)"/>
     <use xlink:href="#Geist-Regular-4d" transform="translate(233.199951 0)"/>
     <use xlink:href="#Geist-Regular-20" transform="translate(320.899933 0)"/>
     <use xlink:href="#Geist-Regular-20" transform="translate(345.899918 0)"/>
     <use xlink:href="#Geist-Regular-5b" transform="translate(370.899902 0)"/>
     <use xlink:href="#Geist-Regular-31" transform="translate(405.599899 0)"/>
     <use xlink:href="#Geist-Regular-35" transform="translate(443.999893 0)"/>
     <use xlink:href="#Geist-Regular-35" transform="translate(506.599884 0)"/>
     <use xlink:href="#Geist-Regular-2c" transform="translate(569.199875 0)"/>
     <use xlink:href="#Geist-Regular-20" transform="translate(589.299866 0)"/>
     <use xlink:href="#Geist-Regular-32" transform="translate(614.29985 0)"/>
     <use xlink:href="#Geist-Regular-31" transform="translate(676.199844 0)"/>
     <use xlink:href="#Geist-Regular-33" transform="translate(714.599838 0)"/>
     <use xlink:href="#Geist-Regular-5d" transform="translate(775.899826 0)"/>
    </g>
   </g>
   <g id="text_17">
    <!-- 186 nM  [155, 218] -->
    <g style="fill: #0f1419" transform="translate(219.11669 110.701625) scale(0.06 -0.06)">
     <use xlink:href="#Geist-Regular-31"/>
     <use xlink:href="#Geist-Regular-38" transform="translate(38.399994 0)"/>
     <use xlink:href="#Geist-Regular-36" transform="translate(98.799988 0)"/>
     <use xlink:href="#Geist-Regular-20" transform="translate(158.099976 0)"/>
     <use xlink:href="#Geist-Regular-6e" transform="translate(183.09996 0)"/>
     <use xlink:href="#Geist-Regular-4d" transform="translate(241.199951 0)"/>
     <use xlink:href="#Geist-Regular-20" transform="translate(328.899933 0)"/>
     <use xlink:href="#Geist-Regular-20" transform="translate(353.899918 0)"/>
     <use xlink:href="#Geist-Regular-5b" transform="translate(378.899902 0)"/>
     <use xlink:href="#Geist-Regular-31" transform="translate(413.599899 0)"/>
     <use xlink:href="#Geist-Regular-35" transform="translate(451.999893 0)"/>
     <use xlink:href="#Geist-Regular-35" transform="translate(514.599884 0)"/>
     <use xlink:href="#Geist-Regular-2c" transform="translate(577.199875 0)"/>
     <use xlink:href="#Geist-Regular-20" transform="translate(597.299866 0)"/>
     <use xlink:href="#Geist-Regular-32" transform="translate(622.29985 0)"/>
     <use xlink:href="#Geist-Regular-31" transform="translate(684.199844 0)"/>
     <use xlink:href="#Geist-Regular-38" transform="translate(722.599838 0)"/>
     <use xlink:href="#Geist-Regular-5d" transform="translate(782.999832 0)"/>
    </g>
   </g>
   <g id="text_18">
    <!-- 195 nM  [159, 246] -->
    <g style="fill: #0f1419" transform="translate(226.31172 90.67146) scale(0.06 -0.06)">
     <use xlink:href="#Geist-Regular-31"/>
     <use xlink:href="#Geist-Regular-39" transform="translate(38.399994 0)"/>
     <use xlink:href="#Geist-Regular-35" transform="translate(97.699982 0)"/>
     <use xlink:href="#Geist-Regular-20" transform="translate(160.299973 0)"/>
     <use xlink:href="#Geist-Regular-6e" transform="translate(185.299957 0)"/>
     <use xlink:href="#Geist-Regular-4d" transform="translate(243.399948 0)"/>
     <use xlink:href="#Geist-Regular-20" transform="translate(331.09993 0)"/>
     <use xlink:href="#Geist-Regular-20" transform="translate(356.099915 0)"/>
     <use xlink:href="#Geist-Regular-5b" transform="translate(381.099899 0)"/>
     <use xlink:href="#Geist-Regular-31" transform="translate(415.799896 0)"/>
     <use xlink:href="#Geist-Regular-35" transform="translate(454.19989 0)"/>
     <use xlink:href="#Geist-Regular-39" transform="translate(516.799881 0)"/>
     <use xlink:href="#Geist-Regular-2c" transform="translate(576.099869 0)"/>
     <use xlink:href="#Geist-Regular-20" transform="translate(596.19986 0)"/>
     <use xlink:href="#Geist-Regular-32" transform="translate(621.199844 0)"/>
     <use xlink:href="#Geist-Regular-34" transform="translate(683.099838 0)"/>
     <use xlink:href="#Geist-Regular-36" transform="translate(744.599823 0)"/>
     <use xlink:href="#Geist-Regular-5d" transform="translate(803.899811 0)"/>
    </g>
   </g>
   <g id="text_19">
    <!-- 421 nM  [283, 559] -->
    <g style="fill: #0f1419" transform="translate(274.843413 70.641294) scale(0.06 -0.06)">
     <use xlink:href="#Geist-Regular-34"/>
     <use xlink:href="#Geist-Regular-32" transform="translate(61.499985 0)"/>
     <use xlink:href="#Geist-Regular-31" transform="translate(123.399979 0)"/>
     <use xlink:href="#Geist-Regular-20" transform="translate(161.799973 0)"/>
     <use xlink:href="#Geist-Regular-6e" transform="translate(186.799957 0)"/>
     <use xlink:href="#Geist-Regular-4d" transform="translate(244.899948 0)"/>
     <use xlink:href="#Geist-Regular-20" transform="translate(332.59993 0)"/>
     <use xlink:href="#Geist-Regular-20" transform="translate(357.599915 0)"/>
     <use xlink:href="#Geist-Regular-5b" transform="translate(382.599899 0)"/>
     <use xlink:href="#Geist-Regular-32" transform="translate(417.299896 0)"/>
     <use xlink:href="#Geist-Regular-38" transform="translate(479.19989 0)"/>
     <use xlink:href="#Geist-Regular-33" transform="translate(539.599884 0)"/>
     <use xlink:href="#Geist-Regular-2c" transform="translate(600.899872 0)"/>
     <use xlink:href="#Geist-Regular-20" transform="translate(620.999863 0)"/>
     <use xlink:href="#Geist-Regular-35" transform="translate(645.999847 0)"/>
     <use xlink:href="#Geist-Regular-35" transform="translate(708.599838 0)"/>
     <use xlink:href="#Geist-Regular-39" transform="translate(771.199829 0)"/>
     <use xlink:href="#Geist-Regular-5d" transform="translate(830.499817 0)"/>
    </g>
   </g>
   <g id="text_20">
    <!-- 570 nM  [564, 576] -->
    <g style="fill: #0f1419" transform="translate(276.689536 50.611129) scale(0.06 -0.06)">
     <use xlink:href="#Geist-Regular-35"/>
     <use xlink:href="#Geist-Regular-37" transform="translate(62.599991 0)"/>
     <use xlink:href="#Geist-Regular-30" transform="translate(114.999985 0)"/>
     <use xlink:href="#Geist-Regular-20" transform="translate(181.299973 0)"/>
     <use xlink:href="#Geist-Regular-6e" transform="translate(206.299957 0)"/>
     <use xlink:href="#Geist-Regular-4d" transform="translate(264.399948 0)"/>
     <use xlink:href="#Geist-Regular-20" transform="translate(352.09993 0)"/>
     <use xlink:href="#Geist-Regular-20" transform="translate(377.099915 0)"/>
     <use xlink:href="#Geist-Regular-5b" transform="translate(402.099899 0)"/>
     <use xlink:href="#Geist-Regular-35" transform="translate(436.799896 0)"/>
     <use xlink:href="#Geist-Regular-36" transform="translate(499.399887 0)"/>
     <use xlink:href="#Geist-Regular-34" transform="translate(558.699875 0)"/>
     <use xlink:href="#Geist-Regular-2c" transform="translate(620.19986 0)"/>
     <use xlink:href="#Geist-Regular-20" transform="translate(640.29985 0)"/>
     <use xlink:href="#Geist-Regular-35" transform="translate(665.299835 0)"/>
     <use xlink:href="#Geist-Regular-37" transform="translate(727.899826 0)"/>
     <use xlink:href="#Geist-Regular-36" transform="translate(780.29982 0)"/>
     <use xlink:href="#Geist-Regular-5d" transform="translate(839.599808 0)"/>
    </g>
   </g>
   <g id="text_21">
    <!-- 3215 nM  [2790, 3641] -->
    <g style="fill: #0f1419" transform="translate(385.989372 30.580964) scale(0.06 -0.06)">
     <use xlink:href="#Geist-Regular-33"/>
     <use xlink:href="#Geist-Regular-32" transform="translate(61.299988 0)"/>
     <use xlink:href="#Geist-Regular-31" transform="translate(123.199982 0)"/>
     <use xlink:href="#Geist-Regular-35" transform="translate(161.599976 0)"/>
     <use xlink:href="#Geist-Regular-20" transform="translate(224.199966 0)"/>
     <use xlink:href="#Geist-Regular-6e" transform="translate(249.199951 0)"/>
     <use xlink:href="#Geist-Regular-4d" transform="translate(307.299942 0)"/>
     <use xlink:href="#Geist-Regular-20" transform="translate(394.999924 0)"/>
     <use xlink:href="#Geist-Regular-20" transform="translate(419.999908 0)"/>
     <use xlink:href="#Geist-Regular-5b" transform="translate(444.999893 0)"/>
     <use xlink:href="#Geist-Regular-32" transform="translate(479.69989 0)"/>
     <use xlink:href="#Geist-Regular-37" transform="translate(541.599884 0)"/>
     <use xlink:href="#Geist-Regular-39" transform="translate(593.999878 0)"/>
     <use xlink:href="#Geist-Regular-30" transform="translate(653.299866 0)"/>
     <use xlink:href="#Geist-Regular-2c" transform="translate(719.599854 0)"/>
     <use xlink:href="#Geist-Regular-20" transform="translate(739.699844 0)"/>
     <use xlink:href="#Geist-Regular-33" transform="translate(764.699829 0)"/>
     <use xlink:href="#Geist-Regular-36" transform="translate(825.999817 0)"/>
     <use xlink:href="#Geist-Regular-34" transform="translate(885.299805 0)"/>
     <use xlink:href="#Geist-Regular-31" transform="translate(946.799789 0)"/>
     <use xlink:href="#Geist-Regular-5d" transform="translate(985.199783 0)"/>
    </g>
   </g>
   <g id="text_22">
    <!-- Per-replicate KD spread for the 9 binders -->
    <g style="fill: #0f1419" transform="translate(147.954206 7.973437) scale(0.09 -0.09)">
     <defs>
      <path id="Geist-Regular-50" d="M 589 0 
L 589 4544 
L 2221 4544 
Q 2982 4544 3404 4179 
Q 3827 3814 3827 3168 
Q 3827 2509 3404 2137 
Q 2982 1766 2221 1766 
L 1139 1766 
L 1139 0 
L 589 0 
z
M 1139 2304 
L 2221 2304 
Q 3251 2304 3251 3168 
Q 3251 4006 2221 4006 
L 1139 4006 
L 1139 2304 
z
" transform="scale(0.015625)"/>
     </defs>
     <use xlink:href="#Geist-Regular-50"/>
     <use xlink:href="#Geist-Regular-65" transform="translate(64.999985 0)"/>
     <use xlink:href="#Geist-Regular-72" transform="translate(121.099976 0)"/>
     <use xlink:href="#Geist-Regular-2d" transform="translate(158.999969 0)"/>
     <use xlink:href="#Geist-Regular-72" transform="translate(200.899963 0)"/>
     <use xlink:href="#Geist-Regular-65" transform="translate(238.799957 0)"/>
     <use xlink:href="#Geist-Regular-70" transform="translate(294.899948 0)"/>
     <use xlink:href="#Geist-Regular-6c" transform="translate(354.399933 0)"/>
     <use xlink:href="#Geist-Regular-69" transform="translate(381.09993 0)"/>
     <use xlink:href="#Geist-Regular-63" transform="translate(405.499924 0)"/>
     <use xlink:href="#Geist-Regular-61" transform="translate(460.099915 0)"/>
     <use xlink:href="#Geist-Regular-74" transform="translate(515.199905 0)"/>
     <use xlink:href="#Geist-Regular-65" transform="translate(554.399902 0)"/>
     <use xlink:href="#Geist-Regular-20" transform="translate(610.499893 0)"/>
     <use xlink:href="#Geist-Regular-4b" transform="translate(635.499878 0)"/>
     <use xlink:href="#Geist-Regular-44" transform="translate(699.499863 0)"/>
     <use xlink:href="#Geist-Regular-20" transform="translate(768.899857 0)"/>
     <use xlink:href="#Geist-Regular-73" transform="translate(793.899841 0)"/>
     <use xlink:href="#Geist-Regular-70" transform="translate(845.899826 0)"/>
     <use xlink:href="#Geist-Regular-72" transform="translate(905.399811 0)"/>
     <use xlink:href="#Geist-Regular-65" transform="translate(943.299805 0)"/>
     <use xlink:href="#Geist-Regular-61" transform="translate(999.399796 0)"/>
     <use xlink:href="#Geist-Regular-64" transform="translate(1054.499786 0)"/>
     <use xlink:href="#Geist-Regular-20" transform="translate(1113.999771 0)"/>
     <use xlink:href="#Geist-Regular-66" transform="translate(1138.999756 0)"/>
     <use xlink:href="#Geist-Regular-6f" transform="translate(1178.499741 0)"/>
     <use xlink:href="#Geist-Regular-72" transform="translate(1235.799728 0)"/>
     <use xlink:href="#Geist-Regular-20" transform="translate(1273.699722 0)"/>
     <use xlink:href="#Geist-Regular-74" transform="translate(1298.699707 0)"/>
     <use xlink:href="#Geist-Regular-68" transform="translate(1337.899704 0)"/>
     <use xlink:href="#Geist-Regular-65" transform="translate(1395.999695 0)"/>
     <use xlink:href="#Geist-Regular-20" transform="translate(1452.099686 0)"/>
     <use xlink:href="#Geist-Regular-39" transform="translate(1477.09967 0)"/>
     <use xlink:href="#Geist-Regular-20" transform="translate(1536.399658 0)"/>
     <use xlink:href="#Geist-Regular-62" transform="translate(1561.399643 0)"/>
     <use xlink:href="#Geist-Regular-69" transform="translate(1620.899628 0)"/>
     <use xlink:href="#Geist-Regular-6e" transform="translate(1645.299622 0)"/>
     <use xlink:href="#Geist-Regular-64" transform="translate(1703.399612 0)"/>
     <use xlink:href="#Geist-Regular-65" transform="translate(1762.899597 0)"/>
     <use xlink:href="#Geist-Regular-72" transform="translate(1818.999588 0)"/>
     <use xlink:href="#Geist-Regular-73" transform="translate(1856.899582 0)"/>
    </g>
   </g>
  </g>
 </g>
 <defs>
  <clipPath id="p8e13add173">
   <rect x="69.688125" y="11.973437" width="328.332317" height="193.892"/>
  </clipPath>
 </defs>
</svg>
